<svg width="100" height="100" viewBox="0 0 100 100" fill="none" xmlns="http://www.w3.org/2000/svg">
<path d="M14 4C9.58172 4 6 7.58172 6 12L6.00001 88C6.00001 92.4183 9.58173 96 14 96H90C94.4183 96 98 92.4183 98 88V12C98 7.58172 94.4183 4 90 4L14 4ZM16.0625 9.75001C17.2062 9.75001 18.3031 10.2044 19.1119 11.0131C19.9206 11.8219 20.375 12.9188 20.375 14.0625C20.375 15.2063 19.9206 16.3032 19.1119 17.1119C18.3031 17.9207 17.2062 18.375 16.0625 18.375C14.9188 18.375 13.8219 17.9207 13.0131 17.1119C12.2044 16.3032 11.75 15.2063 11.75 14.0625C11.75 12.9188 12.2044 11.8219 13.0131 11.0131C13.8219 10.2044 14.9188 9.75001 16.0625 9.75001ZM30.4375 9.75001C31.5812 9.75001 32.6781 10.2044 33.4869 11.0131C34.2956 11.8219 34.75 12.9188 34.75 14.0625C34.75 15.2063 34.2956 16.3032 33.4869 17.1119C32.6781 17.9207 31.5812 18.375 30.4375 18.375C29.2937 18.375 28.1969 17.9207 27.3881 17.1119C26.5794 16.3032 26.125 15.2063 26.125 14.0625C26.125 12.9188 26.5794 11.8219 27.3881 11.0131C28.1969 10.2044 29.2937 9.75001 30.4375 9.75001ZM44.8125 9.75001C45.9562 9.75001 47.0531 10.2044 47.8619 11.0131C48.6706 11.8219 49.125 12.9188 49.125 14.0625C49.125 15.2063 48.6706 16.3032 47.8619 17.1119C47.0531 17.9207 45.9562 18.375 44.8125 18.375C43.6687 18.375 42.5718 17.9207 41.7631 17.1119C40.9543 16.3032 40.5 15.2063 40.5 14.0625C40.5 12.9188 40.9543 11.8219 41.7631 11.0131C42.5718 10.2044 43.6687 9.75001 44.8125 9.75001ZM59.1875 9.75001C60.3312 9.75001 61.4281 10.2044 62.2369 11.0131C63.0456 11.8219 63.5 12.9188 63.5 14.0625C63.5 15.2063 63.0456 16.3032 62.2369 17.1119C61.4281 17.9207 60.3312 18.375 59.1875 18.375C58.0437 18.375 56.9468 17.9207 56.1381 17.1119C55.3293 16.3032 54.875 15.2063 54.875 14.0625C54.875 12.9188 55.3293 11.8219 56.1381 11.0131C56.9468 10.2044 58.0437 9.75001 59.1875 9.75001ZM73.5625 9.75001C74.7062 9.75001 75.8031 10.2044 76.6119 11.0131C77.4206 11.8219 77.875 12.9188 77.875 14.0625C77.875 15.2063 77.4206 16.3032 76.6119 17.1119C75.8031 17.9207 74.7062 18.375 73.5625 18.375C72.4187 18.375 71.3218 17.9207 70.5131 17.1119C69.7043 16.3032 69.25 15.2063 69.25 14.0625C69.25 12.9188 69.7043 11.8219 70.5131 11.0131C71.3218 10.2044 72.4187 9.75001 73.5625 9.75001ZM87.9375 9.75001C89.0812 9.75001 90.1781 10.2044 90.9869 11.0131C91.7956 11.8219 92.25 12.9188 92.25 14.0625C92.25 15.2063 91.7956 16.3032 90.9869 17.1119C90.1781 17.9207 89.0812 18.375 87.9375 18.375C86.7937 18.375 85.6968 17.9207 84.8881 17.1119C84.0793 16.3032 83.625 15.2063 83.625 14.0625C83.625 12.9188 84.0793 11.8219 84.8881 11.0131C85.6968 10.2044 86.7937 9.75001 87.9375 9.75001Z" fill="#5AACFF"/>
<path d="M12 4C7.58172 4 4 7.58172 4 12L4.00001 88C4.00001 92.4183 7.58173 96 12 96H88C92.4183 96 96 92.4183 96 88V12C96 7.58172 92.4183 4 88 4L12 4ZM14.0625 9.75001C15.2062 9.75001 16.3031 10.2044 17.1119 11.0131C17.9206 11.8219 18.375 12.9188 18.375 14.0625C18.375 15.2063 17.9206 16.3032 17.1119 17.1119C16.3031 17.9207 15.2062 18.375 14.0625 18.375C12.9188 18.375 11.8219 17.9207 11.0131 17.1119C10.2044 16.3032 9.75 15.2063 9.75 14.0625C9.75 12.9188 10.2044 11.8219 11.0131 11.0131C11.8219 10.2044 12.9188 9.75001 14.0625 9.75001ZM28.4375 9.75001C29.5812 9.75001 30.6781 10.2044 31.4869 11.0131C32.2956 11.8219 32.75 12.9188 32.75 14.0625C32.75 15.2063 32.2956 16.3032 31.4869 17.1119C30.6781 17.9207 29.5812 18.375 28.4375 18.375C27.2937 18.375 26.1969 17.9207 25.3881 17.1119C24.5794 16.3032 24.125 15.2063 24.125 14.0625C24.125 12.9188 24.5794 11.8219 25.3881 11.0131C26.1969 10.2044 27.2937 9.75001 28.4375 9.75001ZM42.8125 9.75001C43.9562 9.75001 45.0531 10.2044 45.8619 11.0131C46.6706 11.8219 47.125 12.9188 47.125 14.0625C47.125 15.2063 46.6706 16.3032 45.8619 17.1119C45.0531 17.9207 43.9562 18.375 42.8125 18.375C41.6687 18.375 40.5718 17.9207 39.7631 17.1119C38.9543 16.3032 38.5 15.2063 38.5 14.0625C38.5 12.9188 38.9543 11.8219 39.7631 11.0131C40.5718 10.2044 41.6687 9.75001 42.8125 9.75001ZM57.1875 9.75001C58.3312 9.75001 59.4281 10.2044 60.2369 11.0131C61.0456 11.8219 61.5 12.9188 61.5 14.0625C61.5 15.2063 61.0456 16.3032 60.2369 17.1119C59.4281 17.9207 58.3312 18.375 57.1875 18.375C56.0437 18.375 54.9468 17.9207 54.1381 17.1119C53.3293 16.3032 52.875 15.2063 52.875 14.0625C52.875 12.9188 53.3293 11.8219 54.1381 11.0131C54.9468 10.2044 56.0437 9.75001 57.1875 9.75001ZM71.5625 9.75001C72.7062 9.75001 73.8031 10.2044 74.6119 11.0131C75.4206 11.8219 75.875 12.9188 75.875 14.0625C75.875 15.2063 75.4206 16.3032 74.6119 17.1119C73.8031 17.9207 72.7062 18.375 71.5625 18.375C70.4187 18.375 69.3218 17.9207 68.5131 17.1119C67.7043 16.3032 67.25 15.2063 67.25 14.0625C67.25 12.9188 67.7043 11.8219 68.5131 11.0131C69.3218 10.2044 70.4187 9.75001 71.5625 9.75001ZM85.9375 9.75001C87.0812 9.75001 88.1781 10.2044 88.9869 11.0131C89.7956 11.8219 90.25 12.9188 90.25 14.0625C90.25 15.2063 89.7956 16.3032 88.9869 17.1119C88.1781 17.9207 87.0812 18.375 85.9375 18.375C84.7937 18.375 83.6968 17.9207 82.8881 17.1119C82.0793 16.3032 81.625 15.2063 81.625 14.0625C81.625 12.9188 82.0793 11.8219 82.8881 11.0131C83.6968 10.2044 84.7937 9.75001 85.9375 9.75001Z" fill="#A3D1FF"/>
<path d="M10 4C5.58172 4 2 7.58172 2 12L2.00001 88C2.00001 92.4183 5.58173 96 10 96H86C90.4183 96 94 92.4183 94 88V12C94 7.58172 90.4183 4 86 4L10 4ZM12.0625 9.75001C13.2062 9.75001 14.3031 10.2044 15.1119 11.0131C15.9206 11.8219 16.375 12.9188 16.375 14.0625C16.375 15.2063 15.9206 16.3032 15.1119 17.1119C14.3031 17.9207 13.2062 18.375 12.0625 18.375C10.9188 18.375 9.82185 17.9207 9.0131 17.1119C8.20435 16.3032 7.75 15.2063 7.75 14.0625C7.75 12.9188 8.20435 11.8219 9.0131 11.0131C9.82185 10.2044 10.9188 9.75001 12.0625 9.75001ZM26.4375 9.75001C27.5812 9.75001 28.6781 10.2044 29.4869 11.0131C30.2956 11.8219 30.75 12.9188 30.75 14.0625C30.75 15.2063 30.2956 16.3032 29.4869 17.1119C28.6781 17.9207 27.5812 18.375 26.4375 18.375C25.2937 18.375 24.1969 17.9207 23.3881 17.1119C22.5794 16.3032 22.125 15.2063 22.125 14.0625C22.125 12.9188 22.5794 11.8219 23.3881 11.0131C24.1969 10.2044 25.2937 9.75001 26.4375 9.75001ZM40.8125 9.75001C41.9562 9.75001 43.0531 10.2044 43.8619 11.0131C44.6706 11.8219 45.125 12.9188 45.125 14.0625C45.125 15.2063 44.6706 16.3032 43.8619 17.1119C43.0531 17.9207 41.9562 18.375 40.8125 18.375C39.6687 18.375 38.5718 17.9207 37.7631 17.1119C36.9543 16.3032 36.5 15.2063 36.5 14.0625C36.5 12.9188 36.9543 11.8219 37.7631 11.0131C38.5718 10.2044 39.6687 9.75001 40.8125 9.75001ZM55.1875 9.75001C56.3312 9.75001 57.4281 10.2044 58.2369 11.0131C59.0456 11.8219 59.5 12.9188 59.5 14.0625C59.5 15.2063 59.0456 16.3032 58.2369 17.1119C57.4281 17.9207 56.3312 18.375 55.1875 18.375C54.0437 18.375 52.9468 17.9207 52.1381 17.1119C51.3293 16.3032 50.875 15.2063 50.875 14.0625C50.875 12.9188 51.3293 11.8219 52.1381 11.0131C52.9468 10.2044 54.0437 9.75001 55.1875 9.75001ZM69.5625 9.75001C70.7062 9.75001 71.8031 10.2044 72.6119 11.0131C73.4206 11.8219 73.875 12.9188 73.875 14.0625C73.875 15.2063 73.4206 16.3032 72.6119 17.1119C71.8031 17.9207 70.7062 18.375 69.5625 18.375C68.4187 18.375 67.3218 17.9207 66.5131 17.1119C65.7043 16.3032 65.25 15.2063 65.25 14.0625C65.25 12.9188 65.7043 11.8219 66.5131 11.0131C67.3218 10.2044 68.4187 9.75001 69.5625 9.75001ZM83.9375 9.75001C85.0812 9.75001 86.1781 10.2044 86.9869 11.0131C87.7956 11.8219 88.25 12.9188 88.25 14.0625C88.25 15.2063 87.7956 16.3032 86.9869 17.1119C86.1781 17.9207 85.0812 18.375 83.9375 18.375C82.7937 18.375 81.6968 17.9207 80.8881 17.1119C80.0793 16.3032 79.625 15.2063 79.625 14.0625C79.625 12.9188 80.0793 11.8219 80.8881 11.0131C81.6968 10.2044 82.7937 9.75001 83.9375 9.75001Z" fill="white"/>
<path fill-rule="evenodd" clip-rule="evenodd" d="M12.1054 29.9849C11.3081 29.9849 10.6618 30.6312 10.6618 31.4285V40.0901C10.6618 40.8874 11.3081 41.5337 12.1054 41.5337H20.767C21.5643 41.5337 22.2106 40.8874 22.2106 40.0901V31.4285C22.2106 30.6312 21.5643 29.9849 20.767 29.9849H12.1054ZM7.77454 31.4285C7.77454 29.0366 9.71351 27.0977 12.1054 27.0977H20.767C23.1589 27.0977 25.0978 29.0366 25.0978 31.4285V40.0901C25.0978 42.482 23.1589 44.421 20.767 44.421H12.1054C9.71351 44.421 7.77454 42.482 7.77454 40.0901V31.4285Z" fill="#A3D1FF"/>
<path d="M79.955 27.0977H33.7595C32.165 27.0977 30.8723 28.3903 30.8723 29.9849C30.8723 31.5794 32.165 32.8721 33.7595 32.8721H79.955C81.5496 32.8721 82.8422 31.5794 82.8422 29.9849C82.8422 28.3903 81.5496 27.0977 79.955 27.0977Z" fill="#C6CDD2"/>
<path d="M85.7294 50.1953H33.7595C32.165 50.1953 30.8723 51.488 30.8723 53.0825C30.8723 54.6771 32.165 55.9697 33.7595 55.9697H85.7294C87.324 55.9697 88.6167 54.6771 88.6167 53.0825C88.6167 51.488 87.324 50.1953 85.7294 50.1953Z" fill="#C6CDD2"/>
<path d="M68.4062 73.293H33.7595C32.165 73.293 30.8723 74.5856 30.8723 76.1802C30.8723 77.7747 32.165 79.0674 33.7595 79.0674H68.4062C70.0007 79.0674 71.2934 77.7747 71.2934 76.1802C71.2934 74.5856 70.0007 73.293 68.4062 73.293Z" fill="#C6CDD2"/>
<path d="M51.0828 81.9551H33.7595C32.165 81.9551 30.8723 83.2477 30.8723 84.8423C30.8723 86.4369 32.165 87.7295 33.7595 87.7295H51.0828C52.6774 87.7295 53.9701 86.4369 53.9701 84.8423C53.9701 83.2477 52.6774 81.9551 51.0828 81.9551Z" fill="#C6CDD2"/>
<path d="M45.3084 58.8574H33.7595C32.165 58.8574 30.8723 60.1501 30.8723 61.7446C30.8723 63.3392 32.165 64.6319 33.7595 64.6319H45.3084C46.903 64.6319 48.1956 63.3392 48.1956 61.7446C48.1956 60.1501 46.903 58.8574 45.3084 58.8574Z" fill="#C6CDD2"/>
<path d="M56.8573 35.7598H33.7595C32.165 35.7598 30.8723 37.0524 30.8723 38.647C30.8723 40.2416 32.165 41.5342 33.7595 41.5342H56.8573C58.4518 41.5342 59.7445 40.2416 59.7445 38.647C59.7445 37.0524 58.4518 35.7598 56.8573 35.7598Z" fill="#C6CDD2"/>
<path fill-rule="evenodd" clip-rule="evenodd" d="M12.1054 76.1802C11.3081 76.1802 10.6618 76.8265 10.6618 77.6238V86.2854C10.6618 87.0827 11.3081 87.7291 12.1054 87.7291H20.767C21.5643 87.7291 22.2106 87.0827 22.2106 86.2854V77.6238C22.2106 76.8265 21.5643 76.1802 20.767 76.1802H12.1054ZM7.77454 77.6238C7.77454 75.2319 9.71351 73.293 12.1054 73.293H20.767C23.1589 73.293 25.0978 75.2319 25.0978 77.6238V86.2854C25.0978 88.6773 23.1589 90.6163 20.767 90.6163H12.1054C9.71351 90.6163 7.77454 88.6773 7.77454 86.2854V77.6238Z" fill="#C6CDD2"/>
<path fill-rule="evenodd" clip-rule="evenodd" d="M12.1054 53.0825C11.3081 53.0825 10.6618 53.7289 10.6618 54.5261V63.1878C10.6618 63.9851 11.3081 64.6314 12.1054 64.6314H20.767C21.5643 64.6314 22.2106 63.9851 22.2106 63.1878V54.5261C22.2106 53.7289 21.5643 53.0825 20.767 53.0825H12.1054ZM7.77454 54.5261C7.77454 52.1343 9.71351 50.1953 12.1054 50.1953H20.767C23.1589 50.1953 25.0978 52.1343 25.0978 54.5261V63.1878C25.0978 65.5796 23.1589 67.5186 20.767 67.5186H12.1054C9.71351 67.5186 7.77454 65.5796 7.77454 63.1878V54.5261Z" fill="#A3D1FF"/>
<path fill-rule="evenodd" clip-rule="evenodd" d="M26.1187 28.9643C26.6825 29.5281 26.6825 30.4421 26.1187 31.0059L17.4571 39.6676C16.8933 40.2313 15.9793 40.2313 15.4155 39.6676L12.5283 36.7803C11.9645 36.2166 11.9645 35.3025 12.5283 34.7388C13.0921 34.175 14.0061 34.175 14.5699 34.7388L16.4363 36.6052L24.0772 28.9643C24.6409 28.4006 25.555 28.4006 26.1187 28.9643Z" fill="#09D693"/>
<path fill-rule="evenodd" clip-rule="evenodd" d="M26.1187 52.062C26.6825 52.6257 26.6825 53.5398 26.1187 54.1036L17.4571 62.7652C16.8933 63.329 15.9793 63.329 15.4155 62.7652L12.5283 59.878C11.9645 59.3142 11.9645 58.4002 12.5283 57.8364C13.0921 57.2727 14.0061 57.2727 14.5699 57.8364L16.4363 59.7029L24.0772 52.062C24.6409 51.4982 25.555 51.4982 26.1187 52.062Z" fill="#09D693"/>
</svg>
