<svg width="80" height="80" viewBox="0 0 80 80" fill="none" xmlns="http://www.w3.org/2000/svg">
<path d="M12.7998 3.19995C8.38152 3.19995 4.7998 6.78167 4.79981 11.2L4.79981 68.8C4.79981 73.2182 8.38153 76.8 12.7998 76.8H70.3998C74.8181 76.8 78.3998 73.2182 78.3998 68.8V11.1999C78.3998 6.78166 74.8181 3.19995 70.3998 3.19995L12.7998 3.19995ZM12.8498 7.79996C13.7648 7.79996 14.6423 8.16344 15.2893 8.81044C15.9363 9.45744 16.2998 10.335 16.2998 11.25C16.2998 12.165 15.9363 13.0425 15.2893 13.6895C14.6423 14.3365 13.7648 14.7 12.8498 14.7C11.9348 14.7 11.0573 14.3365 10.4103 13.6895C9.76329 13.0425 9.39981 12.165 9.39981 11.25C9.39981 10.335 9.76329 9.45744 10.4103 8.81044C11.0573 8.16344 11.9348 7.79996 12.8498 7.79996ZM24.3498 7.79996C25.2648 7.79996 26.1423 8.16344 26.7893 8.81044C27.4363 9.45744 27.7998 10.335 27.7998 11.25C27.7998 12.165 27.4363 13.0425 26.7893 13.6895C26.1423 14.3365 25.2648 14.7 24.3498 14.7C23.4348 14.7 22.5573 14.3365 21.9103 13.6895C21.2633 13.0425 20.8998 12.165 20.8998 11.25C20.8998 10.335 21.2633 9.45744 21.9103 8.81044C22.5573 8.16344 23.4348 7.79996 24.3498 7.79996ZM35.8498 7.79996C36.7648 7.79996 37.6423 8.16344 38.2893 8.81044C38.9363 9.45744 39.2998 10.335 39.2998 11.25C39.2998 12.165 38.9363 13.0425 38.2893 13.6895C37.6423 14.3365 36.7648 14.7 35.8498 14.7C34.9348 14.7 34.0573 14.3365 33.4103 13.6895C32.7633 13.0425 32.3998 12.165 32.3998 11.25C32.3998 10.335 32.7633 9.45744 33.4103 8.81044C34.0573 8.16344 34.9348 7.79996 35.8498 7.79996ZM47.3498 7.79996C48.2648 7.79996 49.1423 8.16344 49.7893 8.81044C50.4363 9.45744 50.7998 10.335 50.7998 11.25C50.7998 12.165 50.4363 13.0425 49.7893 13.6895C49.1423 14.3365 48.2648 14.7 47.3498 14.7C46.4348 14.7 45.5573 14.3365 44.9103 13.6895C44.2633 13.0425 43.8998 12.165 43.8998 11.25C43.8998 10.335 44.2633 9.45744 44.9103 8.81044C45.5573 8.16344 46.4348 7.79996 47.3498 7.79996ZM58.8498 7.79996C59.7648 7.79996 60.6423 8.16344 61.2893 8.81044C61.9363 9.45744 62.2998 10.335 62.2998 11.25C62.2998 12.165 61.9363 13.0425 61.2893 13.6895C60.6423 14.3365 59.7648 14.7 58.8498 14.7C57.9348 14.7 57.0573 14.3365 56.4103 13.6895C55.7633 13.0425 55.3998 12.165 55.3998 11.25C55.3998 10.335 55.7633 9.45744 56.4103 8.81044C57.0573 8.16344 57.9348 7.79996 58.8498 7.79996ZM70.3498 7.79996C71.2648 7.79996 72.1423 8.16344 72.7893 8.81044C73.4363 9.45744 73.7998 10.335 73.7998 11.25C73.7998 12.165 73.4363 13.0425 72.7893 13.6895C72.1423 14.3365 71.2648 14.7 70.3498 14.7C69.4348 14.7 68.5573 14.3365 67.9103 13.6895C67.2633 13.0425 66.8998 12.165 66.8998 11.25C66.8998 10.335 67.2633 9.45744 67.9103 8.81044C68.5573 8.16344 69.4348 7.79996 70.3498 7.79996Z" fill="#5AACFF"/>
<path d="M11.1992 3.19995C6.78093 3.19995 3.19922 6.78167 3.19922 11.2L3.19922 68.8C3.19922 73.2182 6.78095 76.8 11.1992 76.8H68.7992C73.2175 76.8 76.7992 73.2182 76.7992 68.8V11.1999C76.7992 6.78166 73.2175 3.19995 68.7992 3.19995L11.1992 3.19995ZM11.2492 7.79996C12.1642 7.79996 13.0417 8.16344 13.6887 8.81044C14.3357 9.45744 14.6992 10.335 14.6992 11.25C14.6992 12.165 14.3357 13.0425 13.6887 13.6895C13.0417 14.3365 12.1642 14.7 11.2492 14.7C10.3342 14.7 9.4567 14.3365 8.8097 13.6895C8.1627 13.0425 7.79922 12.165 7.79922 11.25C7.79922 10.335 8.1627 9.45744 8.8097 8.81044C9.4567 8.16344 10.3342 7.79996 11.2492 7.79996ZM22.7492 7.79996C23.6642 7.79996 24.5417 8.16344 25.1887 8.81044C25.8357 9.45744 26.1992 10.335 26.1992 11.25C26.1992 12.165 25.8357 13.0425 25.1887 13.6895C24.5417 14.3365 23.6642 14.7 22.7492 14.7C21.8342 14.7 20.9567 14.3365 20.3097 13.6895C19.6627 13.0425 19.2992 12.165 19.2992 11.25C19.2992 10.335 19.6627 9.45744 20.3097 8.81044C20.9567 8.16344 21.8342 7.79996 22.7492 7.79996ZM34.2492 7.79996C35.1642 7.79996 36.0417 8.16344 36.6887 8.81044C37.3357 9.45744 37.6992 10.335 37.6992 11.25C37.6992 12.165 37.3357 13.0425 36.6887 13.6895C36.0417 14.3365 35.1642 14.7 34.2492 14.7C33.3342 14.7 32.4567 14.3365 31.8097 13.6895C31.1627 13.0425 30.7992 12.165 30.7992 11.25C30.7992 10.335 31.1627 9.45744 31.8097 8.81044C32.4567 8.16344 33.3342 7.79996 34.2492 7.79996ZM45.7492 7.79996C46.6642 7.79996 47.5417 8.16344 48.1887 8.81044C48.8357 9.45744 49.1992 10.335 49.1992 11.25C49.1992 12.165 48.8357 13.0425 48.1887 13.6895C47.5417 14.3365 46.6642 14.7 45.7492 14.7C44.8342 14.7 43.9567 14.3365 43.3097 13.6895C42.6627 13.0425 42.2992 12.165 42.2992 11.25C42.2992 10.335 42.6627 9.45744 43.3097 8.81044C43.9567 8.16344 44.8342 7.79996 45.7492 7.79996ZM57.2492 7.79996C58.1642 7.79996 59.0417 8.16344 59.6887 8.81044C60.3357 9.45744 60.6992 10.335 60.6992 11.25C60.6992 12.165 60.3357 13.0425 59.6887 13.6895C59.0417 14.3365 58.1642 14.7 57.2492 14.7C56.3342 14.7 55.4567 14.3365 54.8097 13.6895C54.1627 13.0425 53.7992 12.165 53.7992 11.25C53.7992 10.335 54.1627 9.45744 54.8097 8.81044C55.4567 8.16344 56.3342 7.79996 57.2492 7.79996ZM68.7492 7.79996C69.6642 7.79996 70.5417 8.16344 71.1887 8.81044C71.8357 9.45744 72.1992 10.335 72.1992 11.25C72.1992 12.165 71.8357 13.0425 71.1887 13.6895C70.5417 14.3365 69.6642 14.7 68.7492 14.7C67.8342 14.7 66.9567 14.3365 66.3097 13.6895C65.6627 13.0425 65.2992 12.165 65.2992 11.25C65.2992 10.335 65.6627 9.45744 66.3097 8.81044C66.9567 8.16344 67.8342 7.79996 68.7492 7.79996Z" fill="#A3D1FF"/>
<path d="M9.5996 3.19995C5.18132 3.19995 1.59961 6.78167 1.59961 11.2L1.59961 68.8C1.59961 73.2182 5.18134 76.8 9.59961 76.8H67.1996C71.6179 76.8 75.1996 73.2182 75.1996 68.8V11.1999C75.1996 6.78166 71.6179 3.19995 67.1996 3.19995L9.5996 3.19995ZM9.64961 7.79996C10.5646 7.79996 11.4421 8.16344 12.0891 8.81044C12.7361 9.45744 13.0996 10.335 13.0996 11.25C13.0996 12.165 12.7361 13.0425 12.0891 13.6895C11.4421 14.3365 10.5646 14.7 9.64961 14.7C8.73461 14.7 7.85709 14.3365 7.21009 13.6895C6.56309 13.0425 6.19961 12.165 6.19961 11.25C6.19961 10.335 6.56309 9.45744 7.21009 8.81044C7.85709 8.16344 8.73461 7.79996 9.64961 7.79996ZM21.1496 7.79996C22.0646 7.79996 22.9421 8.16344 23.5891 8.81044C24.2361 9.45744 24.5996 10.335 24.5996 11.25C24.5996 12.165 24.2361 13.0425 23.5891 13.6895C22.9421 14.3365 22.0646 14.7 21.1496 14.7C20.2346 14.7 19.3571 14.3365 18.7101 13.6895C18.0631 13.0425 17.6996 12.165 17.6996 11.25C17.6996 10.335 18.0631 9.45744 18.7101 8.81044C19.3571 8.16344 20.2346 7.79996 21.1496 7.79996ZM32.6496 7.79996C33.5646 7.79996 34.4421 8.16344 35.0891 8.81044C35.7361 9.45744 36.0996 10.335 36.0996 11.25C36.0996 12.165 35.7361 13.0425 35.0891 13.6895C34.4421 14.3365 33.5646 14.7 32.6496 14.7C31.7346 14.7 30.8571 14.3365 30.2101 13.6895C29.5631 13.0425 29.1996 12.165 29.1996 11.25C29.1996 10.335 29.5631 9.45744 30.2101 8.81044C30.8571 8.16344 31.7346 7.79996 32.6496 7.79996ZM44.1496 7.79996C45.0646 7.79996 45.9421 8.16344 46.5891 8.81044C47.2361 9.45744 47.5996 10.335 47.5996 11.25C47.5996 12.165 47.2361 13.0425 46.5891 13.6895C45.9421 14.3365 45.0646 14.7 44.1496 14.7C43.2346 14.7 42.3571 14.3365 41.7101 13.6895C41.0631 13.0425 40.6996 12.165 40.6996 11.25C40.6996 10.335 41.0631 9.45744 41.7101 8.81044C42.3571 8.16344 43.2346 7.79996 44.1496 7.79996ZM55.6496 7.79996C56.5646 7.79996 57.4421 8.16344 58.0891 8.81044C58.7361 9.45744 59.0996 10.335 59.0996 11.25C59.0996 12.165 58.7361 13.0425 58.0891 13.6895C57.4421 14.3365 56.5646 14.7 55.6496 14.7C54.7346 14.7 53.8571 14.3365 53.2101 13.6895C52.5631 13.0425 52.1996 12.165 52.1996 11.25C52.1996 10.335 52.5631 9.45744 53.2101 8.81044C53.8571 8.16344 54.7346 7.79996 55.6496 7.79996ZM67.1496 7.79996C68.0646 7.79996 68.9421 8.16344 69.5891 8.81044C70.2361 9.45744 70.5996 10.335 70.5996 11.25C70.5996 12.165 70.2361 13.0425 69.5891 13.6895C68.9421 14.3365 68.0646 14.7 67.1496 14.7C66.2346 14.7 65.3571 14.3365 64.7101 13.6895C64.0631 13.0425 63.6996 12.165 63.6996 11.25C63.6996 10.335 64.0631 9.45744 64.7101 8.81044C65.3571 8.16344 66.2346 7.79996 67.1496 7.79996Z" fill="white"/>
<path fill-rule="evenodd" clip-rule="evenodd" d="M9.68439 23.988C9.04656 23.988 8.5295 24.5051 8.5295 25.1429V32.0722C8.5295 32.71 9.04656 33.2271 9.68439 33.2271H16.6137C17.2515 33.2271 17.7686 32.71 17.7686 32.0722V25.1429C17.7686 24.5051 17.2515 23.988 16.6137 23.988H9.68439ZM6.21973 25.1429C6.21973 23.2294 7.77091 21.6782 9.68439 21.6782H16.6137C18.5272 21.6782 20.0784 23.2294 20.0784 25.1429V32.0722C20.0784 33.9857 18.5272 35.5369 16.6137 35.5369H9.68439C7.77091 35.5369 6.21973 33.9857 6.21973 32.0722V25.1429Z" fill="#A3D1FF"/>
<path d="M63.9634 21.6782H27.007C25.7314 21.6782 24.6973 22.7123 24.6973 23.988C24.6973 25.2636 25.7314 26.2978 27.007 26.2978H63.9634C65.2391 26.2978 66.2732 25.2636 66.2732 23.988C66.2732 22.7123 65.2391 21.6782 63.9634 21.6782Z" fill="#C6CDD2"/>
<path d="M68.583 40.1562H27.007C25.7314 40.1562 24.6973 41.1904 24.6973 42.466C24.6973 43.7417 25.7314 44.7758 27.007 44.7758H68.583C69.8586 44.7758 70.8927 43.7417 70.8927 42.466C70.8927 41.1904 69.8586 40.1562 68.583 40.1562Z" fill="#C6CDD2"/>
<path d="M54.7243 58.6345H27.007C25.7314 58.6345 24.6973 59.6686 24.6973 60.9443C24.6973 62.2199 25.7314 63.2541 27.007 63.2541H54.7243C56 63.2541 57.0341 62.2199 57.0341 60.9443C57.0341 59.6686 56 58.6345 54.7243 58.6345Z" fill="#C6CDD2"/>
<path d="M40.8657 65.564H27.007C25.7314 65.564 24.6973 66.5981 24.6973 67.8737C24.6973 69.1494 25.7314 70.1835 27.007 70.1835H40.8657C42.1413 70.1835 43.1755 69.1494 43.1755 67.8737C43.1755 66.5981 42.1413 65.564 40.8657 65.564Z" fill="#C6CDD2"/>
<path d="M36.2461 47.0857H27.007C25.7314 47.0857 24.6973 48.1198 24.6973 49.3955C24.6973 50.6711 25.7314 51.7052 27.007 51.7052H36.2461C37.5218 51.7052 38.5559 50.6711 38.5559 49.3955C38.5559 48.1198 37.5218 47.0857 36.2461 47.0857Z" fill="#C6CDD2"/>
<path d="M45.4852 28.6077H27.007C25.7314 28.6077 24.6973 29.6418 24.6973 30.9174C24.6973 32.1931 25.7314 33.2272 27.007 33.2272H45.4852C46.7609 33.2272 47.795 32.1931 47.795 30.9174C47.795 29.6418 46.7609 28.6077 45.4852 28.6077Z" fill="#C6CDD2"/>
<path fill-rule="evenodd" clip-rule="evenodd" d="M9.68439 60.9443C9.04656 60.9443 8.5295 61.4614 8.5295 62.0992V69.0285C8.5295 69.6663 9.04656 70.1834 9.68439 70.1834H16.6137C17.2515 70.1834 17.7686 69.6663 17.7686 69.0285V62.0992C17.7686 61.4614 17.2515 60.9443 16.6137 60.9443H9.68439ZM6.21973 62.0992C6.21973 60.1857 7.77091 58.6345 9.68439 58.6345H16.6137C18.5272 58.6345 20.0784 60.1857 20.0784 62.0992V69.0285C20.0784 70.942 18.5272 72.4932 16.6137 72.4932H9.68439C7.77091 72.4932 6.21973 70.942 6.21973 69.0285V62.0992Z" fill="#C6CDD2"/>
<path fill-rule="evenodd" clip-rule="evenodd" d="M9.68439 42.466C9.04656 42.466 8.5295 42.9831 8.5295 43.6209V50.5502C8.5295 51.1881 9.04656 51.7051 9.68439 51.7051H16.6137C17.2515 51.7051 17.7686 51.1881 17.7686 50.5502V43.6209C17.7686 42.9831 17.2515 42.466 16.6137 42.466H9.68439ZM6.21973 43.6209C6.21973 41.7074 7.77091 40.1562 9.68439 40.1562H16.6137C18.5272 40.1562 20.0784 41.7074 20.0784 43.6209V50.5502C20.0784 52.4637 18.5272 54.0149 16.6137 54.0149H9.68439C7.77091 54.0149 6.21973 52.4637 6.21973 50.5502V43.6209Z" fill="#A3D1FF"/>
<path fill-rule="evenodd" clip-rule="evenodd" d="M20.8942 23.1713C21.3452 23.6223 21.3452 24.3535 20.8942 24.8045L13.9649 31.7338C13.5139 32.1849 12.7826 32.1849 12.3316 31.7338L10.0219 29.4241C9.57084 28.9731 9.57084 28.2418 10.0219 27.7908C10.4729 27.3398 11.2041 27.3398 11.6551 27.7908L13.1483 29.284L19.261 23.1713C19.712 22.7203 20.4432 22.7203 20.8942 23.1713Z" fill="#09D693"/>
<path fill-rule="evenodd" clip-rule="evenodd" d="M20.8942 41.6495C21.3452 42.1005 21.3452 42.8318 20.8942 43.2828L13.9649 50.2121C13.5139 50.6631 12.7826 50.6631 12.3316 50.2121L10.0219 47.9023C9.57084 47.4513 9.57084 46.7201 10.0219 46.2691C10.4729 45.8181 11.2041 45.8181 11.6551 46.2691L13.1483 47.7622L19.261 41.6495C19.712 41.1985 20.4432 41.1985 20.8942 41.6495Z" fill="#09D693"/>
</svg>
