<svg width="80" height="80" viewBox="0 0 80 80" fill="none" xmlns="http://www.w3.org/2000/svg">
<rect width="80" height="80" rx="10" fill="#D8F4F8"/>
<path d="M49.1213 45.8787C50.2929 47.0503 50.2929 48.9497 49.1213 50.1213L40.1213 59.1213C38.9497 60.2929 37.0503 60.2929 35.8787 59.1213L30.8787 54.1213C29.7071 52.9497 29.7071 51.0503 30.8787 49.8787C32.0503 48.7071 33.9497 48.7071 35.1213 49.8787L38 52.7574L44.8787 45.8787C46.0503 44.7071 47.9497 44.7071 49.1213 45.8787Z" fill="#80DEEA"/>
<path fill-rule="evenodd" clip-rule="evenodd" d="M40 8C29.5066 8 21 16.5066 21 27V33.0494C15.9467 33.5511 12 37.8147 12 43V62C12 67.5229 16.4772 72 22 72H58C63.5228 72 68 67.5229 68 62V43C68 37.4772 63.5228 33 58 33H29V27C29 20.9249 33.9249 16 40 16C45.5746 16 50.1863 20.1505 50.9029 25.5283C51.1946 27.7181 53.2063 29.2567 55.3961 28.965C57.5859 28.6732 59.1245 26.6615 58.8328 24.4717C57.5937 15.1721 49.6377 8 40 8ZM22 41C20.8954 41 20 41.8954 20 43V62C20 63.1046 20.8954 64 22 64H58C59.1046 64 60 63.1046 60 62V43C60 41.8954 59.1046 41 58 41H22Z" fill="#80DEEA"/>
</svg>
