<svg width="100" height="100" viewBox="0 0 100 100" fill="none" xmlns="http://www.w3.org/2000/svg">
<rect x="7" y="9" width="87" height="89" rx="8" fill="#5AACFF"/>
<path d="M85.9998 12L15 12C12.2386 12 10 14.2144 10 16.9758L10 90.0057C10 92.7671 12.2386 95 15 95H86C88.7614 95 91 92.7614 91 90L90.9998 17C90.9997 14.2386 88.7612 12 85.9998 12Z" fill="white"/>
<path fill-rule="evenodd" clip-rule="evenodd" d="M57.7134 9.54209C57.7214 9.40408 57.7254 9.26501 57.7254 9.125C57.7254 5.18997 54.5355 2 50.6004 2C46.6654 2 43.4754 5.18997 43.4754 9.125C43.4754 9.26501 43.4795 9.40408 43.4874 9.54209H39.2C36.0422 9.54209 33.5 12.0843 33.5 15.2421V16.9421C33.5 19.1512 35.2909 20.9421 37.5 20.9421H63.7C65.9091 20.9421 67.7 19.1512 67.7 16.9421V15.2421C67.7 12.0843 65.1578 9.54209 62 9.54209H57.7134ZM53.4201 9.54209C53.4401 9.40595 53.4504 9.26668 53.4504 9.125C53.4504 7.55099 52.1744 6.275 50.6004 6.275C49.0264 6.275 47.7504 7.55099 47.7504 9.125C47.7504 9.63712 47.8855 10.1177 48.122 10.533C48.6124 11.3938 49.5384 11.9742 50.6 11.9742C52.0321 11.9742 53.218 10.918 53.4201 9.54209Z" fill="#152560"/>
<path d="M79.1 29.707H22.1C20.526 29.707 19.25 30.983 19.25 32.557C19.25 34.131 20.526 35.407 22.1 35.407H79.1C80.674 35.407 81.95 34.131 81.95 32.557C81.95 30.983 80.674 29.707 79.1 29.707Z" fill="#C6CDD2"/>
<path d="M79.1 41.1069H22.1C20.526 41.1069 19.25 42.3829 19.25 43.9569C19.25 45.5309 20.526 46.8069 22.1 46.8069H79.1C80.674 46.8069 81.95 45.5309 81.95 43.9569C81.95 42.3829 80.674 41.1069 79.1 41.1069Z" fill="#C6CDD2"/>
<path d="M79.1 52.5073H22.1C20.526 52.5073 19.25 53.7833 19.25 55.3573C19.25 56.9313 20.526 58.2073 22.1 58.2073H79.1C80.674 58.2073 81.95 56.9313 81.95 55.3573C81.95 53.7833 80.674 52.5073 79.1 52.5073Z" fill="#C6CDD2"/>
<path d="M79.1 63.9072H22.1C20.526 63.9072 19.25 65.1832 19.25 66.7572C19.25 68.3312 20.526 69.6072 22.1 69.6072H79.1C80.674 69.6072 81.95 68.3312 81.95 66.7572C81.95 65.1832 80.674 63.9072 79.1 63.9072Z" fill="#C6CDD2"/>
<path d="M30.65 75.3071H22.1C20.526 75.3071 19.25 76.5831 19.25 78.1571C19.25 79.7311 20.526 81.0071 22.1 81.0071H30.65C32.224 81.0071 33.5 79.7311 33.5 78.1571C33.5 76.5831 32.224 75.3071 30.65 75.3071Z" fill="#C6CDD2"/>
<path d="M78.4503 22.0567L72.025 28.4819L84.1071 40.5641L90.5324 34.1388C93.6566 31.0146 93.6566 25.9493 90.5324 22.8251L89.764 22.0567C86.6398 18.9325 81.5745 18.9325 78.4503 22.0567Z" fill="#FB70A1"/>
<path d="M90.1464 22.4419L78.0656 34.5227L84.106 40.5631L90.5299 34.1392C93.6541 31.015 93.6541 25.9497 90.5299 22.8255L90.1464 22.4419Z" fill="#FA4C8A"/>
<path d="M76.0523 24.4557L35.7785 64.7294L31.7511 80.8389L47.8606 76.8115L88.1344 36.5378L76.0523 24.4557Z" fill="#FFAE47"/>
<path d="M82.0927 30.501L40.2937 72.3L47.8581 76.8164L88.1331 36.5414L82.0927 30.501Z" fill="#F69B28"/>
<path d="M35.7785 64.7294L31.7511 80.8389L47.8606 76.8115V74.7842C47.8606 73.6796 46.9652 72.7842 45.8606 72.7842L43.8333 72.7842L43.8333 70.7568C43.8333 69.6522 42.9378 68.7568 41.8333 68.7568L39.8059 68.7568L39.8059 66.7294C39.8059 65.6248 38.9105 64.7294 37.8059 64.7294L35.7785 64.7294Z" fill="#FF7043"/>
<path d="M34.1696 71.1748L31.7547 80.842L41.422 78.4272L34.1696 71.1748Z" fill="#091540"/>
<path d="M76.0525 24.4594L67.9978 32.5142L80.0799 44.5963L88.1347 36.5415L76.0525 24.4594Z" fill="#1A3289"/>
<path d="M82.0929 30.4956L74.0391 38.5495L80.0795 44.5899L88.1334 36.536L82.0929 30.4956Z" fill="#152560"/>
</svg>
