<svg width="80" height="80" viewBox="0 0 80 80" fill="none" xmlns="http://www.w3.org/2000/svg">
<rect x="5.59961" y="7.2002" width="69.6" height="71.2" rx="8" fill="#5AACFF"/>
<path d="M67.7998 9.6001L13 9.6001C10.2386 9.6001 8 11.816 8 14.5774L8 71.0133C8 73.7747 10.2386 76.0001 13 76.0001H67.8C70.5614 76.0001 72.8 73.7615 72.8 71.0001L72.7998 14.6001C72.7998 11.8387 70.5612 9.6001 67.7998 9.6001Z" fill="white"/>
<path fill-rule="evenodd" clip-rule="evenodd" d="M46.1705 7.63377C46.1769 7.52336 46.1801 7.41211 46.1801 7.3001C46.1801 4.15207 43.6282 1.6001 40.4802 1.6001C37.3321 1.6001 34.7802 4.15207 34.7802 7.3001C34.7802 7.41211 34.7834 7.52336 34.7898 7.63377H31.3598C28.8336 7.63377 26.7998 9.66753 26.7998 12.1938V13.5538C26.7998 15.3211 28.2325 16.7538 29.9998 16.7538H50.9598C52.7271 16.7538 54.1598 15.3211 54.1598 13.5538V12.1938C54.1598 9.66753 52.126 7.63377 49.5998 7.63377H46.1705ZM42.7359 7.63377C42.7519 7.52486 42.7602 7.41344 42.7602 7.3001C42.7602 6.04089 41.7394 5.0201 40.4802 5.0201C39.2209 5.0201 38.2002 6.04089 38.2002 7.3001C38.2002 7.70979 38.3082 8.09425 38.4974 8.42652C38.8897 9.11515 39.6305 9.57948 40.4798 9.57948C41.6255 9.57948 42.5742 8.73451 42.7359 7.63377Z" fill="#152560"/>
<path d="M63.2804 23.7659H17.6804C16.4212 23.7659 15.4004 24.7867 15.4004 26.0459C15.4004 27.3051 16.4212 28.3259 17.6804 28.3259H63.2804C64.5396 28.3259 65.5604 27.3051 65.5604 26.0459C65.5604 24.7867 64.5396 23.7659 63.2804 23.7659Z" fill="#C6CDD2"/>
<path d="M63.2804 32.8857H17.6804C16.4212 32.8857 15.4004 33.9065 15.4004 35.1657C15.4004 36.425 16.4212 37.4457 17.6804 37.4457H63.2804C64.5396 37.4457 65.5604 36.425 65.5604 35.1657C65.5604 33.9065 64.5396 32.8857 63.2804 32.8857Z" fill="#C6CDD2"/>
<path d="M63.2804 42.0059H17.6804C16.4212 42.0059 15.4004 43.0267 15.4004 44.2859C15.4004 45.5451 16.4212 46.5659 17.6804 46.5659H63.2804C64.5396 46.5659 65.5604 45.5451 65.5604 44.2859C65.5604 43.0267 64.5396 42.0059 63.2804 42.0059Z" fill="#C6CDD2"/>
<path d="M63.2804 51.1257H17.6804C16.4212 51.1257 15.4004 52.1465 15.4004 53.4057C15.4004 54.6649 16.4212 55.6857 17.6804 55.6857H63.2804C64.5396 55.6857 65.5604 54.6649 65.5604 53.4057C65.5604 52.1465 64.5396 51.1257 63.2804 51.1257Z" fill="#C6CDD2"/>
<path d="M24.5204 60.2458H17.6804C16.4212 60.2458 15.4004 61.2666 15.4004 62.5259C15.4004 63.7851 16.4212 64.8059 17.6804 64.8059H24.5204C25.7796 64.8059 26.8004 63.7851 26.8004 62.5259C26.8004 61.2666 25.7796 60.2458 24.5204 60.2458Z" fill="#C6CDD2"/>
<path d="M62.453 17.953L57.6201 22.7859L67.2858 32.4516L72.1187 27.6187C74.7878 24.9496 74.7878 20.6221 72.1187 17.953C69.4495 15.2839 65.1221 15.2839 62.453 17.953Z" fill="#FB70A1"/>
<path d="M72.1168 17.9536L62.4521 27.6183L67.2845 32.4506L72.1168 27.6183C74.7856 24.9495 74.7856 20.6224 72.1168 17.9536V17.9536Z" fill="#FA4C8A"/>
<path d="M60.8421 19.5646L28.6231 51.7836L25.4012 64.6712L38.2888 61.4493L70.5078 29.2303L60.8421 19.5646Z" fill="#FFAE47"/>
<path d="M65.6745 24.4009L32.2354 57.8401L38.2869 61.4532L70.5069 29.2332L65.6745 24.4009Z" fill="#F69B28"/>
<path d="M28.6231 51.7836L25.4012 64.6712L38.2888 61.4493V60.2274C38.2888 59.1229 37.3934 58.2274 36.2888 58.2274L35.0669 58.2274L35.0669 57.0055C35.0669 55.901 34.1715 55.0055 33.0669 55.0055L31.845 55.0055L31.845 53.7836C31.845 52.6791 30.9496 51.7836 29.845 51.7836L28.6231 51.7836Z" fill="#FF7043"/>
<path d="M27.3358 56.9401L25.4039 64.6739L33.1377 62.742L27.3358 56.9401Z" fill="#091540"/>
<path d="M60.8422 19.5677L54.3984 26.0115L64.0641 35.6772L70.5079 29.2334L60.8422 19.5677Z" fill="#1A3289"/>
<path d="M65.6746 24.3965L59.2314 30.8396L64.0638 35.6719L70.5069 29.2288L65.6746 24.3965Z" fill="#152560"/>
</svg>
