<svg width="100" height="100" viewBox="0 0 100 100" fill="none" xmlns="http://www.w3.org/2000/svg">
<path d="M51.9484 97C77.9689 97 99.0627 75.9574 99.0627 50C99.0627 24.0426 77.9689 3 51.9484 3C25.9279 3 4.83411 24.0426 4.83411 50C4.83411 75.9574 25.9279 97 51.9484 97Z" fill="#0D55CF"/>
<path d="M49.1143 97C75.1348 97 96.2286 75.9574 96.2286 50C96.2286 24.0426 75.1348 3 49.1143 3C23.0938 3 2 24.0426 2 50C2 75.9574 23.0938 97 49.1143 97Z" fill="white"/>
<path d="M49.1143 85.25C68.6297 85.25 84.45 69.468 84.45 50C84.45 30.532 68.6297 14.75 49.1143 14.75C29.5989 14.75 13.7786 30.532 13.7786 50C13.7786 69.468 29.5989 85.25 49.1143 85.25Z" fill="#DBC7FF"/>
<path d="M49.1143 73.5C62.1245 73.5 72.6714 62.9787 72.6714 50C72.6714 37.0213 62.1245 26.5 49.1143 26.5C36.104 26.5 25.5571 37.0213 25.5571 50C25.5571 62.9787 36.104 73.5 49.1143 73.5Z" fill="white"/>
<path d="M49.1143 61.75C55.6194 61.75 60.8928 56.4893 60.8928 50C60.8928 43.5107 55.6194 38.25 49.1143 38.25C42.6091 38.25 37.3357 43.5107 37.3357 50C37.3357 56.4893 42.6091 61.75 49.1143 61.75Z" fill="#DBC7FF"/>
<path d="M69.7268 29.4375H84.45L96.2286 17.6875H81.5054L69.7268 29.4375Z" fill="#A16BFF"/>
<path d="M69.7268 29.4375V14.75L81.5054 3V17.6875L69.7268 29.4375Z" fill="#702EE6"/>
<path fill-rule="evenodd" clip-rule="evenodd" d="M86.5322 12.6729C87.6822 13.82 87.6822 15.68 86.5322 16.8271L51.1965 52.0771C50.0465 53.2243 48.1821 53.2243 47.0321 52.0771C45.8822 50.93 45.8822 49.07 47.0321 47.9229L82.3679 12.6729C83.5178 11.5257 85.3823 11.5257 86.5322 12.6729Z" fill="#8743FF"/>
</svg>
