<svg width="80" height="80" viewBox="0 0 80 80" fill="none" xmlns="http://www.w3.org/2000/svg">
<path d="M23.1488 35.032C22.7832 37.3363 22.6181 39.3968 23.5859 41.1565C25.0252 43.7732 22.2217 48.9173 25.123 51.4645C25.123 51.4645 20.9917 54.5841 14.6578 54.4755C8.85171 54.376 4.8291 51.4645 4.8291 51.4645C5.81178 49.8659 6.37071 47.7074 5.78105 45.6437C5.29919 43.9572 5.94092 42.2068 6.34119 40.6399C6.66764 39.362 6.42429 37.2882 6.84186 35.4671L23.1488 35.032Z" fill="#191847"/>
<path d="M14.8934 48.0649L12.2106 48.2337L10.5059 59.2878L14.8934 66.2605L19.281 59.2878L17.5762 48.2337L14.8934 48.0649Z" fill="url(#paint0_linear)"/>
<path d="M10.5116 56.3228L9.14941 58.1323L13.4117 64.7957L20.3396 63.1298L18.9555 56.7724C18.4705 57.3889 17.8534 57.8871 17.1502 58.2298C16.447 58.5725 15.6759 58.7508 14.8947 58.7515C14.0198 58.7517 13.1592 58.5291 12.3928 58.1044C11.6264 57.6798 10.9793 57.0669 10.5116 56.3228V56.3228Z" fill="white"/>
<path d="M21.9002 38.313C21.9002 42.2339 18.7422 50.4834 14.8466 50.4834C10.951 50.4834 7.79297 42.2339 7.79297 38.313C7.79297 34.3921 10.951 31.2136 14.8466 31.2136C18.7422 31.2136 21.9002 34.3921 21.9002 38.313Z" fill="#FFD4C7"/>
<path d="M21.2717 32.3062C18.8844 26.279 7.84511 27.4751 6.8418 35.467L7.11935 37.4526L7.8781 41.9019L8.97859 43.8356L7.83133 39.3424C10.3039 34.8634 15.1982 37.4239 18.6872 34.9964C20.468 38.0097 20.1559 42.6683 19.7548 46.0275L22.8735 43.2969L22.1834 37.7184L23.1487 35.0319C23.1487 33.3099 21.6559 32.2057 21.2717 32.3062Z" fill="#191847"/>
<path d="M8.37231 39.3073C8.05633 38.8971 7.53091 39.0222 7.53321 39.6269C7.53849 40.9877 7.98724 42.5365 8.6074 43.2643C8.72094 43.3976 8.97597 43.4602 9.24933 43.3009L8.37231 39.3073Z" fill="#FFD4C7"/>
<path d="M11.1006 55.5376L6.7761 56.7943C4.58626 57.4294 3.5802 58.398 2.9203 60.5167L2.07771 63.2177C0.470936 68.3684 4.31927 73.6001 9.71473 73.6001H30.9494L26.868 60.5167C26.2081 58.398 25.202 57.4294 23.0122 56.7943L18.6877 55.5376C17.8272 58.2289 15.8541 61.7439 14.8941 61.7439C13.9342 61.7439 11.9611 58.2289 11.1006 55.5376Z" fill="#FFA3A3"/>
<path d="M11.1 55.5376L10.0088 55.8546C10.3364 56.8876 10.8019 57.9557 11.3233 58.9872C11.7958 59.9218 12.3091 60.7849 12.8283 61.4638C13.0879 61.8033 13.3445 62.0982 13.6449 62.3484C13.9452 62.5985 14.2983 62.8643 14.8935 62.8643C15.4887 62.8643 15.8418 62.5985 16.1422 62.3484C16.4425 62.0982 16.6992 61.8033 16.9587 61.4638C17.4779 60.7849 17.9913 59.9218 18.4637 58.9872C18.9852 57.9557 19.4507 56.8876 19.7783 55.8546L18.6871 55.5376C17.8266 58.2289 15.8535 61.7439 14.8935 61.7439C13.9336 61.7439 11.9605 58.2289 11.1 55.5376Z" fill="#FB70A1"/>
<path d="M19.0028 55.758C18.9561 55.7549 18.9097 55.7675 18.8709 55.7938C18.8321 55.8201 18.803 55.8586 18.7883 55.9033C18.7701 55.9562 18.7732 56.0141 18.7972 56.0646C18.8211 56.1151 18.8639 56.1541 18.9162 56.1731L19.1883 56.2685C19.2146 56.2775 19.2424 56.2813 19.2701 56.2795C19.2978 56.2777 19.3248 56.2704 19.3497 56.258C19.3746 56.2457 19.3968 56.2286 19.4151 56.2076C19.4334 56.1866 19.4475 56.1622 19.4564 56.1357C19.4747 56.0829 19.4715 56.0249 19.4475 55.9744C19.4236 55.9239 19.3808 55.8849 19.3285 55.8659L19.0564 55.7705C19.0391 55.764 19.0211 55.7598 19.0028 55.758L19.0028 55.758ZM10.7679 55.7623C10.7511 55.7631 10.7345 55.7658 10.7184 55.7706L10.4462 55.866C10.3939 55.885 10.3511 55.924 10.3272 55.9745C10.3033 56.025 10.3001 56.083 10.3184 56.1358C10.3273 56.1622 10.3413 56.1867 10.3596 56.2077C10.3779 56.2286 10.4001 56.2458 10.425 56.2581C10.4499 56.2705 10.477 56.2777 10.5047 56.2795C10.5324 56.2813 10.5601 56.2776 10.5864 56.2686L10.8586 56.1732C10.9109 56.1542 10.9536 56.1152 10.9776 56.0647C11.0015 56.0142 11.0047 55.9562 10.9864 55.9034C10.9708 55.8587 10.9408 55.8206 10.9012 55.795C10.8616 55.7694 10.8147 55.7579 10.7679 55.7623L10.7679 55.7623ZM10.9864 56.2603C10.9684 56.2594 10.9504 56.2609 10.9328 56.2646C10.9171 56.2683 10.9019 56.2739 10.8875 56.2812L10.6359 56.3974C10.5853 56.4203 10.5458 56.4623 10.5257 56.5143C10.5056 56.5663 10.5067 56.6242 10.5287 56.6754C10.54 56.7012 10.5562 56.7244 10.5764 56.7438C10.5966 56.7631 10.6205 56.7783 10.6465 56.7883C10.6726 56.7983 10.7004 56.8031 10.7283 56.8022C10.7562 56.8014 10.7837 56.795 10.8091 56.7834L11.0607 56.6671C11.0858 56.6554 11.1085 56.6388 11.1273 56.6183C11.1461 56.5978 11.1607 56.5737 11.1703 56.5475C11.1799 56.5213 11.1842 56.4935 11.1831 56.4656C11.182 56.4377 11.1754 56.4103 11.1637 56.3849C11.1481 56.35 11.1233 56.32 11.0921 56.2981C11.0609 56.2762 11.0244 56.2632 10.9864 56.2604L10.9864 56.2603ZM18.7801 56.2646C18.744 56.2683 18.7095 56.2814 18.6799 56.3025C18.6503 56.3235 18.6266 56.352 18.611 56.3849C18.5994 56.4103 18.5928 56.4377 18.5917 56.4656C18.5905 56.4935 18.5949 56.5214 18.6044 56.5476C18.614 56.5738 18.6286 56.5978 18.6475 56.6184C18.6663 56.6389 18.6889 56.6555 18.7141 56.6672L18.9657 56.7834C18.9911 56.795 19.0185 56.8014 19.0465 56.8022C19.0744 56.8031 19.1022 56.7984 19.1282 56.7883C19.1543 56.7783 19.1782 56.7632 19.1984 56.7438C19.2186 56.7244 19.2348 56.7012 19.2461 56.6755C19.2683 56.6248 19.27 56.5673 19.2507 56.5153C19.2315 56.4634 19.1928 56.421 19.143 56.3974L18.8914 56.2812C18.8565 56.2656 18.818 56.2599 18.7801 56.2646L18.7801 56.2646ZM11.2215 56.7875C11.2035 56.7866 11.1855 56.7881 11.1679 56.7918C11.1507 56.7952 11.1341 56.8008 11.1184 56.8084L10.8297 56.9453C10.8045 56.957 10.7819 56.9736 10.763 56.9941C10.7442 57.0147 10.7296 57.0387 10.72 57.0649C10.7105 57.0911 10.7061 57.119 10.7072 57.1469C10.7084 57.1748 10.715 57.2022 10.7266 57.2275C10.7382 57.2529 10.7547 57.2757 10.7751 57.2946C10.7955 57.3136 10.8194 57.3283 10.8455 57.3379C10.8715 57.3476 10.8992 57.3519 10.9269 57.3508C10.9546 57.3497 10.9818 57.343 11.007 57.3313L11.2957 57.1943C11.3209 57.1826 11.3435 57.1661 11.3623 57.1455C11.3812 57.125 11.3958 57.101 11.4054 57.0747C11.4149 57.0485 11.4193 57.0207 11.4181 56.9928C11.417 56.9649 11.4104 56.9375 11.3988 56.9121C11.3831 56.8772 11.3584 56.8472 11.3272 56.8253C11.2959 56.8034 11.2594 56.7904 11.2215 56.7876L11.2215 56.7875ZM18.545 56.7918C18.509 56.7955 18.4745 56.8086 18.4448 56.8297C18.4152 56.8507 18.3915 56.8792 18.376 56.9121C18.3643 56.9375 18.3577 56.9649 18.3566 56.9928C18.3555 57.0207 18.3598 57.0486 18.3694 57.0748C18.379 57.101 18.3936 57.125 18.4124 57.1456C18.4312 57.1661 18.4539 57.1827 18.4791 57.1944L18.7677 57.3313C18.7929 57.3431 18.8201 57.3497 18.8479 57.3508C18.8756 57.352 18.9033 57.3476 18.9293 57.3379C18.9553 57.3283 18.9792 57.3136 18.9996 57.2947C19.02 57.2757 19.0365 57.2529 19.0481 57.2276C19.0598 57.2022 19.0664 57.1748 19.0675 57.1469C19.0686 57.119 19.0643 57.0912 19.0547 57.0649C19.0451 57.0387 19.0305 57.0147 19.0117 56.9941C18.9929 56.9736 18.9702 56.957 18.945 56.9453L18.6564 56.8084C18.6214 56.7928 18.583 56.7871 18.545 56.7918L18.545 56.7918ZM11.3782 57.2857C11.3419 57.2863 11.3064 57.2963 11.2751 57.3147L11.0153 57.46C10.9908 57.4735 10.9692 57.4918 10.9518 57.5137C10.9344 57.5357 10.9215 57.5609 10.9138 57.5879C10.9061 57.615 10.9039 57.6432 10.9071 57.6711C10.9104 57.699 10.9191 57.726 10.9328 57.7505C10.9466 57.7748 10.965 57.7961 10.987 57.8132C11.0089 57.8304 11.0341 57.8429 11.0609 57.8503C11.0877 57.8576 11.1157 57.8595 11.1432 57.8559C11.1708 57.8524 11.1974 57.8433 11.2215 57.8294L11.4813 57.6841C11.5057 57.6706 11.5273 57.6523 11.5447 57.6304C11.5621 57.6084 11.5751 57.5832 11.5827 57.5562C11.5904 57.5292 11.5927 57.5009 11.5894 57.473C11.5861 57.4451 11.5774 57.4181 11.5637 57.3936C11.5452 57.3606 11.5182 57.3332 11.4856 57.3142C11.4529 57.2952 11.4158 57.2854 11.3782 57.2857V57.2857ZM18.3925 57.2857C18.3562 57.2868 18.3208 57.2973 18.2898 57.3162C18.2587 57.3351 18.233 57.3618 18.2152 57.3936C18.2013 57.4178 18.1923 57.4446 18.1888 57.4723C18.1852 57.5001 18.1871 57.5282 18.1944 57.5552C18.2017 57.5822 18.2142 57.6075 18.2312 57.6296C18.2482 57.6517 18.2694 57.6703 18.2935 57.6841L18.5574 57.8294C18.6057 57.8562 18.6625 57.863 18.7157 57.8483C18.7688 57.8336 18.8142 57.7985 18.842 57.7505C18.8557 57.726 18.8644 57.699 18.8676 57.6711C18.8709 57.6432 18.8686 57.615 18.861 57.5879C18.8533 57.5609 18.8404 57.5357 18.823 57.5137C18.8055 57.4918 18.784 57.4735 18.7595 57.46L18.4997 57.3147C18.4672 57.2956 18.4302 57.2856 18.3925 57.2857H18.3925ZM11.6008 57.8501C11.5649 57.8495 11.5294 57.858 11.4977 57.875L11.2503 58.012C11.202 58.0393 11.1662 58.0846 11.1508 58.1382C11.1354 58.1918 11.1415 58.2493 11.1679 58.2984C11.1943 58.3477 11.239 58.3846 11.2923 58.4009C11.3456 58.4173 11.4031 58.4117 11.4524 58.3855L11.6998 58.2486C11.7243 58.2351 11.7459 58.2168 11.7633 58.1948C11.7807 58.1729 11.7936 58.1477 11.8013 58.1206C11.809 58.0936 11.8112 58.0653 11.808 58.0374C11.8047 58.0095 11.796 57.9825 11.7823 57.9581C11.7641 57.9256 11.7377 57.8986 11.7059 57.8797C11.674 57.8607 11.6378 57.8506 11.6008 57.8501L11.6008 57.8501ZM18.1698 57.8501C18.1335 57.8513 18.0981 57.8618 18.0671 57.8807C18.036 57.8996 18.0103 57.9262 17.9925 57.958C17.9788 57.9825 17.9701 58.0095 17.9668 58.0374C17.9635 58.0653 17.9658 58.0936 17.9735 58.1206C17.9811 58.1476 17.9941 58.1729 18.0115 58.1948C18.0289 58.2168 18.0505 58.2351 18.075 58.2486L18.3224 58.3855C18.347 58.3991 18.374 58.4077 18.4019 58.4107C18.4298 58.4137 18.458 58.411 18.4849 58.4029C18.5117 58.3948 18.5367 58.3814 18.5584 58.3634C18.5801 58.3455 18.598 58.3233 18.611 58.2984C18.6371 58.2488 18.6426 58.1909 18.6263 58.1372C18.6101 58.0836 18.5735 58.0386 18.5244 58.012L18.2811 57.875C18.247 57.8566 18.2085 57.848 18.1698 57.8501L18.1698 57.8501ZM11.8153 58.4146C11.7807 58.4203 11.7481 58.4346 11.7204 58.4561L11.539 58.5972C11.5167 58.614 11.4979 58.6351 11.4838 58.6593C11.4696 58.6835 11.4604 58.7102 11.4565 58.738C11.4527 58.7658 11.4544 58.794 11.4614 58.8212C11.4685 58.8483 11.4809 58.8737 11.4977 58.896C11.5148 58.9182 11.536 58.9367 11.5601 58.9505C11.5843 58.9644 11.6109 58.9733 11.6385 58.9768C11.6661 58.9803 11.6941 58.9782 11.7209 58.9708C11.7477 58.9633 11.7727 58.9506 11.7947 58.9334L11.9761 58.7923C11.9984 58.7754 12.0171 58.7543 12.0313 58.7302C12.0455 58.706 12.0547 58.6793 12.0585 58.6515C12.0624 58.6237 12.0607 58.5955 12.0536 58.5683C12.0466 58.5412 12.0342 58.5157 12.0173 58.4934C11.9939 58.4631 11.9627 58.4398 11.9271 58.4259C11.8915 58.412 11.8529 58.4081 11.8153 58.4146H11.8153ZM17.8976 58.4146C17.8439 58.4223 17.7952 58.4505 17.7616 58.4934C17.7444 58.5155 17.7318 58.5407 17.7244 58.5677C17.717 58.5947 17.715 58.6229 17.7184 58.6506C17.7219 58.6784 17.7308 58.7052 17.7445 58.7295C17.7583 58.7538 17.7767 58.7751 17.7987 58.7923L17.9801 58.9334C18.002 58.9506 18.0271 58.9633 18.0539 58.9708C18.0807 58.9782 18.1087 58.9803 18.1363 58.9768C18.1639 58.9733 18.1905 58.9644 18.2147 58.9505C18.2388 58.9367 18.26 58.9182 18.277 58.896C18.2941 58.874 18.3068 58.8487 18.3142 58.8218C18.3216 58.7948 18.3236 58.7666 18.3201 58.7389C18.3167 58.7111 18.3078 58.6843 18.2941 58.66C18.2803 58.6357 18.2619 58.6143 18.2399 58.5972L18.0585 58.4561C18.0358 58.4386 18.0099 58.4259 17.9823 58.4188C17.9546 58.4116 17.9258 58.4102 17.8976 58.4146H17.8976ZM17.6255 58.9666C17.6061 58.9653 17.5867 58.9668 17.5678 58.9708C17.5127 58.9806 17.4638 59.012 17.4317 59.058C17.3997 59.1038 17.387 59.1604 17.3963 59.2156C17.4055 59.2707 17.436 59.32 17.4812 59.3527L17.6956 59.5058C17.7411 59.538 17.7973 59.5508 17.8521 59.5415C17.9069 59.5322 17.9559 59.5015 17.9884 59.456C18.0203 59.4102 18.033 59.3536 18.0238 59.2985C18.0145 59.2433 17.984 59.194 17.9389 59.1613L17.7286 59.0078C17.6985 58.9849 17.6629 58.9706 17.6255 58.9663L17.6255 58.9666ZM12.1452 58.9708C12.111 58.9753 12.0784 58.9881 12.0503 59.0082L11.8359 59.1618C11.7908 59.1944 11.7602 59.2437 11.751 59.2989C11.7417 59.354 11.7544 59.4107 11.7864 59.4564C11.8025 59.4795 11.823 59.4991 11.8467 59.5142C11.8704 59.5292 11.8968 59.5393 11.9245 59.544C11.9521 59.5486 11.9804 59.5476 12.0077 59.5412C12.0349 59.5347 12.0606 59.5228 12.0833 59.5063L12.2936 59.3527C12.3387 59.32 12.3693 59.2707 12.3785 59.2156C12.3878 59.1604 12.3751 59.1038 12.3431 59.058C12.321 59.0269 12.2909 59.0023 12.256 58.987C12.2212 58.9717 12.1829 58.9661 12.1452 58.9708H12.1452ZM12.4957 59.5187C12.4597 59.5237 12.4256 59.538 12.3967 59.5602L12.1699 59.7304C12.1476 59.7472 12.1289 59.7683 12.1147 59.7924C12.1006 59.8166 12.0913 59.8434 12.0875 59.8711C12.0836 59.8989 12.0853 59.9272 12.0924 59.9543C12.0994 59.9814 12.1118 60.0069 12.1287 60.0292C12.1624 60.0733 12.2119 60.1024 12.2666 60.1101C12.3214 60.1179 12.377 60.1037 12.4215 60.0707L12.6524 59.9005C12.6747 59.8837 12.6934 59.8626 12.7076 59.8384C12.7217 59.8143 12.731 59.7875 12.7348 59.7597C12.7387 59.732 12.737 59.7037 12.7299 59.6766C12.7228 59.6494 12.7105 59.624 12.6936 59.6017C12.671 59.5713 12.6407 59.5476 12.6059 59.533C12.5711 59.5184 12.533 59.5135 12.4957 59.5187H12.4957ZM17.2214 59.5187C17.167 59.5274 17.1182 59.5572 17.0853 59.6017C17.0684 59.624 17.0561 59.6494 17.049 59.6766C17.0419 59.7037 17.0402 59.732 17.0441 59.7597C17.0479 59.7875 17.0572 59.8143 17.0713 59.8384C17.0855 59.8626 17.1042 59.8837 17.1265 59.9005L17.3533 60.0707C17.3755 60.0877 17.4008 60.1001 17.4277 60.1072C17.4547 60.1143 17.4828 60.116 17.5104 60.1122C17.538 60.1083 17.5645 60.099 17.5885 60.0847C17.6125 60.0705 17.6335 60.0516 17.6502 60.0292C17.6669 60.0066 17.679 59.981 17.6857 59.9537C17.6925 59.9264 17.6938 59.898 17.6895 59.8702C17.6853 59.8424 17.6757 59.8158 17.6611 59.7918C17.6466 59.7677 17.6275 59.7469 17.6048 59.7304L17.378 59.5602C17.3559 59.5432 17.3307 59.5308 17.3038 59.5237C17.2769 59.5166 17.2489 59.5149 17.2213 59.5187H17.2214ZM16.9203 60.108C16.8839 60.1048 16.8473 60.1111 16.8141 60.1264C16.7808 60.1417 16.7521 60.1654 16.7307 60.1952C16.714 60.2178 16.7019 60.2434 16.6952 60.2707C16.6884 60.298 16.6871 60.3264 16.6913 60.3542C16.6955 60.382 16.7052 60.4086 16.7197 60.4326C16.7343 60.4567 16.7534 60.4775 16.776 60.494L17.0193 60.6725C17.042 60.6891 17.0677 60.7009 17.0949 60.7074C17.1222 60.7139 17.1505 60.7148 17.1781 60.7102C17.2057 60.7056 17.2322 60.6954 17.2559 60.6804C17.2796 60.6654 17.3001 60.6458 17.3162 60.6227C17.3482 60.5769 17.3609 60.5203 17.3516 60.4651C17.3424 60.4099 17.3118 60.3607 17.2667 60.328L17.0234 60.1496C16.9933 60.1267 16.9577 60.1124 16.9203 60.108L16.9203 60.108ZM12.8503 60.1123C12.8147 60.1161 12.7806 60.129 12.7513 60.1496L12.508 60.3281C12.4636 60.3614 12.4339 60.411 12.4254 60.4661C12.4169 60.5212 12.4303 60.5775 12.4627 60.6228C12.4951 60.6682 12.5441 60.6989 12.5989 60.7082C12.6537 60.7176 12.71 60.7048 12.7555 60.6726L12.9988 60.4941C13.0217 60.4779 13.0412 60.4573 13.0561 60.4334C13.071 60.4096 13.0811 60.383 13.0857 60.3552C13.0903 60.3273 13.0894 60.2989 13.0829 60.2714C13.0765 60.244 13.0647 60.2181 13.0482 60.1953C13.0256 60.1649 12.9953 60.1412 12.9605 60.1266C12.9257 60.112 12.8877 60.1071 12.8503 60.1123L12.8503 60.1123ZM13.2544 60.6186C13.199 60.6221 13.1471 60.6475 13.1101 60.6892L12.8792 60.9341C12.86 60.9547 12.8451 60.9789 12.8353 61.0054C12.8255 61.0318 12.8211 61.06 12.8222 61.0882C12.8234 61.1164 12.8301 61.1441 12.842 61.1696C12.854 61.1952 12.8708 61.2181 12.8916 61.237C12.9328 61.2748 12.987 61.2946 13.0426 61.2922C13.0982 61.2899 13.1507 61.2656 13.1885 61.2245L13.4194 60.9796C13.4389 60.9593 13.4541 60.9353 13.4643 60.909C13.4744 60.8827 13.4792 60.8546 13.4784 60.8264C13.4777 60.7982 13.4713 60.7704 13.4598 60.7447C13.4482 60.719 13.4317 60.6959 13.4112 60.6767C13.3904 60.6568 13.3658 60.6413 13.3388 60.6313C13.3119 60.6214 13.2832 60.617 13.2545 60.6186L13.2544 60.6186ZM16.5162 60.6186C16.4611 60.6178 16.4078 60.6386 16.3678 60.6767C16.347 60.6957 16.3301 60.7186 16.3182 60.7441C16.3063 60.7697 16.2996 60.7974 16.2984 60.8256C16.2972 60.8538 16.3017 60.882 16.3114 60.9084C16.3212 60.9349 16.3361 60.9591 16.3553 60.9797L16.5862 61.2246C16.6241 61.2656 16.6765 61.29 16.7321 61.2923C16.7877 61.2947 16.842 61.2748 16.8831 61.2371C16.9039 61.2182 16.9208 61.1953 16.9327 61.1697C16.9446 61.1442 16.9514 61.1165 16.9525 61.0883C16.9537 61.0601 16.9492 61.0319 16.9395 61.0054C16.9297 60.979 16.9148 60.9547 16.8956 60.9341L16.6647 60.6893C16.6459 60.6681 16.623 60.651 16.5975 60.6389C16.572 60.6268 16.5444 60.6199 16.5162 60.6187L16.5162 60.6186ZM13.5884 61.0752C13.5608 61.079 13.5341 61.0883 13.5101 61.1025C13.486 61.1168 13.465 61.1357 13.4482 61.1582L13.2173 61.4612C13.2004 61.4835 13.1881 61.5089 13.181 61.536C13.1739 61.5632 13.1722 61.5914 13.1761 61.6192C13.1799 61.647 13.1892 61.6737 13.2033 61.6979C13.2175 61.7221 13.2362 61.7432 13.2585 61.76C13.2807 61.777 13.306 61.7894 13.3329 61.7965C13.3599 61.8036 13.388 61.8053 13.4156 61.8015C13.4432 61.7976 13.4697 61.7883 13.4937 61.7741C13.5177 61.7598 13.5387 61.7409 13.5554 61.7185L13.7864 61.4155C13.8033 61.3932 13.8157 61.3677 13.8228 61.3405C13.83 61.3134 13.8317 61.285 13.8278 61.2572C13.824 61.2293 13.8147 61.2026 13.8005 61.1783C13.7863 61.1541 13.7675 61.133 13.7451 61.1162C13.723 61.0992 13.6978 61.0868 13.6709 61.0797C13.644 61.0726 13.616 61.0709 13.5884 61.0747L13.5884 61.0752ZM16.1286 61.0752C16.0926 61.0802 16.0585 61.0945 16.0296 61.1167C16.0077 61.1338 15.9893 61.1551 15.9755 61.1795C15.9617 61.2038 15.9529 61.2306 15.9494 61.2583C15.946 61.2861 15.948 61.3143 15.9554 61.3413C15.9628 61.3682 15.9754 61.3935 15.9925 61.4155L16.2234 61.7185C16.2571 61.7626 16.3067 61.7917 16.3614 61.7994C16.4162 61.8072 16.4717 61.793 16.5162 61.76C16.5385 61.7432 16.5573 61.7221 16.5714 61.6979C16.5856 61.6737 16.5948 61.647 16.5987 61.6192C16.6025 61.5914 16.6008 61.5632 16.5938 61.536C16.5867 61.5089 16.5743 61.4835 16.5575 61.4612L16.3265 61.1582C16.3039 61.1278 16.2736 61.1041 16.2388 61.0895C16.204 61.0749 16.1659 61.07 16.1286 61.0752H16.1286ZM13.9678 61.5691C13.9313 61.5732 13.8965 61.5869 13.8668 61.6087C13.8372 61.6306 13.8137 61.6598 13.7987 61.6936L13.6791 61.9675C13.6569 62.0182 13.6552 62.0757 13.6745 62.1277C13.6937 62.1796 13.7324 62.2219 13.7822 62.2456C13.8074 62.2573 13.8347 62.2639 13.8624 62.2651C13.8901 62.2662 13.9178 62.2618 13.9438 62.2522C13.9699 62.2426 13.9938 62.2279 14.0142 62.2089C14.0345 62.19 14.051 62.1672 14.0627 62.1418L14.1864 61.8679C14.2083 61.8167 14.2094 61.7588 14.1894 61.7067C14.1693 61.6547 14.1297 61.6127 14.0791 61.5898C14.0446 61.5728 14.0061 61.5656 13.9678 61.569L13.9678 61.5691ZM15.8028 61.5691C15.7659 61.5664 15.7289 61.5736 15.6956 61.5899C15.6458 61.6135 15.6071 61.6559 15.5878 61.7078C15.5686 61.7598 15.5703 61.8173 15.5925 61.868L15.7121 62.1419C15.7237 62.1673 15.7402 62.1901 15.7606 62.209C15.781 62.2279 15.8049 62.2426 15.8309 62.2523C15.857 62.2619 15.8847 62.2663 15.9124 62.2652C15.9401 62.264 15.9673 62.2574 15.9925 62.2457C16.0431 62.2228 16.0827 62.1808 16.1027 62.1287C16.1228 62.0767 16.1217 62.0188 16.0997 61.9676L15.976 61.6937C15.9607 61.6593 15.9366 61.6297 15.9062 61.6078C15.8757 61.586 15.8401 61.5726 15.8028 61.5692L15.8028 61.5691ZM14.4626 61.8139C14.4161 61.812 14.3703 61.8256 14.3322 61.8527C14.2942 61.8797 14.2661 61.9186 14.2523 61.9634L14.1657 62.2497C14.1576 62.2764 14.1547 62.3045 14.1574 62.3323C14.16 62.3601 14.1681 62.3871 14.1811 62.4118C14.1941 62.4365 14.2119 62.4583 14.2333 62.4761C14.2547 62.4939 14.2794 62.5072 14.3059 62.5154C14.3325 62.5236 14.3604 62.5264 14.388 62.5238C14.4156 62.5211 14.4425 62.513 14.467 62.4999C14.4915 62.4868 14.5132 62.4689 14.5308 62.4474C14.5485 62.4258 14.5618 62.401 14.5699 62.3742L14.6565 62.092C14.6646 62.0653 14.6674 62.0372 14.6648 62.0094C14.6622 61.9816 14.6541 61.9546 14.6411 61.9299C14.6281 61.9053 14.6103 61.8834 14.5889 61.8657C14.5675 61.8479 14.5428 61.8345 14.5162 61.8264C14.499 61.8199 14.481 61.8157 14.4626 61.8138V61.8139ZM15.308 61.8139C15.291 61.8161 15.2744 61.8203 15.2585 61.8265C15.232 61.8346 15.2073 61.848 15.1858 61.8658C15.1644 61.8835 15.1467 61.9054 15.1337 61.93C15.1206 61.9547 15.1126 61.9817 15.1099 62.0095C15.1073 62.0373 15.1101 62.0654 15.1183 62.0921L15.2049 62.3743C15.213 62.4011 15.2262 62.4259 15.2439 62.4475C15.2615 62.469 15.2832 62.4869 15.3078 62.5C15.3323 62.5131 15.3591 62.5212 15.3867 62.5239C15.4144 62.5265 15.4423 62.5237 15.4688 62.5155C15.4953 62.5073 15.52 62.494 15.5414 62.4762C15.5629 62.4584 15.5806 62.4366 15.5936 62.4119C15.6066 62.3872 15.6147 62.3602 15.6173 62.3324C15.62 62.3046 15.6171 62.2765 15.609 62.2498L15.5224 61.9635C15.5084 61.918 15.4797 61.8785 15.4408 61.8514C15.402 61.8244 15.3552 61.8112 15.308 61.8141L15.308 61.8139ZM14.8956 61.9302C14.8399 61.9304 14.7865 61.9528 14.7472 61.9924C14.7078 62.0321 14.6855 62.0858 14.6853 62.1418V62.4905C14.6855 62.5465 14.7078 62.6003 14.7472 62.6399C14.7865 62.6795 14.8399 62.7019 14.8956 62.7021C14.9513 62.7019 15.0047 62.6795 15.0441 62.6399C15.0835 62.6003 15.1057 62.5465 15.1059 62.4905V62.1418C15.1057 62.0858 15.0835 62.0321 15.0441 61.9924C15.0047 61.9528 14.9513 61.9304 14.8956 61.9302V61.9302Z" fill="#BD0303"/>
<path d="M62.5516 42.4636L59.8688 42.6324L58.1641 53.6865L62.5516 55.7526L66.9392 53.6865L65.2344 42.6324L62.5516 42.4636Z" fill="url(#paint1_linear)"/>
<path d="M58.4723 51.6487L56.126 52.4663L59.33 73.6001H65.7712L68.9752 52.4663L66.6289 51.6487C65.7978 53.1285 64.2396 54.0435 62.5506 54.0435C60.8616 54.0435 59.3034 53.1285 58.4723 51.6487Z" fill="#A3D1FF"/>
<path d="M69.6053 35.2693C69.6053 39.1902 66.4473 47.4397 62.5517 47.4397C58.6561 47.4397 55.498 39.1902 55.498 35.2693C55.498 31.3484 58.6561 28.1699 62.5517 28.1699C66.4473 28.1699 69.6053 31.3484 69.6053 35.2693Z" fill="#CD7D51"/>
<path d="M61.8442 27.5185C59.1761 27.6554 56.4414 28.8738 54.4629 30.5856C55.455 34.2534 54.6633 37.0711 56.0505 39.5961C57.1743 43.2885 59.7167 48.1439 62.4792 48.4281C64.6451 48.5543 66.0364 46.4202 67.0482 44.4853C67.8737 42.9066 68.3485 41.3554 68.875 39.758C69.6155 37.5111 69.7613 35.127 69.8358 33.1879C69.8965 31.5578 69.2584 30.9833 68.8255 30.9425C67.1127 28.3265 64.5123 27.3815 61.8442 27.5185L61.8442 27.5185ZM66.7884 32.8725C68.2746 34.9101 68.3037 36.811 68.3224 38.7204C67.7026 40.3918 66.2185 43.5442 65.2965 43.0407C63.884 42.2694 61.6522 42.2227 60.1369 42.821C59.0302 43.2579 57.108 40.1179 56.5659 37.7367C56.5149 36.1817 57.2899 35.604 57.5334 34.1293C60.3575 35.0142 64.0518 33.6826 66.7884 32.8725L66.7884 32.8725ZM64.8279 44.9412C65.1945 45.9763 63.9196 46.0677 62.7042 45.989C61.5261 45.9127 60.4841 45.7517 60.5979 45.1114C60.9604 43.0719 64.1664 43.0739 64.8279 44.9412V44.9412Z" fill="#191847"/>
<path d="M56.0766 52.4375L53.3344 53.2344C50.8683 53.9495 49.7312 55.0404 48.9881 57.4263L43.9482 73.6003H61.4951C61.4951 73.6003 59.0566 62.2562 58.6291 57.7791C58.491 56.3328 57.6062 53.3322 56.0766 52.4375ZM69.0248 52.4375C67.4952 53.3322 66.6063 56.3328 66.4682 57.7791C66.0407 62.2562 64.4768 73.6003 64.4768 73.6003H70.279C75.6744 73.6003 79.5227 68.3686 77.916 63.2179L76.1092 57.4263C75.3661 55.0404 74.2331 53.9495 71.767 53.2344L69.0248 52.4375Z" fill="#A16BFF"/>
<path d="M57.6725 61.1902C57.5463 61.1912 57.4257 61.2424 57.3368 61.3326C57.248 61.4228 57.1982 61.5446 57.1982 61.6716C57.1993 61.7979 57.2496 61.9187 57.3383 62.008C57.427 62.0973 57.547 62.1479 57.6725 62.1489C57.7986 62.149 57.9197 62.0988 58.0093 62.0094C58.0989 61.92 58.1498 61.7986 58.1508 61.6716C58.1508 61.6084 58.1385 61.5458 58.1144 61.4874C58.0904 61.4289 58.0552 61.3759 58.0107 61.3312C57.9663 61.2864 57.9136 61.251 57.8555 61.2268C57.7975 61.2026 57.7353 61.1902 57.6725 61.1902V61.1902ZM67.4249 61.1902C67.362 61.1902 67.2998 61.2026 67.2418 61.2268C67.1837 61.251 67.131 61.2864 67.0866 61.3312C67.0422 61.3759 67.0069 61.4289 66.9829 61.4874C66.9589 61.5458 66.9465 61.6084 66.9465 61.6716C66.9476 61.7986 66.9984 61.92 67.088 62.0094C67.1776 62.0988 67.2987 62.149 67.4249 62.1489C67.551 62.149 67.6721 62.0988 67.7617 62.0094C67.8513 61.92 67.9022 61.7986 67.9032 61.6716C67.9032 61.6084 67.8909 61.5458 67.8668 61.4874C67.8428 61.4289 67.8076 61.3759 67.7631 61.3312C67.7187 61.2864 67.666 61.251 67.6079 61.2268C67.5499 61.2026 67.4877 61.1902 67.4249 61.1902ZM57.8621 65.3447C57.7993 65.3447 57.7371 65.3571 57.6791 65.3813C57.621 65.4055 57.5683 65.441 57.5239 65.4857C57.4794 65.5304 57.4442 65.5835 57.4202 65.6419C57.3961 65.7003 57.3838 65.7629 57.3838 65.8262C57.3838 65.8894 57.3961 65.952 57.4202 66.0104C57.4442 66.0689 57.4794 66.1219 57.5239 66.1666C57.5683 66.2114 57.621 66.2468 57.6791 66.271C57.7371 66.2952 57.7993 66.3076 57.8621 66.3076C57.925 66.3076 57.9872 66.2952 58.0452 66.271C58.1033 66.2468 58.156 66.2114 58.2004 66.1666C58.2448 66.1219 58.2801 66.0689 58.3041 66.0104C58.3281 65.952 58.3405 65.8894 58.3405 65.8262C58.3405 65.7629 58.3282 65.7003 58.3041 65.6419C58.2801 65.5835 58.2448 65.5304 58.2004 65.4857C58.156 65.441 58.1033 65.4055 58.0452 65.3813C57.9872 65.3571 57.925 65.3447 57.8621 65.3447V65.3447ZM67.2352 65.3447C67.109 65.3458 66.9884 65.397 66.8996 65.4872C66.8107 65.5773 66.7609 65.6992 66.761 65.8262C66.7609 65.9532 66.8107 66.075 66.8996 66.1652C66.9884 66.2554 67.109 66.3066 67.2352 66.3076C67.298 66.3076 67.3602 66.2952 67.4183 66.271C67.4763 66.2468 67.529 66.2114 67.5735 66.1666C67.6179 66.1219 67.6531 66.0689 67.6771 66.0104C67.7012 65.952 67.7135 65.8894 67.7135 65.8262C67.7135 65.7629 67.7012 65.7003 67.6771 65.6419C67.6531 65.5835 67.6179 65.5304 67.5735 65.4857C67.529 65.441 67.4763 65.4055 67.4183 65.3813C67.3602 65.3571 67.298 65.3447 67.2352 65.3447V65.3447Z" fill="#702EE6"/>
<path d="M58.4718 51.6487L57.5068 51.9849C57.9885 52.912 58.7131 53.6887 59.6021 54.2308C60.4911 54.773 61.5106 55.0598 62.55 55.0603C63.5895 55.0598 64.609 54.773 65.498 54.2308C66.387 53.6887 67.1116 52.912 67.5932 51.9849L66.6283 51.6487C66.2201 52.3756 65.6274 52.9803 64.9109 53.401C64.1943 53.8218 63.3796 54.0435 62.55 54.0435C61.7205 54.0435 60.9058 53.8218 60.1892 53.401C59.4727 52.9803 58.88 52.3756 58.4718 51.6487V51.6487Z" fill="#5AACFF"/>
<path d="M40.289 37.0276L37.1221 37.2268L35.2891 47.552L40.2251 53.0315L45.1611 47.552L43.456 37.2268L40.289 37.0276Z" fill="url(#paint2_linear)"/>
<path d="M49.0279 27.0648C49.0279 31.922 45.1157 42.1415 40.2898 42.1415C35.4639 42.1415 31.5518 31.922 31.5518 27.0648C31.5518 22.2076 35.4639 18.27 40.2898 18.27C45.1157 18.27 49.0279 22.2076 49.0279 27.0648Z" fill="#CF965F"/>
<path d="M32.7542 33.1614C30.7719 30.9294 25.9139 27.5129 30.7081 26.7828C25.3964 24.5052 28.0576 17.5143 31.5215 19.569C30.105 16.1128 31.6359 11.4335 37.3551 15.4154C38.1211 10.537 45.4673 11.0218 45.4395 15.7964C48.8003 12.7764 52.3822 15.6985 49.8309 20.0145C54.326 18.7094 56.06 25.0298 50.943 26.7099C54.4424 28.0191 48.9627 32.2637 47.3612 34.4192C47.8396 30.9207 46.5524 28.4294 47.6373 24.559C45.2234 25.4932 45.1996 22.8861 41.9495 23.7638C39.0049 24.559 37.0705 23.3117 35.5996 22.4006C34.3373 24.2335 34.9321 25.2204 32.8906 25.6529C31.7464 28.451 33.9092 30.413 32.7542 33.1614Z" fill="#091540"/>
<path d="M35.2906 47.5513C35.2906 47.5513 37.0807 49.8751 40.2266 49.8751C43.3725 49.8751 45.1626 47.5513 45.1626 47.5513L48.2429 53.6108L43.5039 73.5991H34.4648L35.2906 47.5513Z" fill="#FFCE8F"/>
<path d="M35.2894 47.5513L35.2275 49.531C35.2275 49.531 36.5891 51.8474 40.2254 51.8469C43.8617 51.8464 45.8706 48.95 45.8706 48.95L45.1614 47.5513C45.1614 47.5513 43.3713 49.8755 40.2254 49.8755C37.0795 49.8755 35.2894 47.5513 35.2894 47.5513H35.2894Z" fill="#FFAE47"/>
<path d="M35.2895 47.5513L27.3556 49.8547C23.9118 50.8534 22.3275 52.3749 21.2897 55.7068L15.7139 73.5991H39.3474L35.2895 47.5513ZM45.1615 47.5513L41.1035 73.5991H64.737L59.1612 55.7068C58.1234 52.3749 56.5391 50.8534 53.0953 49.8547L45.1615 47.5513Z" fill="#F0F3CE"/>
<path d="M34.1555 50.1584L29.6689 61.2483L33.0338 62.842L31.9122 65.9299L35.3101 66.5276L37.4874 71.1096L36.2314 65.1485L33.9352 64.7816L34.8765 62.072L31.5357 60.3549L34.1555 50.1584Z" fill="#E0EA80"/>
<path d="M46.7938 50.1584L51.2803 61.2483L47.9154 62.842L49.0371 65.9299L45.6392 66.5276L43.4619 71.1096L44.7178 65.1485L47.0141 64.7816L46.0727 62.072L49.4136 60.3549L46.7938 50.1584Z" fill="#E0EA80"/>
<defs>
<linearGradient id="paint0_linear" x1="14.9223" y1="48.8971" x2="14.9223" y2="53.4127" gradientUnits="userSpaceOnUse">
<stop stop-color="#FF9D80"/>
<stop offset="1" stop-color="#FFD4C7"/>
</linearGradient>
<linearGradient id="paint1_linear" x1="62.4" y1="46.7996" x2="62.4" y2="53.5996" gradientUnits="userSpaceOnUse">
<stop stop-color="#9E562E"/>
<stop offset="0.56315" stop-color="#CD7D51"/>
</linearGradient>
<linearGradient id="paint2_linear" x1="40.2251" y1="39.7502" x2="40.2251" y2="45.0295" gradientUnits="userSpaceOnUse">
<stop stop-color="#9D652F"/>
<stop offset="1" stop-color="#CF965F"/>
</linearGradient>
</defs>
</svg>
