<svg width="100" height="100" viewBox="0 0 100 100" fill="none" xmlns="http://www.w3.org/2000/svg">
<path d="M28.9358 43.7899C28.4788 46.6704 28.2724 49.2459 29.4822 51.4455C31.2812 54.7164 27.7768 61.1466 31.4035 64.3305C31.4035 64.3305 26.2394 68.2301 18.322 68.0943C11.0644 67.9699 6.03613 64.3305 6.03613 64.3305C7.26448 62.3323 7.96315 59.6342 7.22607 57.0545C6.62374 54.9464 7.4259 52.7585 7.92624 50.7999C8.3343 49.2025 8.03012 46.6101 8.55208 44.3338L28.9358 43.7899Z" fill="#191847"/>
<path d="M18.6163 60.0812L15.2627 60.2921L13.1318 74.1098L18.6163 82.8256L24.1007 74.1098L21.9698 60.2921L18.6163 60.0812Z" fill="url(#paint0_linear)"/>
<path d="M13.1392 70.4036L11.4365 72.6655L16.7643 80.9947L25.4243 78.9124L23.6941 70.9656C23.0879 71.7362 22.3165 72.359 21.4375 72.7874C20.5585 73.2158 19.5947 73.4387 18.6181 73.4395C17.5245 73.4397 16.4487 73.1615 15.4907 72.6307C14.5328 72.0999 13.7238 71.3337 13.1392 70.4036Z" fill="white"/>
<path d="M27.3763 47.8915C27.3763 52.7926 23.4287 63.1044 18.5592 63.1044C13.6897 63.1044 9.74219 52.7926 9.74219 47.8915C9.74219 42.9903 13.6897 39.0172 18.5592 39.0172C23.4287 39.0172 27.3763 42.9903 27.3763 47.8915Z" fill="#FFD4C7"/>
<path d="M26.5891 40.3828C23.605 32.8488 9.8059 34.3439 8.55176 44.3338L8.8987 46.8159L9.84714 52.3774L11.2228 54.7946L9.78867 49.178C12.8794 43.5794 18.9973 46.7799 23.3584 43.7455C25.5846 47.5122 25.1944 53.3354 24.693 57.5344L28.5914 54.1212L27.7288 47.1481L28.9354 43.7899C28.9354 41.6374 27.0694 40.2572 26.5891 40.3828Z" fill="#191847"/>
<path d="M10.4649 49.1343C10.0699 48.6216 9.41314 48.7779 9.41603 49.5338C9.42262 51.2347 9.98356 53.1707 10.7588 54.0805C10.9007 54.2471 11.2195 54.3254 11.5612 54.1263L10.4649 49.1343Z" fill="#FFD4C7"/>
<path d="M13.876 69.4221L8.47037 70.9931C5.73307 71.7868 4.4755 72.9976 3.65062 75.646L1.78767 81.6178C0.180898 86.7685 4.02924 92.0002 9.42469 92.0002H38.687L33.5852 75.646C32.7603 72.9976 31.5028 71.7868 28.7655 70.9931L23.3598 69.4221C22.2843 72.7862 19.8179 77.18 18.6179 77.18C17.418 77.18 14.9516 72.7862 13.876 69.4221Z" fill="#FFA3A3"/>
<path d="M13.8757 69.4221L12.5117 69.8183C12.9212 71.1096 13.5031 72.4447 14.1549 73.7341C14.7454 74.9023 15.3872 75.9813 16.0361 76.8299C16.3606 77.2543 16.6814 77.6229 17.0568 77.9356C17.4322 78.2483 17.8737 78.5805 18.6176 78.5805C19.3616 78.5805 19.803 78.2483 20.1784 77.9356C20.5539 77.6229 20.8747 77.2543 21.1991 76.8299C21.8481 75.9813 22.4898 74.9023 23.0804 73.7341C23.7322 72.4447 24.3141 71.1096 24.7236 69.8183L23.3596 69.4221C22.284 72.7862 19.8176 77.18 18.6176 77.18C17.4177 77.18 14.9513 72.7862 13.8757 69.4221Z" fill="#FB70A1"/>
<path d="M23.753 69.6977C23.6946 69.6938 23.6366 69.7095 23.5881 69.7424C23.5396 69.7753 23.5033 69.8234 23.4849 69.8793C23.4621 69.9454 23.4661 70.0178 23.496 70.081C23.5259 70.1441 23.5793 70.1928 23.6447 70.2165L23.9849 70.3358C24.0178 70.3471 24.0525 70.3517 24.0871 70.3495C24.1217 70.3472 24.1555 70.3382 24.1866 70.3227C24.2178 70.3073 24.2456 70.2859 24.2684 70.2596C24.2913 70.2334 24.3088 70.2029 24.32 70.1698C24.3428 70.1038 24.3389 70.0313 24.3089 69.9682C24.279 69.905 24.2256 69.8563 24.1602 69.8326L23.82 69.7133C23.7984 69.7052 23.7759 69.6999 23.753 69.6976L23.753 69.6977ZM13.4593 69.703C13.4384 69.704 13.4176 69.7075 13.3975 69.7134L13.0573 69.8327C12.9919 69.8564 12.9384 69.9051 12.9085 69.9683C12.8786 70.0314 12.8746 70.1039 12.8975 70.1699C12.9086 70.203 12.9261 70.2335 12.949 70.2597C12.9719 70.286 12.9997 70.3074 13.0308 70.3228C13.0619 70.3383 13.0958 70.3474 13.1304 70.3496C13.165 70.3519 13.1997 70.3472 13.2325 70.336L13.5727 70.2166C13.6381 70.1929 13.6916 70.1442 13.7215 70.0811C13.7514 70.0179 13.7554 69.9455 13.7325 69.8794C13.713 69.8236 13.6756 69.7759 13.6261 69.7439C13.5766 69.712 13.5179 69.6976 13.4593 69.703L13.4593 69.703ZM13.7325 70.3256C13.7101 70.3245 13.6875 70.3263 13.6655 70.3309C13.6459 70.3356 13.6269 70.3426 13.6088 70.3516L13.2944 70.4969C13.2312 70.5255 13.1817 70.578 13.1566 70.6431C13.1315 70.7081 13.1329 70.7805 13.1604 70.8445C13.1745 70.8766 13.1947 70.9057 13.22 70.9299C13.2453 70.9541 13.2751 70.973 13.3077 70.9856C13.3403 70.9981 13.375 71.004 13.4099 71.003C13.4448 71.0019 13.4791 70.9939 13.5109 70.9794L13.8253 70.8341C13.8568 70.8195 13.8851 70.7987 13.9087 70.7731C13.9322 70.7474 13.9504 70.7174 13.9624 70.6846C13.9744 70.6518 13.9798 70.617 13.9784 70.5821C13.977 70.5473 13.9688 70.513 13.9542 70.4813C13.9346 70.4377 13.9037 70.4002 13.8647 70.3728C13.8257 70.3454 13.78 70.3291 13.7326 70.3257L13.7325 70.3256ZM23.4746 70.3309C23.4295 70.3356 23.3864 70.3519 23.3494 70.3783C23.3124 70.4046 23.2827 70.4401 23.2633 70.4814C23.2487 70.513 23.2405 70.5473 23.2391 70.5822C23.2377 70.6171 23.2431 70.6519 23.2551 70.6846C23.267 70.7174 23.2853 70.7475 23.3088 70.7731C23.3323 70.7988 23.3607 70.8195 23.3922 70.8341L23.7066 70.9794C23.7384 70.9939 23.7727 71.0019 23.8076 71.003C23.8425 71.0041 23.8772 70.9981 23.9098 70.9856C23.9424 70.9731 23.9722 70.9541 23.9975 70.9299C24.0228 70.9057 24.043 70.8767 24.0571 70.8445C24.0849 70.7811 24.087 70.7093 24.0629 70.6443C24.0389 70.5794 23.9905 70.5265 23.9282 70.4969L23.6138 70.3517C23.5701 70.3322 23.522 70.3251 23.4746 70.3309L23.4746 70.3309ZM14.0263 70.9846C14.0039 70.9835 13.9814 70.9853 13.9593 70.9899C13.9379 70.9942 13.9172 71.0012 13.8975 71.0106L13.5367 71.1818C13.5052 71.1965 13.4768 71.2172 13.4533 71.2428C13.4298 71.2685 13.4115 71.2986 13.3996 71.3313C13.3876 71.3641 13.3822 71.3989 13.3836 71.4338C13.385 71.4687 13.3932 71.5029 13.4078 71.5346C13.4223 71.5663 13.4429 71.5948 13.4684 71.6185C13.4939 71.6422 13.5238 71.6605 13.5563 71.6726C13.5889 71.6846 13.6235 71.6901 13.6581 71.6887C13.6928 71.6873 13.7268 71.679 13.7583 71.6643L14.1191 71.4931C14.1506 71.4785 14.1789 71.4578 14.2024 71.4321C14.226 71.4064 14.2442 71.3764 14.2562 71.3436C14.2682 71.3108 14.2736 71.276 14.2722 71.2411C14.2708 71.2063 14.2626 71.172 14.248 71.1403C14.2284 71.0967 14.1975 71.0592 14.1585 71.0318C14.1194 71.0044 14.0738 70.9881 14.0263 70.9847L14.0263 70.9846ZM23.1808 70.9899C23.1357 70.9946 23.0926 71.0109 23.0556 71.0373C23.0185 71.0636 22.9889 71.0991 22.9695 71.1404C22.9549 71.172 22.9467 71.2063 22.9453 71.2412C22.9439 71.2761 22.9493 71.3109 22.9613 71.3436C22.9732 71.3764 22.9915 71.4065 23.015 71.4321C23.0385 71.4578 23.0669 71.4785 23.0983 71.4931L23.4592 71.6643C23.4906 71.679 23.5247 71.6873 23.5593 71.6887C23.594 71.6901 23.6286 71.6847 23.6611 71.6726C23.6937 71.6606 23.7236 71.6422 23.749 71.6185C23.7745 71.5948 23.7951 71.5663 23.8097 71.5346C23.8242 71.503 23.8325 71.4687 23.8339 71.4338C23.8353 71.3989 23.8299 71.3641 23.8179 71.3314C23.8059 71.2986 23.7877 71.2685 23.7641 71.2429C23.7406 71.2172 23.7123 71.1965 23.6808 71.1819L23.32 71.0107C23.2763 70.9912 23.2282 70.984 23.1808 70.9899L23.1808 70.9899ZM14.2222 71.6073C14.1769 71.608 14.1325 71.6205 14.0933 71.6436L13.7686 71.8252C13.738 71.8421 13.711 71.8649 13.6893 71.8923C13.6675 71.9198 13.6513 71.9513 13.6418 71.9851C13.6322 72.0189 13.6293 72.0542 13.6334 72.0891C13.6375 72.124 13.6484 72.1577 13.6655 72.1883C13.6827 72.2187 13.7057 72.2453 13.7332 72.2667C13.7607 72.2881 13.7921 72.3039 13.8256 72.313C13.8591 72.3222 13.8941 72.3246 13.9286 72.3201C13.963 72.3156 13.9962 72.3043 14.0263 72.2869L14.3511 72.1053C14.3817 72.0884 14.4086 72.0656 14.4304 72.0382C14.4522 72.0107 14.4683 71.9792 14.4779 71.9454C14.4875 71.9116 14.4903 71.8763 14.4863 71.8414C14.4822 71.8065 14.4713 71.7728 14.4542 71.7422C14.431 71.7009 14.3972 71.6666 14.3565 71.6429C14.3157 71.6192 14.2693 71.6069 14.2222 71.6073ZM22.9901 71.6073C22.9448 71.6087 22.9005 71.6218 22.8617 71.6455C22.8229 71.6691 22.7908 71.7024 22.7685 71.7422C22.7511 71.7725 22.7399 71.8059 22.7355 71.8406C22.731 71.8753 22.7334 71.9105 22.7425 71.9442C22.7516 71.9779 22.7672 72.0095 22.7885 72.0372C22.8098 72.0648 22.8362 72.088 22.8664 72.1053L23.1963 72.2869C23.2566 72.3205 23.3276 72.329 23.3941 72.3106C23.4605 72.2921 23.5172 72.2483 23.552 72.1883C23.5691 72.1577 23.58 72.124 23.5841 72.0891C23.5881 72.0542 23.5853 72.0189 23.5757 71.9851C23.5661 71.9513 23.55 71.9198 23.5282 71.8923C23.5064 71.8649 23.4795 71.8421 23.4489 71.8252L23.1241 71.6436C23.0835 71.6197 23.0372 71.6071 22.9901 71.6073H22.9901ZM14.5006 72.3128C14.4557 72.312 14.4113 72.3227 14.3717 72.344L14.0624 72.5152C14.002 72.5493 13.9573 72.6059 13.938 72.6729C13.9187 72.7399 13.9264 72.8118 13.9593 72.8731C13.9923 72.9349 14.0482 72.9809 14.1149 73.0014C14.1815 73.0218 14.2534 73.0148 14.315 72.9821L14.6243 72.8109C14.6549 72.794 14.6818 72.7712 14.7036 72.7437C14.7254 72.7163 14.7415 72.6848 14.7511 72.651C14.7607 72.6172 14.7635 72.5819 14.7595 72.547C14.7554 72.5121 14.7445 72.4784 14.7274 72.4477C14.7046 72.4072 14.6717 72.3735 14.6319 72.3498C14.5921 72.3261 14.5468 72.3134 14.5005 72.3129L14.5006 72.3128ZM22.7118 72.3128C22.6664 72.3143 22.6222 72.3274 22.5834 72.351C22.5445 72.3747 22.5124 72.408 22.4901 72.4477C22.473 72.4783 22.4621 72.5121 22.458 72.547C22.4539 72.5818 22.4568 72.6172 22.4664 72.651C22.4759 72.6847 22.4921 72.7163 22.5139 72.7437C22.5356 72.7712 22.5626 72.794 22.5932 72.8109L22.9025 72.9821C22.9332 72.9991 22.967 73.0098 23.0019 73.0135C23.0367 73.0173 23.072 73.014 23.1056 73.0038C23.1392 72.9937 23.1704 72.9769 23.1975 72.9544C23.2246 72.932 23.247 72.9044 23.2633 72.8731C23.2958 72.8112 23.3027 72.7388 23.2824 72.6717C23.2621 72.6046 23.2164 72.5484 23.155 72.5152L22.8509 72.344C22.8082 72.3209 22.7601 72.3102 22.7117 72.3128L22.7118 72.3128ZM14.7686 73.0184C14.7254 73.0255 14.6847 73.0434 14.65 73.0703L14.4232 73.2467C14.3954 73.2677 14.3719 73.2941 14.3542 73.3243C14.3365 73.3545 14.325 73.3879 14.3202 73.4227C14.3154 73.4574 14.3175 73.4927 14.3263 73.5266C14.3352 73.5605 14.3506 73.5923 14.3717 73.6202C14.393 73.6479 14.4195 73.671 14.4497 73.6884C14.4798 73.7057 14.5131 73.7168 14.5476 73.7212C14.5821 73.7255 14.6171 73.7229 14.6506 73.7136C14.6841 73.7043 14.7154 73.6885 14.7428 73.6669L14.9696 73.4905C14.9975 73.4695 15.0209 73.4431 15.0386 73.4129C15.0563 73.3827 15.0679 73.3493 15.0727 73.3146C15.0775 73.2798 15.0754 73.2445 15.0666 73.2106C15.0577 73.1767 15.0423 73.1449 15.0212 73.117C14.9919 73.0791 14.9529 73.05 14.9084 73.0326C14.8639 73.0152 14.8156 73.0103 14.7686 73.0184H14.7686ZM22.3716 73.0184C22.3044 73.028 22.2435 73.0633 22.2015 73.117C22.1801 73.1445 22.1643 73.1761 22.155 73.2098C22.1458 73.2435 22.1433 73.2787 22.1476 73.3135C22.1519 73.3482 22.163 73.3817 22.1802 73.4121C22.1974 73.4424 22.2204 73.4691 22.2479 73.4905L22.4747 73.6669C22.5021 73.6885 22.5334 73.7043 22.5669 73.7136C22.6004 73.7229 22.6354 73.7255 22.6699 73.7212C22.7043 73.7168 22.7376 73.7057 22.7678 73.6884C22.798 73.671 22.8245 73.6479 22.8458 73.6202C22.8672 73.5927 22.883 73.5611 22.8922 73.5274C22.9015 73.4937 22.904 73.4585 22.8997 73.4238C22.8954 73.3891 22.8843 73.3555 22.8671 73.3252C22.8499 73.2948 22.8269 73.2681 22.7994 73.2467L22.5726 73.0703C22.5443 73.0484 22.5119 73.0325 22.4774 73.0236C22.4428 73.0147 22.4068 73.0129 22.3716 73.0184H22.3716ZM22.0314 73.7084C22.0072 73.7068 21.9829 73.7086 21.9592 73.7137C21.8904 73.726 21.8292 73.7651 21.7891 73.8227C21.7492 73.8799 21.7333 73.9507 21.7448 74.0197C21.7564 74.0886 21.7946 74.1502 21.851 74.191L22.119 74.3825C22.1758 74.4227 22.2462 74.4387 22.3147 74.427C22.3832 74.4154 22.4444 74.377 22.485 74.3202C22.5249 74.263 22.5408 74.1922 22.5292 74.1232C22.5176 74.0543 22.4795 73.9927 22.4231 73.9519L22.1602 73.7599C22.1226 73.7313 22.0781 73.7134 22.0313 73.708L22.0314 73.7084ZM15.181 73.7137C15.1382 73.7193 15.0975 73.7354 15.0624 73.7604L14.7944 73.9524C14.738 73.9932 14.6998 74.0548 14.6882 74.1238C14.6767 74.1927 14.6926 74.2635 14.7325 74.3207C14.7526 74.3496 14.7783 74.3741 14.8079 74.3929C14.8375 74.4117 14.8706 74.4243 14.9051 74.4301C14.9397 74.4359 14.975 74.4347 15.0091 74.4266C15.0432 74.4186 15.0753 74.4037 15.1036 74.383L15.3665 74.191C15.4229 74.1502 15.4611 74.0886 15.4727 74.0197C15.4842 73.9507 15.4683 73.8799 15.4284 73.8227C15.4007 73.7838 15.3631 73.7531 15.3196 73.7339C15.276 73.7148 15.2281 73.7078 15.181 73.7137H15.181ZM15.6191 74.3985C15.5741 74.4048 15.5315 74.4227 15.4954 74.4504L15.2119 74.6631C15.184 74.6842 15.1606 74.7105 15.1429 74.7407C15.1252 74.7709 15.1136 74.8044 15.1088 74.8391C15.104 74.8738 15.1061 74.9092 15.115 74.9431C15.1238 74.977 15.1392 75.0088 15.1604 75.0367C15.2025 75.0918 15.2644 75.1281 15.3328 75.1378C15.4012 75.1475 15.4707 75.1298 15.5263 75.0885L15.815 74.8758C15.8428 74.8548 15.8663 74.8284 15.884 74.7982C15.9017 74.768 15.9133 74.7346 15.918 74.6999C15.9228 74.6651 15.9207 74.6298 15.9119 74.5959C15.9031 74.562 15.8876 74.5302 15.8665 74.5023C15.8382 74.4643 15.8004 74.4347 15.7569 74.4165C15.7134 74.3982 15.6658 74.392 15.6191 74.3985H15.6191ZM21.5262 74.3985C21.4582 74.4095 21.3972 74.4467 21.3561 74.5023C21.335 74.5302 21.3196 74.562 21.3107 74.5959C21.3019 74.6298 21.2998 74.6651 21.3046 74.6999C21.3094 74.7346 21.321 74.768 21.3387 74.7982C21.3563 74.8284 21.3798 74.8548 21.4077 74.8758L21.6912 75.0885C21.7189 75.1098 21.7505 75.1253 21.7842 75.1342C21.8179 75.1431 21.853 75.1452 21.8875 75.1404C21.922 75.1356 21.9552 75.1239 21.9852 75.1061C22.0152 75.0883 22.0414 75.0647 22.0623 75.0367C22.0831 75.0085 22.0982 74.9764 22.1066 74.9423C22.1151 74.9082 22.1167 74.8727 22.1114 74.838C22.1062 74.8032 22.0941 74.7699 22.0759 74.7399C22.0577 74.7099 22.0338 74.6838 22.0056 74.6631L21.7221 74.4504C21.6944 74.4292 21.6629 74.4137 21.6293 74.4048C21.5957 74.3959 21.5606 74.3938 21.5262 74.3985H21.5262ZM21.1499 75.1352C21.1044 75.1312 21.0586 75.1391 21.0171 75.1582C20.9755 75.1773 20.9396 75.2069 20.9128 75.2442C20.892 75.2724 20.8769 75.3045 20.8685 75.3386C20.86 75.3727 20.8584 75.4081 20.8637 75.4429C20.8689 75.4776 20.881 75.511 20.8992 75.541C20.9173 75.571 20.9413 75.5971 20.9695 75.6177L21.2736 75.8408C21.302 75.8615 21.3341 75.8764 21.3682 75.8844C21.4023 75.8925 21.4376 75.8937 21.4722 75.8879C21.5067 75.8821 21.5397 75.8695 21.5694 75.8507C21.599 75.8319 21.6246 75.8074 21.6448 75.7785C21.6847 75.7213 21.7006 75.6505 21.689 75.5816C21.6775 75.5126 21.6393 75.451 21.5829 75.4102L21.2788 75.1871C21.2412 75.1586 21.1967 75.1407 21.1499 75.1352L21.1499 75.1352ZM16.0624 75.1405C16.0179 75.1453 15.9753 75.1614 15.9387 75.1872L15.6346 75.4103C15.579 75.4519 15.5419 75.5139 15.5312 75.5828C15.5206 75.6517 15.5374 75.7221 15.5779 75.7787C15.6184 75.8354 15.6796 75.8738 15.7481 75.8855C15.8167 75.8971 15.887 75.8811 15.9438 75.8409L16.248 75.6179C16.2766 75.5976 16.301 75.5718 16.3196 75.542C16.3383 75.5122 16.3509 75.4789 16.3566 75.4441C16.3624 75.4094 16.3612 75.3738 16.3532 75.3395C16.3451 75.3052 16.3304 75.2728 16.3098 75.2443C16.2815 75.2064 16.2437 75.1767 16.2002 75.1585C16.1567 75.1402 16.1091 75.134 16.0624 75.1406L16.0624 75.1405ZM16.5675 75.7735C16.4982 75.7778 16.4334 75.8095 16.3871 75.8617L16.0985 76.1678C16.0745 76.1935 16.0558 76.2238 16.0436 76.2569C16.0314 76.29 16.0259 76.3251 16.0273 76.3604C16.0288 76.3957 16.0372 76.4303 16.0521 76.4622C16.067 76.4942 16.088 76.5228 16.114 76.5465C16.1655 76.5936 16.2333 76.6184 16.3028 76.6155C16.3723 76.6126 16.4378 76.5821 16.4852 76.5308L16.7738 76.2247C16.7981 76.1993 16.8172 76.1693 16.8298 76.1364C16.8425 76.1035 16.8485 76.0684 16.8476 76.0332C16.8466 75.9979 16.8387 75.9632 16.8242 75.9311C16.8098 75.899 16.7892 75.87 16.7635 75.846C16.7375 75.8211 16.7067 75.8019 16.673 75.7894C16.6393 75.7769 16.6035 75.7714 16.5677 75.7734L16.5675 75.7735ZM20.6448 75.7735C20.5759 75.7724 20.5093 75.7984 20.4592 75.8461C20.4332 75.8698 20.4121 75.8984 20.3973 75.9304C20.3824 75.9623 20.374 75.9969 20.3725 76.0322C20.3711 76.0674 20.3766 76.1026 20.3888 76.1357C20.401 76.1688 20.4197 76.1991 20.4437 76.2248L20.7323 76.5309C20.7796 76.5822 20.8452 76.6127 20.9147 76.6156C20.9842 76.6185 21.052 76.5937 21.1034 76.5466C21.1294 76.5229 21.1505 76.4943 21.1654 76.4623C21.1803 76.4304 21.1887 76.3958 21.1902 76.3605C21.1916 76.3253 21.1861 76.2901 21.1738 76.257C21.1616 76.2239 21.143 76.1936 21.119 76.1679L20.8303 75.8618C20.8068 75.8353 20.7783 75.8139 20.7464 75.7988C20.7146 75.7836 20.68 75.7751 20.6448 75.7736L20.6448 75.7735ZM16.9851 76.3442C16.9505 76.3489 16.9172 76.3606 16.8871 76.3784C16.857 76.3962 16.8307 76.4198 16.8098 76.4479L16.5211 76.8266C16.5 76.8545 16.4846 76.8863 16.4757 76.9202C16.4669 76.9541 16.4648 76.9895 16.4696 77.0242C16.4744 77.0589 16.486 77.0924 16.5037 77.1226C16.5214 77.1528 16.5448 77.1791 16.5727 77.2002C16.6004 77.2214 16.632 77.2369 16.6657 77.2458C16.6994 77.2547 16.7345 77.2568 16.769 77.252C16.8035 77.2472 16.8367 77.2355 16.8667 77.2177C16.8967 77.1999 16.9229 77.1763 16.9438 77.1483L17.2325 76.7696C17.2537 76.7417 17.2692 76.7098 17.2781 76.6758C17.287 76.6419 17.2891 76.6065 17.2843 76.5717C17.2795 76.5369 17.2679 76.5034 17.2501 76.4731C17.2324 76.4429 17.2089 76.4165 17.1809 76.3954C17.1533 76.3742 17.1217 76.3587 17.0881 76.3498C17.0545 76.3409 17.0195 76.3388 16.985 76.3435L16.9851 76.3442ZM20.1603 76.3442C20.1153 76.3505 20.0727 76.3683 20.0366 76.396C20.0091 76.4175 19.9861 76.4441 19.9689 76.4745C19.9517 76.5049 19.9406 76.5384 19.9363 76.5731C19.932 76.6078 19.9345 76.643 19.9437 76.6767C19.953 76.7105 19.9688 76.742 19.9902 76.7696L20.2788 77.1483C20.3209 77.2034 20.3828 77.2398 20.4513 77.2495C20.5197 77.2592 20.5892 77.2415 20.6448 77.2002C20.6727 77.1791 20.6961 77.1528 20.7138 77.1226C20.7315 77.0924 20.7431 77.0589 20.7478 77.0242C20.7526 76.9895 20.7506 76.9541 20.7417 76.9202C20.7329 76.8863 20.7174 76.8545 20.6963 76.8266L20.4077 76.4479C20.3794 76.41 20.3415 76.3803 20.298 76.3621C20.2545 76.3438 20.2069 76.3376 20.1603 76.3442H20.1603ZM17.4593 76.9615C17.4136 76.9667 17.3701 76.9838 17.3331 77.0111C17.296 77.0384 17.2667 77.075 17.2479 77.1172L17.0984 77.4596C17.0706 77.523 17.0685 77.5948 17.0926 77.6598C17.1167 77.7247 17.165 77.7776 17.2273 77.8072C17.2588 77.8218 17.2928 77.8301 17.3275 77.8315C17.3621 77.833 17.3967 77.8275 17.4293 77.8154C17.4618 77.8034 17.4917 77.785 17.5172 77.7613C17.5427 77.7377 17.5633 77.7092 17.5778 77.6775L17.7325 77.3351C17.7599 77.271 17.7613 77.1987 17.7362 77.1336C17.7111 77.0686 17.6617 77.0161 17.5984 76.9875C17.5553 76.9662 17.5072 76.9572 17.4593 76.9614L17.4593 76.9615ZM19.753 76.9615C19.7069 76.9582 19.6607 76.9672 19.619 76.9876C19.5567 77.0171 19.5084 77.07 19.4843 77.135C19.4602 77.1999 19.4623 77.2718 19.4902 77.3352L19.6396 77.6776C19.6542 77.7093 19.6748 77.7378 19.7003 77.7614C19.7258 77.7851 19.7556 77.8035 19.7882 77.8155C19.8207 77.8276 19.8553 77.8331 19.89 77.8316C19.9246 77.8302 19.9587 77.8219 19.9901 77.8073C20.0534 77.7787 20.1029 77.7262 20.1279 77.6611C20.153 77.5961 20.1517 77.5237 20.1242 77.4597L19.9695 77.1173C19.9504 77.0744 19.9202 77.0373 19.8822 77.01C19.8442 76.9826 19.7996 76.966 19.753 76.9616L19.753 76.9615ZM18.0778 77.2676C18.0197 77.2652 17.9624 77.2822 17.9148 77.316C17.8673 77.3498 17.8322 77.3984 17.8149 77.4544L17.7067 77.8124C17.6965 77.8457 17.6929 77.8808 17.6962 77.9156C17.6995 77.9503 17.7096 77.9841 17.7259 78.0149C17.7422 78.0458 17.7643 78.0731 17.7911 78.0953C17.8179 78.1175 17.8488 78.1342 17.8819 78.1444C17.9151 78.1546 17.95 78.1582 17.9845 78.1549C18.019 78.1516 18.0526 78.1414 18.0832 78.125C18.1139 78.1086 18.141 78.0863 18.1631 78.0594C18.1851 78.0324 18.2017 78.0014 18.2118 77.968L18.3201 77.6152C18.3303 77.5818 18.3338 77.5467 18.3305 77.512C18.3272 77.4772 18.3171 77.4434 18.3009 77.4126C18.2846 77.3818 18.2624 77.3545 18.2356 77.3322C18.2089 77.31 18.178 77.2934 18.1448 77.2832C18.1233 77.275 18.1007 77.2698 18.0778 77.2675V77.2676ZM19.1345 77.2676C19.1133 77.2703 19.0926 77.2756 19.0726 77.2833C19.0395 77.2935 19.0086 77.3102 18.9818 77.3324C18.955 77.3546 18.9329 77.3819 18.9166 77.4127C18.9003 77.4436 18.8902 77.4773 18.8869 77.5121C18.8836 77.5469 18.8872 77.5819 18.8974 77.6153L19.0056 77.9681C19.0157 78.0015 19.0323 78.0326 19.0544 78.0595C19.0764 78.0865 19.1036 78.1088 19.1342 78.1252C19.1648 78.1415 19.1984 78.1517 19.2329 78.155C19.2675 78.1583 19.3023 78.1548 19.3355 78.1445C19.3687 78.1343 19.3995 78.1176 19.4263 78.0954C19.4531 78.0732 19.4753 78.0459 19.4915 78.0151C19.5078 77.9842 19.5179 77.9505 19.5212 77.9157C19.5245 77.8809 19.5209 77.8459 19.5108 77.8125L19.4025 77.4545C19.3851 77.3977 19.3492 77.3484 19.3006 77.3145C19.252 77.2806 19.1935 77.2642 19.1345 77.2677L19.1345 77.2676ZM18.619 77.4129C18.5494 77.4132 18.4827 77.4411 18.4335 77.4907C18.3842 77.5402 18.3564 77.6074 18.3562 77.6775V78.1133C18.3564 78.1834 18.3842 78.2505 18.4335 78.3001C18.4827 78.3496 18.5494 78.3776 18.619 78.3779C18.6887 78.3776 18.7554 78.3496 18.8046 78.3001C18.8539 78.2505 18.8817 78.1834 18.8819 78.1133V77.6775C18.8817 77.6074 18.8539 77.5402 18.8046 77.4907C18.7554 77.4411 18.6887 77.4132 18.619 77.4129Z" fill="#BD0303"/>
<path d="M78.1895 53.0793L74.836 53.2903L72.7051 67.1079L78.1895 69.6905L83.674 67.1079L81.5431 53.2903L78.1895 53.0793Z" fill="url(#paint1_linear)"/>
<path d="M73.0911 64.5607L70.1582 65.5827L74.1633 91.9999H82.2147L86.2198 65.5827L83.2868 64.5607C82.248 66.4105 80.3002 67.5542 78.189 67.5541C76.0778 67.5542 74.13 66.4105 73.0911 64.5607Z" fill="#A3D1FF"/>
<path d="M87.0071 44.0868C87.0071 48.9879 83.0596 59.2997 78.1901 59.2997C73.3206 59.2997 69.373 48.9879 69.373 44.0868C69.373 39.1857 73.3206 35.2125 78.1901 35.2125C83.0596 35.2125 87.0071 39.1857 87.0071 44.0868Z" fill="#CD7D51"/>
<path d="M77.3057 34.398C73.9706 34.5692 70.5522 36.0922 68.0791 38.2319C69.3193 42.8167 68.3296 46.3388 70.0636 49.4951C71.4684 54.1106 74.6463 60.1798 78.0995 60.5351C80.8068 60.6928 82.546 58.0252 83.8108 55.6065C84.8426 53.6332 85.4361 51.6942 86.0942 49.6974C87.0199 46.8888 87.2021 43.9087 87.2953 41.4848C87.3711 39.4472 86.5735 38.729 86.0324 38.6781C83.8914 35.408 80.6409 34.2269 77.3057 34.398L77.3057 34.398ZM83.486 41.0905C85.3437 43.6376 85.3801 46.0137 85.4034 48.4004C84.6288 50.4896 82.7736 54.4302 81.6211 53.8008C79.8555 52.8367 77.0658 52.7783 75.1716 53.5262C73.7882 54.0723 71.3855 50.1473 70.7078 47.1709C70.6442 45.227 71.6128 44.5049 71.9172 42.6616C75.4474 43.7677 80.0652 42.1032 83.4859 41.0905L83.486 41.0905ZM81.0353 56.1764C81.4937 57.4704 79.8999 57.5846 78.3807 57.4862C76.9081 57.3908 75.6057 57.1895 75.7479 56.3892C76.201 53.8398 80.2085 53.8423 81.0353 56.1764V56.1764Z" fill="#191847"/>
<path d="M70.096 65.5469L66.6682 66.543C63.5856 67.4369 62.1643 68.8004 61.2353 71.7828L54.9355 92.0004H76.8691C76.8691 92.0004 73.821 77.8202 73.2867 72.2238C73.1141 70.416 72.008 66.6653 70.096 65.5469ZM86.2813 65.5469C84.3693 66.6653 83.2581 70.416 83.0855 72.2238C82.5511 77.8202 80.5963 92.0004 80.5963 92.0004H90.5679C95.9634 92.0004 99.8117 86.7687 98.2049 81.618L95.1368 71.7828C94.2079 68.8004 92.7916 67.4369 89.709 66.543L86.2813 65.5469Z" fill="#A16BFF"/>
<path d="M72.0908 76.4877C71.9331 76.489 71.7823 76.553 71.6713 76.6657C71.5603 76.7784 71.498 76.9307 71.498 77.0895C71.4993 77.2473 71.5622 77.3983 71.6731 77.5099C71.784 77.6215 71.934 77.6848 72.0908 77.6861C72.2485 77.6861 72.3999 77.6235 72.5119 77.5117C72.6239 77.4 72.6874 77.2482 72.6887 77.0895C72.6888 77.0104 72.6733 76.9322 72.6433 76.8591C72.6132 76.7861 72.5692 76.7198 72.5137 76.6639C72.4581 76.608 72.3922 76.5637 72.3197 76.5334C72.2471 76.5032 72.1693 76.4876 72.0908 76.4877ZM84.2813 76.4877C84.2028 76.4876 84.125 76.5032 84.0525 76.5334C83.9799 76.5637 83.914 76.608 83.8585 76.6639C83.8029 76.7198 83.7589 76.7861 83.7289 76.8591C83.6988 76.9322 83.6834 77.0104 83.6834 77.0895C83.6847 77.2482 83.7483 77.4 83.8603 77.5117C83.9723 77.6235 84.1236 77.6861 84.2813 77.6861C84.439 77.6861 84.5904 77.6235 84.7024 77.5117C84.8144 77.4 84.8779 77.2482 84.8793 77.0895C84.8793 77.0104 84.8638 76.9322 84.8338 76.8591C84.8038 76.7861 84.7597 76.7198 84.7042 76.6639C84.6487 76.608 84.5827 76.5637 84.5102 76.5334C84.4376 76.5032 84.3599 76.4876 84.2813 76.4877ZM72.3279 81.6808C72.2494 81.6808 72.1716 81.6964 72.0991 81.7266C72.0265 81.7568 71.9606 81.8012 71.9051 81.8571C71.8496 81.9129 71.8055 81.9793 71.7755 82.0523C71.7454 82.1254 71.73 82.2036 71.73 82.2827C71.73 82.3617 71.7454 82.44 71.7755 82.513C71.8055 82.586 71.8496 82.6524 71.9051 82.7082C71.9606 82.7641 72.0265 82.8085 72.0991 82.8387C72.1716 82.8689 72.2494 82.8845 72.3279 82.8845C72.4065 82.8845 72.4842 82.8689 72.5568 82.8387C72.6293 82.8085 72.6953 82.7641 72.7508 82.7082C72.8063 82.6524 72.8503 82.586 72.8804 82.513C72.9104 82.44 72.9259 82.3617 72.9259 82.2827C72.9259 82.2036 72.9104 82.1254 72.8804 82.0523C72.8504 81.9793 72.8063 81.9129 72.7508 81.8571C72.6953 81.8012 72.6293 81.7568 72.5568 81.7266C72.4842 81.6964 72.4065 81.6808 72.3279 81.6808ZM84.0442 81.6808C83.8865 81.6822 83.7357 81.7462 83.6247 81.8589C83.5137 81.9716 83.4514 82.1239 83.4514 82.2827C83.4514 82.4414 83.5137 82.5937 83.6247 82.7064C83.7357 82.8191 83.8865 82.8831 84.0442 82.8845C84.1227 82.8845 84.2005 82.8689 84.2731 82.8387C84.3456 82.8085 84.4115 82.7641 84.4671 82.7082C84.5226 82.6524 84.5666 82.586 84.5967 82.513C84.6267 82.44 84.6422 82.3617 84.6421 82.2827C84.6422 82.2036 84.6267 82.1254 84.5967 82.0523C84.5666 81.9793 84.5226 81.9129 84.4671 81.8571C84.4115 81.8012 84.3456 81.7568 84.2731 81.7266C84.2005 81.6964 84.1227 81.6808 84.0442 81.6808Z" fill="#702EE6"/>
<path d="M73.0909 64.5607L71.8848 64.9809C72.4868 66.1398 73.3926 67.1107 74.5038 67.7884C75.6151 68.466 76.8895 68.8246 78.1888 68.8252C79.4881 68.8246 80.7625 68.466 81.8737 67.7884C82.985 67.1107 83.8907 66.1398 84.4928 64.9809L83.2866 64.5607C82.7763 65.4693 82.0355 66.2252 81.1398 66.7511C80.2441 67.2771 79.2257 67.5542 78.1888 67.5541C77.1518 67.5542 76.1334 67.2771 75.2377 66.7511C74.342 66.2252 73.6012 65.4693 73.0909 64.5607Z" fill="#5AACFF"/>
<path d="M50.3622 46.2844L46.4036 46.5334L44.1123 59.44L50.2823 66.2893L56.4523 59.44L54.3209 46.5334L50.3622 46.2844Z" fill="url(#paint2_linear)"/>
<path d="M61.2856 33.831C61.2856 39.9025 56.3954 52.6769 50.363 52.6769C44.3306 52.6769 39.4404 39.9025 39.4404 33.831C39.4404 27.7595 44.3306 22.8375 50.363 22.8375C56.3954 22.8375 61.2856 27.7595 61.2856 33.831Z" fill="#CF965F"/>
<path d="M40.9433 41.4517C38.4653 38.6617 32.3928 34.3911 38.3856 33.4785C31.7459 30.6314 35.0724 21.8928 39.4023 24.4612C37.6318 20.1409 39.5454 14.2918 46.6943 19.2692C47.6518 13.1712 56.8346 13.7772 56.7998 19.7455C61.0008 15.9704 65.4782 19.6231 62.2891 25.0181C67.9079 23.3867 70.0755 31.2871 63.6792 33.3873C68.0535 35.0238 61.2039 40.3295 59.2019 43.0239C59.8 38.6508 58.191 35.5367 59.5471 30.6987C56.5297 31.8664 56.5 28.6076 52.4374 29.7047C48.7566 30.6987 46.3386 29.1395 44.5 28.0007C42.9221 30.2918 43.6656 31.5254 41.1138 32.0661C39.6834 35.5637 42.387 38.0162 40.9433 41.4517Z" fill="#091540"/>
<path d="M44.1132 59.4392C44.1132 59.4392 46.3508 62.344 50.2832 62.344C54.2156 62.344 56.4532 59.4392 56.4532 59.4392L60.3036 67.0137L54.3798 91.999H43.0811L44.1132 59.4392Z" fill="#FFCE8F"/>
<path d="M44.1125 59.4392L44.0352 61.9139C44.0352 61.9139 45.7371 64.8094 50.2825 64.8087C54.8278 64.8081 57.339 61.1876 57.339 61.1876L56.4525 59.4392C56.4525 59.4392 54.2148 62.3445 50.2825 62.3445C46.3501 62.3445 44.1125 59.4392 44.1125 59.4392H44.1125Z" fill="#FFAE47"/>
<path d="M44.1121 59.4392L34.1947 62.3185C29.89 63.5668 27.9096 65.4688 26.6124 69.6336L19.6426 91.999H49.1845L44.1121 59.4392ZM56.4521 59.4392L51.3796 91.999H80.9216L73.9517 69.6336C72.6545 65.4688 70.6742 63.5668 66.3694 62.3185L56.4521 59.4392Z" fill="#F0F3CE"/>
<path d="M42.6941 62.6981L37.0859 76.5604L41.2921 78.5526L39.89 82.4125L44.1374 83.1595L46.859 88.8871L45.2891 81.4357L42.4187 80.977L43.5954 77.59L39.4193 75.4436L42.6941 62.6981Z" fill="#E0EA80"/>
<path d="M58.492 62.6981L64.1002 76.5604L59.8941 78.5526L61.2961 82.4125L57.0488 83.1595L54.3271 88.8871L55.8971 81.4357L58.7674 80.977L57.5907 77.59L61.7668 75.4436L58.492 62.6981Z" fill="#E0EA80"/>
<defs>
<linearGradient id="paint0_linear" x1="18.6524" y1="61.1214" x2="18.6163" y2="77.3377" gradientUnits="userSpaceOnUse">
<stop stop-color="#FF9D80"/>
<stop offset="0.341465" stop-color="#FFC7B5"/>
<stop offset="1" stop-color="#FFD4C7"/>
</linearGradient>
<linearGradient id="paint1_linear" x1="78" y1="58.4993" x2="78" y2="66.9993" gradientUnits="userSpaceOnUse">
<stop stop-color="#9E562E"/>
<stop offset="0.56315" stop-color="#CD7D51"/>
</linearGradient>
<linearGradient id="paint2_linear" x1="50.2823" y1="49.6877" x2="50.2823" y2="56.2869" gradientUnits="userSpaceOnUse">
<stop stop-color="#9D652F"/>
<stop offset="1" stop-color="#CF965F"/>
</linearGradient>
</defs>
</svg>
