<svg width="100" height="100" viewBox="0 0 100 100" fill="none" xmlns="http://www.w3.org/2000/svg">
<g clip-path="url(#clip0)">
<path d="M50.2936 62.9261L50.001 50H97.001V89C97.001 93.4183 93.4193 97 89.001 97H50.001V84.0738C50.001 82.8988 49.4112 82.021 48.5667 81.5437C47.7221 81.0664 46.6229 80.9883 45.5948 81.429C44.4198 82.0165 43.2425 82.3125 41.7737 82.3125C39.8643 82.3125 38.1053 81.7227 36.6732 80.6946C35.2412 79.6665 34.1397 78.2 33.5522 76.4375C33.0381 74.8953 32.9291 73.3875 33.1448 71.9968C33.3605 70.6061 33.8987 69.3336 34.6881 68.2504C35.4776 67.1672 36.516 66.2767 37.7232 65.6571C38.9303 65.0375 40.305 64.6875 41.7737 64.6875C43.2425 64.6875 44.7124 64.9835 45.8874 65.571C46.9155 66.0117 48.031 65.9337 48.8822 65.4563C49.7334 64.9789 50.3203 64.1008 50.2936 62.9261Z" fill="#80DEEA"/>
<path d="M50 50.0009L37.0739 50.2935C35.8992 50.3202 35.0211 49.7334 34.5437 48.8822C34.0663 48.031 33.9883 46.9154 34.429 45.8873C35.0165 44.7123 35.3125 43.2424 35.3125 41.7737C35.3125 40.3049 34.9625 38.9302 34.3429 37.7231C33.7233 36.516 32.8328 35.4775 31.7496 34.6881C30.6664 33.8986 29.3939 33.3605 28.0032 33.1447C26.6125 32.929 25.1047 33.038 23.5625 33.5521C21.8 34.1396 20.3335 35.2412 19.3054 36.6732C18.2773 38.1052 17.6875 39.8643 17.6875 41.7737C17.6875 43.2424 17.9835 44.4197 18.571 45.5947C19.0117 46.6228 18.9336 47.7221 18.4563 48.5666C17.979 49.4112 17.1011 50.0009 15.9261 50.0009H3V89.0009C3 93.4192 6.58172 97.0009 11 97.0009H50V84.0748C50 82.8998 49.4102 82.022 48.5657 81.5446C47.7211 81.0673 46.6219 80.9893 45.5938 81.4299C44.4188 82.0174 43.2415 82.3134 41.7727 82.3134C39.8633 82.3134 38.1043 81.7237 36.6722 80.6955C35.2402 79.6674 34.1386 78.2009 33.5511 76.4384C33.0371 74.8963 32.9281 73.3885 33.1438 71.9978C33.3595 70.6071 33.8977 69.3345 34.6871 68.2513C35.4766 67.1681 36.515 66.2777 37.7222 65.6581C38.9293 65.0384 40.304 64.6884 41.7727 64.6884C43.2415 64.6884 44.7114 64.9845 45.8864 65.572C46.9145 66.0126 48.03 65.9347 48.8812 65.4572C49.7324 64.9798 50.3193 64.1018 50.2926 62.9271L50 50.0009Z" fill="#FFC7C7"/>
<path d="M3 50V11C3 6.58172 6.58172 3 11 3H50V50L37.0739 50.2926C35.8992 50.3193 35.0211 49.7324 34.5437 48.8812C34.0663 48.03 33.9883 46.9145 34.429 45.8864C35.0165 44.7114 35.3125 43.2415 35.3125 41.7727C35.3125 40.304 34.9625 38.9293 34.3429 37.7222C33.7233 36.515 32.8328 35.4766 31.7496 34.6871C30.6664 33.8977 29.3939 33.3595 28.0032 33.1438C26.6125 32.9281 25.1047 33.0371 23.5625 33.5511C21.8 34.1386 20.3335 35.2402 19.3054 36.6722C18.2773 38.1043 17.6875 39.8633 17.6875 41.7727C17.6875 43.2415 17.9835 44.4188 18.571 45.5938C19.0117 46.6219 18.9336 47.7211 18.4563 48.5657C17.979 49.4102 17.1011 50 15.9261 50H3Z" fill="#C7F5E5"/>
<path d="M47.0627 62.8975V50V47H52.9377V50V62.9261C52.9377 65.0803 51.6964 67.0629 50.0117 68.0151C48.327 68.9674 46.2701 69.054 44.435 68.2676L44.3547 68.2332L44.2801 68.1987C43.4554 67.7864 42.85 67.625 41.7729 67.625C39.1593 67.625 37.1277 69.1281 36.3397 71.4919C36.1054 72.1947 36.0136 72.8587 35.984 73.5C36.0136 74.1413 36.1055 74.8053 36.3397 75.5081C37.1277 77.8719 39.1593 79.375 41.7729 79.375C42.85 79.375 43.4554 79.2136 44.2801 78.8013L44.3547 78.7668L44.435 78.7324C46.2701 77.946 48.327 78.0326 50.0117 78.9849C51.6964 79.9371 52.9377 81.9197 52.9377 84.0739V97H47.0627V84.1025C47.0245 84.0901 46.9456 84.0539 46.773 84.1229C45.2798 84.8441 43.5788 85.25 41.7729 85.25C36.7491 85.25 32.3251 82.0531 30.7631 77.3669C30.3279 76.0616 30.1456 74.764 30.1492 73.5C30.1456 72.236 30.3279 70.9384 30.7631 69.6331C32.3251 64.9469 36.7491 61.75 41.7729 61.75C43.5787 61.75 45.2797 62.1558 46.7729 62.8771C46.9456 62.946 47.0245 62.9097 47.0627 62.8975Z" fill="white"/>
<path d="M62.9263 49.7074L50.0001 50V3H89.0001C93.4184 3 97.0001 6.58172 97.0001 11V50H84.074C82.899 50 82.0212 50.5898 81.5438 51.4343C81.0665 52.2789 80.9884 53.3781 81.4291 54.4062C82.0166 55.5812 82.3126 56.7585 82.3126 58.2273C82.3126 60.1367 81.7228 61.8957 80.6947 63.3278C79.6666 64.7598 78.2001 65.8614 76.4376 66.4489C74.8954 66.9629 73.3877 67.0719 71.9969 66.8562C70.6062 66.6405 69.3337 66.1023 68.2505 65.3129C67.1673 64.5234 66.2769 63.485 65.6572 62.2778C65.0376 61.0707 64.6876 59.696 64.6876 58.2273C64.6876 56.7585 64.9837 55.2886 65.5712 54.1136C66.0118 53.0855 65.9338 51.9805 65.4564 51.136C64.9791 50.2915 64.1013 49.7074 62.9263 49.7074Z" fill="#FFB59E"/>
<path d="M50 50V3" stroke="white" stroke-width="6"/>
<path d="M26.5 30.1495C25.236 30.1459 23.9384 30.3282 22.6331 30.7634C17.9469 32.3254 14.75 36.7494 14.75 41.7732C14.75 43.6337 15.1808 45.3828 15.9434 46.9081L15.8688 46.7532C15.9489 46.9398 15.9104 47.0234 15.8975 47.063H3V52.938H15.9261C18.0803 52.938 20.0629 51.6968 21.0151 50.012C21.9674 48.3273 22.054 46.2704 21.2676 44.4354L21.2332 44.355L21.1987 44.2804C20.7864 43.4557 20.625 42.8503 20.625 41.7732C20.625 39.1596 22.1281 37.128 24.4919 36.34C25.1947 36.1058 25.8586 36.0139 26.5 35.9843C27.1414 36.0139 27.8053 36.1057 28.5081 36.34C30.8719 37.128 32.375 39.1596 32.375 41.7732C32.375 42.8503 32.2136 43.4557 31.8013 44.2804L31.7668 44.355L31.7324 44.4354C30.946 46.2704 31.0326 48.3273 31.9849 50.012C32.9371 51.6968 34.9197 52.938 37.0739 52.938H50H62.8975C62.9104 52.9777 62.9489 53.0612 62.8688 53.2478L62.9434 53.0929C62.1808 54.6182 61.75 56.3674 61.75 58.2278C61.75 63.2517 64.9469 67.6757 69.6331 69.2377C70.9384 69.6728 72.236 69.8551 73.5 69.8516C74.764 69.8551 76.0616 69.6728 77.3669 69.2377C82.0531 67.6757 85.25 63.2517 85.25 58.2278C85.25 56.3674 84.8193 54.6183 84.0566 53.0929L84.1312 53.2478C84.0512 53.0612 84.0897 52.9777 84.1025 52.938H97V47.063H84.0739C81.9197 47.063 79.9371 48.3043 78.9849 49.9891C78.0326 51.6738 77.946 53.7307 78.7324 55.5657L78.7668 55.646L78.8013 55.7206C79.2136 56.5453 79.375 57.1507 79.375 58.2278C79.375 60.8415 77.8719 62.8731 75.5081 63.6611C74.8053 63.8953 74.1414 63.9872 73.5 64.0168C72.8586 63.9872 72.1947 63.8953 71.4919 63.6611C69.1281 62.8731 67.625 60.8415 67.625 58.2278C67.625 57.1507 67.7864 56.5453 68.1987 55.7206L68.2332 55.646L68.2676 55.5657C69.054 53.7307 68.9674 51.6738 68.0151 49.9891C67.0629 48.3043 65.0803 47.063 62.9261 47.063H50H37.1025C37.0899 47.0234 37.0511 46.9399 37.1312 46.7532L37.0566 46.9081C37.8192 45.3828 38.25 43.6337 38.25 41.7732C38.25 36.7494 35.0531 32.3254 30.3669 30.7634C29.0616 30.3282 27.764 30.1459 26.5 30.1495Z" fill="white"/>
</g>
<circle cx="88" cy="12" r="6" fill="#FF7043"/>
<path fill-rule="evenodd" clip-rule="evenodd" d="M58 12C58 10.8954 58.8954 10 60 10H62C65.677 10 69.318 10.7242 72.7151 12.1314C76.1123 13.5385 79.199 15.601 81.799 18.201C84.399 20.8011 86.4615 23.8877 87.8686 27.2849C89.2758 30.682 90 34.323 90 38V40C90 41.1046 89.1046 42 88 42C86.8954 42 86 41.1046 86 40V38C86 34.8483 85.3792 31.7274 84.1731 28.8156C82.967 25.9038 81.1992 23.258 78.9706 21.0294C76.742 18.8008 74.0962 17.033 71.1844 15.8269C68.2726 14.6208 65.1517 14 62 14H60C58.8954 14 58 13.1046 58 12ZM60 26C58.8954 26 58 26.8954 58 28C58 29.1046 58.8954 30 60 30H62C63.0506 30 64.0909 30.2069 65.0615 30.609C66.0321 31.011 66.914 31.6003 67.6569 32.3431C68.3997 33.086 68.989 33.9679 69.391 34.9385C69.7931 35.9091 70 36.9494 70 38V40C70 41.1046 70.8954 42 72 42C73.1046 42 74 41.1046 74 40V38C74 36.4241 73.6896 34.8637 73.0866 33.4078C72.4835 31.9519 71.5996 30.629 70.4853 29.5147C69.371 28.4004 68.0481 27.5165 66.5922 26.9134C65.1363 26.3104 63.5759 26 62 26H60ZM62 42C64.2091 42 66 40.2091 66 38C66 35.7909 64.2091 34 62 34C59.7909 34 58 35.7909 58 38C58 40.2091 59.7909 42 62 42ZM60 18C58.8954 18 58 18.8954 58 20C58 21.1046 58.8954 22 60 22H62C64.1012 22 66.1817 22.4139 68.1229 23.2179C70.0641 24.022 71.828 25.2006 73.3137 26.6863C74.7994 28.172 75.978 29.9359 76.7821 31.8771C77.5861 33.8183 78 35.8988 78 38V40C78 41.1046 78.8954 42 80 42C81.1046 42 82 41.1046 82 40V38C82 35.3736 81.4827 32.7728 80.4776 30.3463C79.4725 27.9198 77.9993 25.715 76.1421 23.8579C74.285 22.0007 72.0802 20.5275 69.6537 19.5224C67.2272 18.5173 64.6264 18 62 18H60Z" fill="white"/>
<path d="M89 9C89 8.44772 88.5523 8 88 8C87.4477 8 87 8.44772 87 9V12C87 12.5523 87.4477 13 88 13C88.5523 13 89 12.5523 89 12V9Z" fill="white"/>
<path d="M88 16C88.5523 16 89 15.5523 89 15C89 14.4477 88.5523 14 88 14C87.4477 14 87 14.4477 87 15C87 15.5523 87.4477 16 88 16Z" fill="white"/>
<defs>
<clipPath id="clip0">
<rect width="94" height="94" fill="white" transform="translate(3 3)"/>
</clipPath>
</defs>
</svg>
