<svg width="3416" height="1207" viewBox="0 0 3416 1207" fill="none" xmlns="http://www.w3.org/2000/svg">
<path d="M3416 171V1018.5L2199.2 1204.95C2194.65 1205.65 2190.03 1205.78 2185.44 1205.35L0 998.5V245L1276.07 1.41882C1281 0.477173 1286.04 0.203491 1291.04 0.604858L3416 171Z" fill="url(#paint0_linear)"/>
<rect opacity="0.08" x="2408.52" y="593.379" width="33.483" height="33.483" rx="6" transform="rotate(31.5023 2408.52 593.379)" fill="#45AFFC"/>
<rect opacity="0.08" x="1101.78" y="741.783" width="21.7943" height="21.7943" rx="8" transform="rotate(54.6507 1101.78 741.783)" fill="#45AFFC"/>
<path opacity="0.08" d="M1062.12 773.658C1071.18 771.834 1078.81 780.492 1075.86 789.244L1065.92 818.78C1062.97 827.532 1051.66 829.812 1045.55 822.885L1024.94 799.506C1018.84 792.579 1022.52 781.639 1031.57 779.815L1062.12 773.658Z" fill="#ADF0D9"/>
<path opacity="0.08" d="M671.123 225.875C680.175 224.05 687.808 232.709 684.862 241.461L674.919 270.997C671.973 279.748 660.657 282.029 654.552 275.102L633.944 251.723C627.838 244.796 631.521 233.856 640.573 232.032L671.123 225.875Z" fill="#ADF0D9"/>
<path opacity="0.08" d="M576.123 473.875C585.175 472.05 592.808 480.709 589.862 489.461L579.919 518.997C576.973 527.748 565.657 530.029 559.552 523.102L538.944 499.723C532.838 492.796 536.521 481.856 545.573 480.032L576.123 473.875Z" fill="#ADF0D9"/>
<path opacity="0.08" d="M2397.09 143.023C2400 141.943 2402.99 144.416 2402.47 147.476L2400.72 157.802C2400.2 160.861 2396.57 162.212 2394.18 160.233L2386.11 153.555C2383.72 151.576 2384.37 147.751 2387.28 146.671L2397.09 143.023Z" fill="#ADF0D9"/>
<circle opacity="0.08" cx="2000" cy="138" r="25" fill="#48CADA"/>
<circle opacity="0.08" cx="2730.5" cy="924.5" r="14.5" fill="#48CADA"/>
<circle opacity="0.08" cx="1663" cy="578" r="25" fill="#48CADA"/>
<circle opacity="0.08" cx="1001" cy="440" r="11" fill="#06EEC1"/>
<circle opacity="0.08" cx="582" cy="509" r="11" fill="#06EEC1"/>
<circle opacity="0.08" cx="568.5" cy="468.5" r="23.5" fill="#06EEC1"/>
<circle opacity="0.08" cx="744.5" cy="560.5" r="17.5" fill="#06EEC1"/>
<circle opacity="0.08" cx="2379.5" cy="214.283" r="33.5" fill="#1DE686"/>
<circle opacity="0.08" cx="1020.5" cy="754.283" r="40.5" fill="#1DE686"/>
<circle opacity="0.08" cx="639.5" cy="872.5" r="40.5" fill="#1DE686"/>
<path opacity="0.08" d="M3103.34 749.455C3118.85 746.328 3131.93 761.169 3126.88 776.168L3109.84 826.791C3104.79 841.791 3085.4 845.699 3074.93 833.827L3039.61 793.757C3029.15 781.884 3035.46 763.135 3050.98 760.008L3103.34 749.455Z" fill="#ADF0D9"/>
<path opacity="0.08" d="M2783.39 319.853C2791.89 318.139 2799.06 326.273 2796.3 334.495L2786.96 362.242C2784.19 370.463 2773.56 372.606 2767.82 366.098L2748.46 344.135C2742.73 337.628 2746.19 327.351 2754.69 325.637L2783.39 319.853Z" fill="#ADF0D9"/>
<path opacity="0.08" d="M2757.3 903.132C2763.31 901.921 2768.37 907.668 2766.42 913.476L2759.82 933.077C2757.87 938.885 2750.36 940.399 2746.3 935.801L2732.63 920.286C2728.58 915.689 2731.02 908.429 2737.03 907.218L2757.3 903.132Z" fill="#ADF0D9"/>
<path opacity="0.08" d="M1712.36 557.447C1724.4 555.021 1734.55 566.538 1730.63 578.179L1717.41 617.466C1713.49 629.107 1698.44 632.14 1690.32 622.926L1662.91 591.829C1654.78 582.615 1659.68 568.064 1671.72 565.637L1712.36 557.447Z" fill="#ADF0D9"/>
<rect opacity="0.08" x="2420.07" y="173.783" width="34.0389" height="34.0389" rx="4" transform="rotate(45 2420.07 173.783)" fill="#FFB59E"/>
<rect opacity="0.08" x="2733.58" y="796.452" width="60.2507" height="60.2507" rx="16" transform="rotate(30 2733.58 796.452)" fill="#FFB59E"/>
<rect opacity="0.08" x="987.582" y="331" width="83.1654" height="83.1654" rx="12" transform="rotate(30 987.582 331)" fill="#FFB59E"/>
<rect opacity="0.08" x="2818.58" y="247" width="83.1654" height="83.1654" rx="12" transform="rotate(30 2818.58 247)" fill="#FFB59E"/>
<rect opacity="0.08" x="598.83" y="831.902" width="41.5106" height="41.5106" rx="12" transform="rotate(30 598.83 831.902)" fill="#FFB59E"/>
<rect opacity="0.08" x="717.59" y="192.938" width="65.4651" height="65.4651" rx="12" transform="rotate(66.3814 717.59 192.938)" fill="#FFB59E"/>
<circle opacity="0.08" cx="3190" cy="669" r="25" fill="#48CADA"/>
<rect opacity="0.08" x="3088.92" y="422.666" width="39.2417" height="39.2417" rx="16" transform="rotate(66.1536 3088.92 422.666)" fill="#FFB59E"/>
<path opacity="0.08" d="M293.123 871.874C302.175 870.05 309.808 878.709 306.862 887.46L296.919 916.997C293.973 925.748 282.657 928.029 276.552 921.101L255.944 897.722C249.838 890.795 253.521 879.856 262.573 878.032L293.123 871.874Z" fill="#ADF0D9"/>
<circle opacity="0.08" cx="301.5" cy="364.5" r="17.5" fill="#06EEC1"/>
<circle opacity="0.08" cx="277.5" cy="688.5" r="17.5" fill="#06EEC1"/>
<circle opacity="0.08" cx="158.5" cy="623.5" r="40.5" fill="#1DE686"/>
<defs>
<linearGradient id="paint0_linear" x1="1446.2" y1="10.778" x2="1446.2" y2="1034.35" gradientUnits="userSpaceOnUse">
<stop stop-color="#0D55CF"/>
<stop offset="0.711412" stop-color="#308CF5"/>
<stop offset="1" stop-color="#2D95FF"/>
</linearGradient>
</defs>
</svg>
