<svg width="86" height="72" viewBox="0 0 86 72" fill="none" xmlns="http://www.w3.org/2000/svg">
<path d="M56 0H78C82.4183 0 86 3.58172 86 8V16C86 18.2091 84.2091 20 82 20H56V0Z" fill="#A3D1FF"/>
<path d="M20 0C15.5817 0 12 3.58172 12 8V72H62C66.4183 72 70 68.4183 70 64V8C70 3.58172 73.5817 0 78 0H20Z" fill="#EBF5FF"/>
<path d="M54 56C54 53.7909 52.2091 52 50 52H4C1.79086 52 0 53.7909 0 56V64C0 68.4183 3.58172 72 8 72H62C57.5817 72 54 68.4183 54 64V56Z" fill="#C7E3FF"/>
<path d="M55.893 33.5603C56.9845 32.2339 59.0155 32.2339 60.107 33.5603V33.5603C60.6845 34.262 61.5734 34.6302 62.4779 34.5423V34.5423C64.1876 34.3763 65.6237 35.8124 65.4577 37.5221V37.5221C65.3698 38.4266 65.738 39.3155 66.4397 39.893V39.893C67.7661 40.9845 67.7661 43.0155 66.4397 44.107V44.107C65.738 44.6845 65.3698 45.5734 65.4577 46.4779V46.4779C65.6237 48.1876 64.1876 49.6237 62.4779 49.4577V49.4577C61.5734 49.3698 60.6845 49.738 60.107 50.4397V50.4397C59.0155 51.7661 56.9845 51.7661 55.893 50.4397V50.4397C55.3155 49.738 54.4266 49.3698 53.5221 49.4577V49.4577C51.8124 49.6237 50.3763 48.1876 50.5423 46.4779V46.4779C50.6302 45.5734 50.262 44.6845 49.5603 44.107V44.107C48.2339 43.0155 48.2339 40.9845 49.5603 39.893V39.893C50.262 39.3155 50.6302 38.4266 50.5423 37.5221V37.5221C50.3763 35.8124 51.8124 34.3763 53.5221 34.5423V34.5423C54.4266 34.6302 55.3155 34.262 55.893 33.5603V33.5603Z" fill="#FFA3A3"/>
<path d="M54.0407 42.2309L61.3255 40.279L65.3458 51.7227C65.6221 52.5091 64.8715 53.2686 64.0819 53.0014L60.5065 51.7919L58.0148 54.6271C57.4646 55.2532 56.4348 54.9709 56.2809 54.1517L54.0407 42.2309Z" fill="#FFCE8F"/>
<circle cx="58" cy="42" r="5" fill="#E00000"/>
<rect x="20" y="40" width="22" height="4" rx="2" fill="#C7E3FF"/>
<rect x="20" y="32" width="26" height="4" rx="2" fill="#C7E3FF"/>
<rect x="20" y="24" width="42" height="4" rx="2" fill="#C7E3FF"/>
<rect x="20" y="16" width="42" height="4" rx="2" fill="#C7E3FF"/>
</svg>
