<svg width="24" height="24" viewBox="0 0 24 24" fill="none" xmlns="http://www.w3.org/2000/svg">
<path d="M6 2C3.79086 2 2 3.79086 2 6V18C2 20.2091 3.79086 22 6 22H18C20.2091 22 22 20.2091 22 18V6C22 3.79086 20.2091 2 18 2H6Z" fill="#012169"/>
<path d="M2.11743 5.03412L9.64562 12.0001L2.11743 18.9662C2.41574 20.1691 3.25845 21.1571 4.36899 21.6536L12 14.2763L19.631 21.6536C20.7416 21.1571 21.5843 20.1691 21.8826 18.9662L14.3544 12.0001L21.8826 5.03412C21.5843 3.83122 20.7416 2.84321 19.631 2.34668L12 9.72402L4.36899 2.34668C3.25845 2.84321 2.41574 3.83122 2.11743 5.03412Z" fill="white"/>
<path d="M2.28149 4.52327L10.4077 12.0001L2.28149 19.4769C2.55492 20.1648 3.01369 20.7589 3.59614 21.1975L12 13.4652L20.4039 21.1975C20.9864 20.7589 21.4451 20.1648 21.7186 19.4769L13.5923 12.0001L21.7186 4.52327C21.4451 3.8354 20.9864 3.24134 20.4039 2.80273L12 10.535L3.59614 2.80273C3.01369 3.24134 2.55492 3.8354 2.28149 4.52327Z" fill="#C8102E"/>
<path fill-rule="evenodd" clip-rule="evenodd" d="M15.5 15.5V22H8.50003V15.5H2V8.5H8.50003V2H15.5V8.5H22V15.5H15.5Z" fill="white"/>
<path fill-rule="evenodd" clip-rule="evenodd" d="M14.1 14V22H9.9V14H2V10H9.9V2H14.1V10H22V14H14.1Z" fill="#C8102E"/>
</svg>
