<svg width="33" height="32" viewBox="0 0 33 32" fill="none" xmlns="http://www.w3.org/2000/svg">
<rect x="0.5" width="32" height="32" rx="6" fill="#D8F4F8"/>
<path d="M20.1483 18.3514C20.617 18.8201 20.617 19.5798 20.1483 20.0485L16.5483 23.6485C16.0797 24.1171 15.3199 24.1171 14.8513 23.6485L12.8513 21.6485C12.3826 21.1798 12.3826 20.4201 12.8513 19.9514C13.3199 19.4828 14.0797 19.4828 14.5483 19.9514L15.6998 21.1029L18.4513 18.3514C18.9199 17.8828 19.6797 17.8828 20.1483 18.3514Z" fill="#80DEEA"/>
<path fill-rule="evenodd" clip-rule="evenodd" d="M16.4998 3.19995C12.3024 3.19995 8.89981 6.60259 8.89981 10.8V13.2197C6.87848 13.4204 5.2998 15.1258 5.2998 17.2V24.7999C5.2998 27.0091 7.09067 28.7999 9.29981 28.7999H23.6998C25.9089 28.7999 27.6998 27.0091 27.6998 24.7999V17.2C27.6998 14.9908 25.9089 13.2 23.6998 13.2H12.0998V10.8C12.0998 8.3699 14.0698 6.39995 16.4998 6.39995C18.7297 6.39995 20.5743 8.06015 20.861 10.2113C20.9777 11.0872 21.7823 11.7026 22.6582 11.5859C23.5342 11.4692 24.1496 10.6646 24.0329 9.78864C23.5373 6.06878 20.3549 3.19995 16.4998 3.19995ZM9.29981 16.4C8.85798 16.4 8.4998 16.7581 8.4998 17.2V24.7999C8.4998 25.2418 8.85798 25.5999 9.29981 25.5999H23.6998C24.1416 25.5999 24.4998 25.2418 24.4998 24.7999V17.2C24.4998 16.7581 24.1416 16.4 23.6998 16.4H9.29981Z" fill="#80DEEA"/>
</svg>
