<svg width="80" height="80" viewBox="0 0 80 80" fill="none" xmlns="http://www.w3.org/2000/svg">
<rect width="80" height="80" rx="16" fill="#D8F4F8"/>
<path d="M27.7681 22.9302C31.7173 20.1003 36.5256 18.7272 41.3736 19.045C46.2217 19.3628 50.8096 21.3517 54.3556 24.6729C57.9016 27.9941 60.1864 32.4421 60.8205 37.259C61.4547 42.0759 60.399 46.9636 57.8334 51.0895C55.2678 55.2153 51.351 58.3239 46.7504 59.8856C42.1498 61.4473 37.15 61.3654 32.6029 59.6541C28.0559 57.9427 24.2429 54.7076 21.8136 50.5C20.7091 48.5869 18.2627 47.9314 16.3495 49.0359C14.4364 50.1405 13.7809 52.5869 14.8854 54.5C18.2401 60.3105 23.5056 64.7779 29.7849 67.1413C36.0642 69.5047 42.9687 69.6176 49.3219 67.461C55.6752 65.3044 61.0841 61.0116 64.627 55.314C68.17 49.6164 69.6278 42.8667 68.7521 36.2148C67.8763 29.5629 64.7212 23.4204 59.8244 18.834C54.9275 14.2475 48.5918 11.5009 41.8969 11.0621C35.2019 10.6233 28.562 12.5195 23.1083 16.4275C19.6448 18.9094 16.7959 22.1053 14.733 25.7672L13.8637 22.5229C13.292 20.389 11.0986 19.1227 8.96474 19.6945C6.83088 20.2662 5.56455 22.4596 6.13631 24.5934L9.53331 37.2712C10.1051 39.4051 12.2984 40.6714 14.4323 40.0996L27.7138 36.5409C29.8476 35.9691 31.114 33.7758 30.5422 31.6419C29.9704 29.508 27.7771 28.2417 25.6432 28.8135L21.5885 29.8999C23.0906 27.1618 25.1952 24.774 27.7681 22.9302Z" fill="#80DEEA"/>
<path d="M43.0005 26C43.0005 24.3431 41.6573 23 40.0005 23C38.3436 23 37.0005 24.3431 37.0005 26V34.8027C35.207 35.8401 34.0005 37.7792 34.0005 40C34.0005 43.3137 36.6867 46 40.0005 46C41.2224 46 42.359 45.6347 43.3071 45.0074L48.6588 47.6833C50.1407 48.4242 51.9428 47.8236 52.6837 46.3416C53.4247 44.8597 52.824 43.0577 51.3421 42.3167L45.9899 39.6406C45.8676 37.5711 44.6964 35.7838 43.0005 34.8027V26Z" fill="#80DEEA"/>
</svg>
