<svg width="80" height="80" viewBox="0 0 80 80" fill="none" xmlns="http://www.w3.org/2000/svg">
<path d="M41.5586 77.5999C62.375 77.5999 79.2501 60.7658 79.2501 39.9999C79.2501 19.234 62.375 2.3999 41.5586 2.3999C20.7422 2.3999 3.86719 19.234 3.86719 39.9999C3.86719 60.7658 20.7422 77.5999 41.5586 77.5999Z" fill="#0D55CF"/>
<path d="M39.291 77.5999C60.1074 77.5999 76.9825 60.7658 76.9825 39.9999C76.9825 19.234 60.1074 2.3999 39.291 2.3999C18.4746 2.3999 1.59961 19.234 1.59961 39.9999C1.59961 60.7658 18.4746 77.5999 39.291 77.5999Z" fill="white"/>
<path d="M39.291 68.1998C54.9033 68.1998 67.5596 55.5742 67.5596 39.9998C67.5596 24.4254 54.9033 11.7998 39.291 11.7998C23.6787 11.7998 11.0225 24.4254 11.0225 39.9998C11.0225 55.5742 23.6787 68.1998 39.291 68.1998Z" fill="#DBC7FF"/>
<path d="M39.291 58.7999C49.6992 58.7999 58.1367 50.3829 58.1367 40C58.1367 29.617 49.6992 21.2 39.291 21.2C28.8828 21.2 20.4453 29.617 20.4453 40C20.4453 50.3829 28.8828 58.7999 39.291 58.7999Z" fill="white"/>
<path d="M39.291 49.3999C44.4951 49.3999 48.7139 45.1913 48.7139 39.9999C48.7139 34.8084 44.4951 30.5999 39.291 30.5999C34.0869 30.5999 29.8682 34.8084 29.8682 39.9999C29.8682 45.1913 34.0869 49.3999 39.291 49.3999Z" fill="#DBC7FF"/>
<path d="M55.7812 23.5499H67.5598L76.9827 14.1499H65.2041L55.7812 23.5499Z" fill="#A16BFF"/>
<path d="M55.7812 23.5499V11.7999L65.2041 2.3999V14.1499L55.7812 23.5499Z" fill="#702EE6"/>
<path fill-rule="evenodd" clip-rule="evenodd" d="M69.2256 10.1383C70.1455 11.056 70.1455 12.5439 69.2256 13.4617L40.957 41.6617C40.037 42.5794 38.5455 42.5794 37.6255 41.6617C36.7056 40.7439 36.7056 39.256 37.6255 38.3383L65.8941 10.1383C66.8141 9.22052 68.3056 9.22052 69.2256 10.1383Z" fill="#8743FF"/>
</svg>
