<svg width="80" height="80" viewBox="0 0 80 80" fill="none" xmlns="http://www.w3.org/2000/svg">
<g clip-path="url(#clip0)">
<path d="M40.2354 50.3409L40.0013 40H77.6014V69.6C77.6014 74.0183 74.0196 77.6 69.6013 77.6H40.0013V67.2591C40.0013 66.3191 39.5295 65.6168 38.8539 65.235C38.1783 64.8531 37.2988 64.7907 36.4763 65.1432C35.5363 65.6132 34.5945 65.85 33.4195 65.85C31.892 65.85 30.4848 65.3782 29.3391 64.5557C28.1935 63.7332 27.3123 62.56 26.8423 61.15C26.431 59.9162 26.3438 58.71 26.5164 57.5975C26.689 56.4849 27.1195 55.4669 27.751 54.6003C28.3826 53.7337 29.2134 53.0214 30.1791 52.5257C31.1448 52.03 32.2445 51.75 33.4195 51.75C34.5945 51.75 35.7704 51.9868 36.7104 52.4568C37.5329 52.8093 38.4254 52.747 39.1063 52.365C39.7873 51.9831 40.2568 51.2807 40.2354 50.3409Z" fill="#80DEEA"/>
<path d="M40.0004 40.0006L29.6595 40.2347C28.7197 40.2561 28.0173 39.7866 27.6354 39.1056C27.2534 38.4246 27.1911 37.5322 27.5436 36.7097C28.0136 35.7697 28.2504 34.5938 28.2504 33.4188C28.2504 32.2438 27.9704 31.144 27.4747 30.1783C26.979 29.2126 26.2667 28.3819 25.4001 27.7503C24.5335 27.1188 23.5155 26.6882 22.4029 26.5156C21.2904 26.3431 20.0841 26.4303 18.8504 26.8415C17.4404 27.3115 16.2672 28.1928 15.4447 29.3384C14.6222 30.484 14.1504 31.8913 14.1504 33.4188C14.1504 34.5938 14.3872 35.5356 14.8572 36.4756C15.2097 37.2981 15.1473 38.1775 14.7654 38.8532C14.3836 39.5288 13.6813 40.0006 12.7413 40.0006H2.40039V69.6006C2.40039 74.0189 5.98211 77.6006 10.4004 77.6006H40.0004V67.2597C40.0004 66.3197 39.5286 65.6175 38.8529 65.2356C38.1773 64.8537 37.2979 64.7913 36.4754 65.1438C35.5354 65.6138 34.5936 65.8506 33.4186 65.8506C31.8911 65.8506 30.4838 65.3788 29.3382 64.5563C28.1926 63.7338 27.3113 62.5606 26.8413 61.1506C26.4301 59.9169 26.3429 58.7107 26.5154 57.5981C26.688 56.4855 27.1185 55.4675 27.7501 54.6009C28.3817 53.7343 29.2124 53.022 30.1781 52.5263C31.1438 52.0306 32.2436 51.7506 33.4186 51.7506C34.5936 51.7506 35.7695 51.9875 36.7095 52.4575C37.532 52.81 38.4244 52.7476 39.1054 52.3657C39.7863 51.9837 40.2558 51.2813 40.2345 50.3415L40.0004 40.0006Z" fill="#FFC7C7"/>
<path d="M2.40039 39.9999V10.3999C2.40039 5.98162 5.98212 2.3999 10.4004 2.3999H40.0004V39.9999L29.6595 40.234C28.7197 40.2553 28.0173 39.7859 27.6354 39.1049C27.2534 38.4239 27.1911 37.5315 27.5436 36.709C28.0136 35.769 28.2504 34.5931 28.2504 33.4181C28.2504 32.2431 27.9704 31.1433 27.4747 30.1776C26.979 29.2119 26.2667 28.3812 25.4001 27.7496C24.5335 27.118 23.5155 26.6875 22.4029 26.5149C21.2904 26.3424 20.0841 26.4296 18.8504 26.8408C17.4404 27.3108 16.2672 28.1921 15.4447 29.3377C14.6222 30.4833 14.1504 31.8906 14.1504 33.4181C14.1504 34.5931 14.3872 35.5349 14.8572 36.4749C15.2097 37.2974 15.1473 38.1768 14.7654 38.8524C14.3836 39.5281 13.6813 39.9999 12.7413 39.9999H2.40039Z" fill="#C7F5E5"/>
<path d="M37.65 50.3178V39.9999V37.5999H42.35V39.9999V50.3408C42.35 52.0641 41.357 53.6502 40.0092 54.412C38.6614 55.1738 37.0159 55.2431 35.5479 54.6139L35.4836 54.5864L35.424 54.5588C34.7642 54.229 34.2799 54.0999 33.4182 54.0999C31.3273 54.0999 29.702 55.3023 29.0716 57.1934C28.8842 57.7556 28.8107 58.2868 28.7871 58.7999C28.8107 59.3129 28.8842 59.8441 29.0716 60.4063C29.702 62.2974 31.3273 63.4999 33.4182 63.4999C34.2799 63.4999 34.7642 63.3707 35.424 63.0409L35.4836 63.0133L35.5479 62.9858C37.0159 62.3566 38.6614 62.4259 40.0092 63.1877C41.357 63.9495 42.35 65.5356 42.35 67.2589V77.5999H37.65V67.2819C37.6195 67.2719 37.5563 67.243 37.4182 67.2982C36.2237 67.8751 34.8629 68.1999 33.4182 68.1999C29.3991 68.1999 25.8599 65.6423 24.6103 61.8934C24.2622 60.8492 24.1164 59.811 24.1192 58.7999C24.1164 57.7887 24.2622 56.7505 24.6103 55.7063C25.8599 51.9574 29.3991 49.3999 33.4182 49.3999C34.8628 49.3999 36.2236 49.7245 37.4182 50.3015C37.5563 50.3566 37.6194 50.3276 37.65 50.3178Z" fill="white"/>
<path d="M50.3419 39.7658L40.001 39.9999V2.3999H69.601C74.0192 2.3999 77.601 5.98163 77.601 10.3999V39.9999H67.2601C66.3201 39.9999 65.6178 40.4717 65.2359 41.1474C64.8541 41.823 64.7916 42.7024 65.1441 43.5249C65.6141 44.4649 65.851 45.4067 65.851 46.5817C65.851 48.1092 65.3791 49.5165 64.5566 50.6621C63.7341 51.8077 62.561 52.689 61.151 53.159C59.9172 53.5702 58.711 53.6574 57.5984 53.4849C56.4859 53.3123 55.4678 52.8818 54.6013 52.2502C53.7347 51.6186 53.0224 50.7879 52.5267 49.8222C52.031 48.8565 51.751 47.7567 51.751 46.5817C51.751 45.4067 51.9878 44.2308 52.4578 43.2908C52.8103 42.4683 52.7479 41.5843 52.366 40.9087C51.9841 40.2331 51.2819 39.7658 50.3419 39.7658Z" fill="#FFB59E"/>
<path d="M40 39.9999V2.3999" stroke="white" stroke-width="6"/>
<path d="M21.2004 24.1194C20.1892 24.1166 19.1511 24.2624 18.1068 24.6105C14.3579 25.8602 11.8004 29.3993 11.8004 33.4184C11.8004 34.9068 12.145 36.3061 12.7551 37.5264L12.6954 37.4024C12.7595 37.5517 12.7287 37.6185 12.7184 37.6503H2.40039V42.3503H12.7413C14.4646 42.3503 16.0507 41.3573 16.8125 40.0095C17.5743 38.6617 17.6436 37.0162 17.0145 35.5481L16.9869 35.4839L16.9594 35.4242C16.6295 34.7645 16.5004 34.2801 16.5004 33.4184C16.5004 31.3275 17.7029 29.7022 19.5939 29.0719C20.1562 28.8845 20.6873 28.811 21.2004 28.7873C21.7135 28.811 22.2446 28.8844 22.8068 29.0719C24.6979 29.7022 25.9004 31.3275 25.9004 33.4184C25.9004 34.2801 25.7713 34.7645 25.4414 35.4242L25.4139 35.4839L25.3863 35.5481C24.7572 37.0162 24.8265 38.6617 25.5883 40.0095C26.3501 41.3573 27.9361 42.3503 29.6595 42.3503H40.0004H50.3184C50.3287 42.382 50.3595 42.4488 50.2954 42.5981L50.3551 42.4742C49.745 43.6945 49.4004 45.0938 49.4004 46.5821C49.4004 50.6012 51.9579 54.1404 55.7068 55.39C56.7511 55.7381 57.7892 55.884 58.8004 55.8811C59.8116 55.884 60.8497 55.7381 61.8939 55.39C65.6429 54.1404 68.2004 50.6012 68.2004 46.5821C68.2004 45.0938 67.8558 43.6945 67.2457 42.4742L67.3054 42.5981C67.2414 42.4488 67.2722 42.382 67.2824 42.3503H77.6004V37.6503H67.2595C65.5361 37.6503 63.9501 38.6433 63.1883 39.9911C62.4265 41.3389 62.3572 42.9844 62.9863 44.4524L63.0139 44.5167L63.0414 44.5764C63.3713 45.2361 63.5004 45.7205 63.5004 46.5821C63.5004 48.673 62.2979 50.2983 60.4068 50.9287C59.8446 51.1161 59.3135 51.1896 58.8004 51.2133C58.2873 51.1896 57.7562 51.1161 57.1939 50.9287C55.3029 50.2983 54.1004 48.673 54.1004 46.5821C54.1004 45.7205 54.2295 45.2361 54.5594 44.5764L54.5869 44.5167L54.6145 44.4524C55.2436 42.9844 55.1743 41.3389 54.4125 39.9911C53.6507 38.6433 52.0646 37.6503 50.3413 37.6503H40.0004H29.6824C29.6723 37.6185 29.6413 37.5517 29.7054 37.4024L29.6457 37.5264C30.2557 36.3061 30.6004 34.9068 30.6004 33.4184C30.6004 29.3993 28.0429 25.8602 24.2939 24.6105C23.2497 24.2624 22.2116 24.1166 21.2004 24.1194Z" fill="white"/>
</g>
<ellipse cx="70.3996" cy="9.60005" rx="4.8" ry="4.8" fill="#FF7043"/>
<path fill-rule="evenodd" clip-rule="evenodd" d="M46.4004 9.6C46.4004 8.71634 47.1167 8 48.0004 8H49.6004C52.542 8 55.4548 8.57939 58.1725 9.7051C60.8902 10.8308 63.3596 12.4808 65.4396 14.5608C67.5196 16.6408 69.1696 19.1102 70.2953 21.8279C71.421 24.5456 72.0004 27.4584 72.0004 30.4V32C72.0004 32.8837 71.2841 33.6 70.4004 33.6C69.5167 33.6 68.8004 32.8837 68.8004 32V30.4C68.8004 27.8786 68.3038 25.3819 67.3389 23.0525C66.374 20.723 64.9597 18.6064 63.1768 16.8235C61.394 15.0407 59.2774 13.6264 56.9479 12.6615C54.6185 11.6966 52.1218 11.2 49.6004 11.2H48.0004C47.1167 11.2 46.4004 10.4837 46.4004 9.6ZM48.0004 20.8C47.1167 20.8 46.4004 21.5163 46.4004 22.4C46.4004 23.2837 47.1167 24 48.0004 24H49.6004C50.4409 24 51.2731 24.1655 52.0496 24.4872C52.826 24.8088 53.5316 25.2802 54.1259 25.8745C54.7202 26.4688 55.1916 27.1743 55.5132 27.9508C55.8349 28.7273 56.0004 29.5595 56.0004 30.4V32C56.0004 32.8837 56.7167 33.6 57.6004 33.6C58.484 33.6 59.2004 32.8837 59.2004 32V30.4C59.2004 29.1393 58.9521 27.891 58.4696 26.7262C57.9872 25.5615 57.2801 24.5032 56.3886 23.6118C55.4972 22.7203 54.4389 22.0132 53.2742 21.5308C52.1094 21.0483 50.8611 20.8 49.6004 20.8H48.0004ZM49.6004 33.6C51.3677 33.6 52.8004 32.1673 52.8004 30.4C52.8004 28.6327 51.3677 27.2 49.6004 27.2C47.8331 27.2 46.4004 28.6327 46.4004 30.4C46.4004 32.1673 47.8331 33.6 49.6004 33.6ZM48.0004 14.4C47.1167 14.4 46.4004 15.1163 46.4004 16C46.4004 16.8837 47.1167 17.6 48.0004 17.6H49.6004C51.2813 17.6 52.9458 17.9311 54.4987 18.5743C56.0517 19.2176 57.4628 20.1604 58.6514 21.349C59.8399 22.5376 60.7828 23.9487 61.426 25.5017C62.0693 27.0546 62.4004 28.7191 62.4004 30.4V32C62.4004 32.8837 63.1167 33.6 64.0004 33.6C64.884 33.6 65.6004 32.8837 65.6004 32V30.4C65.6004 28.2988 65.1865 26.2183 64.3825 24.2771C63.5784 22.3359 62.3998 20.572 60.9141 19.0863C59.4284 17.6006 57.6645 16.422 55.7233 15.6179C53.7821 14.8139 51.7015 14.4 49.6004 14.4H48.0004Z" fill="white"/>
<path d="M71.1996 7.1999C71.1996 6.75807 70.8414 6.3999 70.3996 6.3999C69.9578 6.3999 69.5996 6.75807 69.5996 7.1999V9.5999C69.5996 10.0417 69.9578 10.3999 70.3996 10.3999C70.8414 10.3999 71.1996 10.0417 71.1996 9.5999V7.1999Z" fill="white"/>
<path d="M70.3996 12.7999C70.8414 12.7999 71.1996 12.4417 71.1996 11.9999C71.1996 11.5581 70.8414 11.1999 70.3996 11.1999C69.9578 11.1999 69.5996 11.5581 69.5996 11.9999C69.5996 12.4417 69.9578 12.7999 70.3996 12.7999Z" fill="white"/>
<defs>
<clipPath id="clip0">
<rect width="75.2" height="75.2" fill="white" transform="translate(2.40039 2.3999)"/>
</clipPath>
</defs>
</svg>
