<svg width="105" height="24" viewBox="0 0 105 24" fill="none" xmlns="http://www.w3.org/2000/svg">
<path d="M0 24C0 10.7452 10.7452 0 24 0H105V0C105 13.2548 94.2548 24 81 24H0V24Z" fill="#FFEDD6"/>
<path d="M23.958 12.6318C23.9027 13.3968 23.6195 13.999 23.1084 14.4385C22.6006 14.8779 21.93 15.0977 21.0967 15.0977C20.1852 15.0977 19.4674 14.7917 18.9434 14.1797C18.4225 13.5645 18.1621 12.7214 18.1621 11.6504V11.2158C18.1621 10.5322 18.2826 9.93001 18.5234 9.40918C18.7643 8.88835 19.1077 8.48958 19.5537 8.21289C20.0029 7.93294 20.5238 7.79297 21.1162 7.79297C21.9365 7.79297 22.5973 8.0127 23.0986 8.45215C23.5999 8.8916 23.8896 9.50846 23.9678 10.3027H22.5029C22.4671 9.84375 22.3385 9.51172 22.1172 9.30664C21.8991 9.09831 21.5654 8.99414 21.1162 8.99414C20.6279 8.99414 20.2617 9.16992 20.0176 9.52148C19.7767 9.86979 19.653 10.4118 19.6465 11.1475V11.6846C19.6465 12.4528 19.762 13.0143 19.9932 13.3691C20.2275 13.724 20.5954 13.9014 21.0967 13.9014C21.5492 13.9014 21.8861 13.7988 22.1074 13.5938C22.332 13.3854 22.4606 13.0648 22.4932 12.6318H23.958ZM30.8598 11.6064C30.8598 12.3063 30.7361 12.9199 30.4887 13.4473C30.2413 13.9746 29.8865 14.3815 29.4242 14.668C28.9652 14.9544 28.4379 15.0977 27.8422 15.0977C27.253 15.0977 26.7273 14.9561 26.265 14.6729C25.8028 14.3896 25.4447 13.986 25.1908 13.4619C24.9369 12.9346 24.8083 12.3291 24.8051 11.6455V11.2939C24.8051 10.5941 24.9304 9.97884 25.1811 9.44824C25.435 8.91439 25.7914 8.50586 26.2504 8.22266C26.7126 7.9362 27.24 7.79297 27.8324 7.79297C28.4249 7.79297 28.9506 7.9362 29.4096 8.22266C29.8718 8.50586 30.2283 8.91439 30.4789 9.44824C30.7328 9.97884 30.8598 10.5924 30.8598 11.2891V11.6064ZM29.3754 11.2842C29.3754 10.5387 29.2419 9.97233 28.975 9.58496C28.7081 9.19759 28.3272 9.00391 27.8324 9.00391C27.3409 9.00391 26.9617 9.19596 26.6947 9.58008C26.4278 9.96094 26.2927 10.5208 26.2895 11.2598V11.6064C26.2895 12.3324 26.4229 12.8955 26.6898 13.2959C26.9568 13.6963 27.3409 13.8965 27.8422 13.8965C28.3337 13.8965 28.7113 13.7044 28.975 13.3203C29.2387 12.9329 29.3721 12.3698 29.3754 11.6309V11.2842ZM33.9383 7.89062L35.7645 13.0469L37.5809 7.89062H39.5047V15H38.035V13.0566L38.1814 9.70215L36.2625 15H35.2566L33.3426 9.70703L33.4891 13.0566V15H32.0242V7.89062H33.9383ZM42.4416 15H40.9768V7.89062H42.4416V15ZM49.6852 15H48.2203L45.3687 10.3223V15H43.9039V7.89062H45.3687L48.2252 12.5781V7.89062H49.6852V15ZM56.6895 14.1016C56.4258 14.4173 56.0531 14.6631 55.5713 14.8389C55.0895 15.0114 54.5557 15.0977 53.9697 15.0977C53.3545 15.0977 52.8141 14.9642 52.3486 14.6973C51.8864 14.4271 51.5283 14.0365 51.2744 13.5254C51.0238 13.0143 50.8952 12.4137 50.8887 11.7236V11.2402C50.8887 10.5306 51.0075 9.91699 51.2451 9.39941C51.486 8.87858 51.8311 8.48145 52.2803 8.20801C52.7327 7.93132 53.2617 7.79297 53.8672 7.79297C54.7103 7.79297 55.3695 7.99479 55.8447 8.39844C56.32 8.79883 56.6016 9.38314 56.6895 10.1514H55.2637C55.1986 9.74447 55.0537 9.44661 54.8291 9.25781C54.6077 9.06901 54.3018 8.97461 53.9111 8.97461C53.4131 8.97461 53.0339 9.16178 52.7734 9.53613C52.513 9.91048 52.3812 10.4671 52.3779 11.2061V11.6602C52.3779 12.4056 52.5195 12.9688 52.8027 13.3496C53.0859 13.7305 53.501 13.9209 54.0479 13.9209C54.598 13.9209 54.9902 13.8037 55.2246 13.5693V12.3438H53.8916V11.2646H56.6895V14.1016ZM64.2576 13.1348C64.2576 12.8581 64.16 12.6465 63.9646 12.5C63.7693 12.3503 63.4178 12.194 62.91 12.0312C62.4021 11.8652 62.0001 11.7025 61.7039 11.543C60.8966 11.1068 60.493 10.5192 60.493 9.78027C60.493 9.39616 60.6004 9.05436 60.8152 8.75488C61.0333 8.45215 61.3442 8.21615 61.7479 8.04688C62.1548 7.8776 62.6105 7.79297 63.115 7.79297C63.6229 7.79297 64.0753 7.88574 64.4725 8.07129C64.8696 8.25358 65.1772 8.51237 65.3953 8.84766C65.6167 9.18294 65.7273 9.5638 65.7273 9.99023H64.2625C64.2625 9.66471 64.16 9.41243 63.9549 9.2334C63.7498 9.05111 63.4617 8.95996 63.0906 8.95996C62.7326 8.95996 62.4542 9.03646 62.2557 9.18945C62.0571 9.33919 61.9578 9.53776 61.9578 9.78516C61.9578 10.0163 62.0734 10.21 62.3045 10.3662C62.5389 10.5225 62.8823 10.6689 63.3348 10.8057C64.1681 11.0563 64.7752 11.3672 65.1561 11.7383C65.5369 12.1094 65.7273 12.5716 65.7273 13.125C65.7273 13.7402 65.4946 14.2236 65.0291 14.5752C64.5636 14.9235 63.937 15.0977 63.1492 15.0977C62.6023 15.0977 62.1043 14.9984 61.6551 14.7998C61.2059 14.598 60.8624 14.3229 60.6248 13.9746C60.3904 13.6263 60.2732 13.2227 60.2732 12.7637H61.743C61.743 13.5482 62.2117 13.9404 63.1492 13.9404C63.4975 13.9404 63.7693 13.8704 63.9646 13.7305C64.16 13.5872 64.2576 13.3887 64.2576 13.1348ZM72.6633 11.6064C72.6633 12.3063 72.5396 12.9199 72.2922 13.4473C72.0448 13.9746 71.69 14.3815 71.2277 14.668C70.7687 14.9544 70.2414 15.0977 69.6457 15.0977C69.0565 15.0977 68.5308 14.9561 68.0686 14.6729C67.6063 14.3896 67.2482 13.986 66.9943 13.4619C66.7404 12.9346 66.6118 12.3291 66.6086 11.6455V11.2939C66.6086 10.5941 66.7339 9.97884 66.9846 9.44824C67.2385 8.91439 67.5949 8.50586 68.0539 8.22266C68.5161 7.9362 69.0435 7.79297 69.6359 7.79297C70.2284 7.79297 70.7541 7.9362 71.2131 8.22266C71.6753 8.50586 72.0318 8.91439 72.2824 9.44824C72.5363 9.97884 72.6633 10.5924 72.6633 11.2891V11.6064ZM71.1789 11.2842C71.1789 10.5387 71.0454 9.97233 70.7785 9.58496C70.5116 9.19759 70.1307 9.00391 69.6359 9.00391C69.1444 9.00391 68.7652 9.19596 68.4982 9.58008C68.2313 9.96094 68.0962 10.5208 68.093 11.2598V11.6064C68.093 12.3324 68.2264 12.8955 68.4934 13.2959C68.7603 13.6963 69.1444 13.8965 69.6457 13.8965C70.1372 13.8965 70.5148 13.7044 70.7785 13.3203C71.0422 12.9329 71.1757 12.3698 71.1789 11.6309V11.2842ZM79.6676 11.6064C79.6676 12.3063 79.5439 12.9199 79.2965 13.4473C79.0491 13.9746 78.6943 14.3815 78.232 14.668C77.773 14.9544 77.2457 15.0977 76.65 15.0977C76.0608 15.0977 75.5351 14.9561 75.0729 14.6729C74.6106 14.3896 74.2525 13.986 73.9986 13.4619C73.7447 12.9346 73.6161 12.3291 73.6129 11.6455V11.2939C73.6129 10.5941 73.7382 9.97884 73.9889 9.44824C74.2428 8.91439 74.5992 8.50586 75.0582 8.22266C75.5204 7.9362 76.0478 7.79297 76.6402 7.79297C77.2327 7.79297 77.7584 7.9362 78.2174 8.22266C78.6796 8.50586 79.0361 8.91439 79.2867 9.44824C79.5406 9.97884 79.6676 10.5924 79.6676 11.2891V11.6064ZM78.1832 11.2842C78.1832 10.5387 78.0497 9.97233 77.7828 9.58496C77.5159 9.19759 77.135 9.00391 76.6402 9.00391C76.1487 9.00391 75.7695 9.19596 75.5025 9.58008C75.2356 9.96094 75.1005 10.5208 75.0973 11.2598V11.6064C75.0973 12.3324 75.2307 12.8955 75.4977 13.2959C75.7646 13.6963 76.1487 13.8965 76.65 13.8965C77.1415 13.8965 77.5191 13.7044 77.7828 13.3203C78.0465 12.9329 78.1799 12.3698 78.1832 11.6309V11.2842ZM86.6133 15H85.1484L82.2969 10.3223V15H80.832V7.89062H82.2969L85.1533 12.5781V7.89062H86.6133V15Z" fill="#F58E0A"/>
</svg>
