<svg width="2648" height="1207" viewBox="0 0 2648 1207" fill="none" xmlns="http://www.w3.org/2000/svg">
<path d="M2648 163V1046.85L1816.19 1204.51C1810.99 1205.5 1805.67 1205.74 1800.4 1205.24L0.5 1032.36V181L673.777 2.47815C679.962 0.838135 686.382 0.270386 692.759 0.799316L2648 163Z" fill="url(#paint0_linear)"/>
<rect opacity="0.08" x="2024.52" y="593.379" width="33.483" height="33.483" rx="6" transform="rotate(31.5023 2024.52 593.379)" fill="#45AFFC"/>
<rect opacity="0.08" x="717.775" y="741.783" width="21.7943" height="21.7943" rx="8" transform="rotate(54.6507 717.775 741.783)" fill="#45AFFC"/>
<path opacity="0.08" d="M678.123 773.658C687.175 771.834 694.808 780.492 691.862 789.244L681.919 818.78C678.973 827.532 667.657 829.812 661.552 822.885L640.944 799.506C634.838 792.579 638.521 781.639 647.573 779.815L678.123 773.658Z" fill="#ADF0D9"/>
<path opacity="0.08" d="M287.123 225.875C296.175 224.05 303.808 232.709 300.862 241.461L290.919 270.997C287.973 279.748 276.657 282.029 270.552 275.102L249.944 251.723C243.838 244.796 247.521 233.856 256.573 232.032L287.123 225.875Z" fill="#ADF0D9"/>
<path opacity="0.08" d="M192.123 473.875C201.175 472.05 208.808 480.709 205.862 489.461L195.919 518.997C192.973 527.748 181.657 530.029 175.552 523.102L154.944 499.723C148.838 492.796 152.521 481.856 161.573 480.032L192.123 473.875Z" fill="#ADF0D9"/>
<path opacity="0.08" d="M2013.09 143.023C2016 141.943 2018.99 144.416 2018.47 147.476L2016.72 157.802C2016.2 160.861 2012.57 162.212 2010.18 160.233L2002.11 153.555C1999.72 151.576 2000.37 147.751 2003.28 146.671L2013.09 143.023Z" fill="#ADF0D9"/>
<circle opacity="0.08" cx="1616" cy="138" r="25" fill="#48CADA"/>
<circle opacity="0.08" cx="2346.5" cy="924.5" r="14.5" fill="#48CADA"/>
<circle opacity="0.08" cx="1279" cy="578" r="25" fill="#48CADA"/>
<circle opacity="0.08" cx="617" cy="440" r="11" fill="#06EEC1"/>
<circle opacity="0.08" cx="198" cy="509" r="11" fill="#06EEC1"/>
<circle opacity="0.08" cx="184.5" cy="468.5" r="23.5" fill="#06EEC1"/>
<circle opacity="0.08" cx="360.5" cy="560.5" r="17.5" fill="#06EEC1"/>
<circle opacity="0.08" cx="1995.5" cy="214.283" r="33.5" fill="#1DE686"/>
<circle opacity="0.08" cx="636.5" cy="754.283" r="40.5" fill="#1DE686"/>
<circle opacity="0.08" cx="255.5" cy="872.5" r="40.5" fill="#1DE686"/>
<path opacity="0.08" d="M2007.34 557.455C2022.85 554.328 2035.93 569.169 2030.88 584.168L2013.84 634.791C2008.79 649.791 1989.4 653.699 1978.93 641.827L1943.61 601.757C1933.15 589.884 1939.46 571.135 1954.98 568.008L2007.34 557.455Z" fill="#ADF0D9"/>
<path opacity="0.08" d="M2399.39 319.853C2407.89 318.139 2415.06 326.273 2412.3 334.495L2402.96 362.242C2400.19 370.463 2389.56 372.606 2383.82 366.098L2364.46 344.135C2358.73 337.628 2362.19 327.351 2370.69 325.637L2399.39 319.853Z" fill="#ADF0D9"/>
<path opacity="0.08" d="M2373.3 903.132C2379.31 901.921 2384.37 907.668 2382.42 913.476L2375.82 933.077C2373.87 938.885 2366.36 940.399 2362.3 935.801L2348.63 920.286C2344.58 915.689 2347.02 908.429 2353.03 907.218L2373.3 903.132Z" fill="#ADF0D9"/>
<path opacity="0.08" d="M1328.36 557.447C1340.4 555.021 1350.55 566.538 1346.63 578.179L1333.41 617.466C1329.49 629.107 1314.44 632.14 1306.32 622.926L1278.91 591.829C1270.78 582.615 1275.68 568.064 1287.72 565.637L1328.36 557.447Z" fill="#ADF0D9"/>
<rect opacity="0.08" x="2036.07" y="173.783" width="34.0389" height="34.0389" rx="4" transform="rotate(45 2036.07 173.783)" fill="#FFB59E"/>
<rect opacity="0.08" x="2349.58" y="796.452" width="60.2507" height="60.2507" rx="16" transform="rotate(30 2349.58 796.452)" fill="#FFB59E"/>
<rect opacity="0.08" x="603.582" y="331" width="83.1654" height="83.1654" rx="12" transform="rotate(30 603.582 331)" fill="#FFB59E"/>
<rect opacity="0.08" x="2434.58" y="247" width="83.1654" height="83.1654" rx="12" transform="rotate(30 2434.58 247)" fill="#FFB59E"/>
<rect opacity="0.08" x="214.83" y="831.902" width="41.5106" height="41.5106" rx="12" transform="rotate(30 214.83 831.902)" fill="#FFB59E"/>
<rect opacity="0.08" x="333.59" y="192.938" width="65.4651" height="65.4651" rx="12" transform="rotate(66.3814 333.59 192.938)" fill="#FFB59E"/>
<defs>
<linearGradient id="paint0_linear" x1="1062.2" y1="10.778" x2="1062.2" y2="1034.35" gradientUnits="userSpaceOnUse">
<stop stop-color="#0D55CF"/>
<stop offset="0.711412" stop-color="#308CF5"/>
<stop offset="1" stop-color="#2D95FF"/>
</linearGradient>
</defs>
</svg>
