<svg width="100" height="100" fill="none" xmlns="http://www.w3.org/2000/svg"><path d="M14 4a8 8 0 00-8 8v76a8 8 0 008 8h76a8 8 0 008-8V12a8 8 0 00-8-8H14zm2.063 5.75a4.313 4.313 0 110 8.626 4.313 4.313 0 010-8.626zm14.375 0a4.313 4.313 0 110 8.626 4.313 4.313 0 010-8.626zm14.375 0a4.313 4.313 0 110 8.626 4.313 4.313 0 010-8.626zm14.374 0a4.313 4.313 0 110 8.626 4.313 4.313 0 010-8.626zm14.376 0a4.313 4.313 0 110 8.626 4.313 4.313 0 010-8.626zm14.374 0a4.313 4.313 0 110 8.626 4.313 4.313 0 010-8.626z" fill="#5AACFF"/><path d="M12 4a8 8 0 00-8 8v76a8 8 0 008 8h76a8 8 0 008-8V12a8 8 0 00-8-8H12zm2.063 5.75a4.313 4.313 0 110 8.626 4.313 4.313 0 010-8.626zm14.374 0a4.313 4.313 0 110 8.626 4.313 4.313 0 010-8.626zm14.375 0a4.313 4.313 0 110 8.626 4.313 4.313 0 010-8.626zm14.376 0a4.313 4.313 0 110 8.626 4.313 4.313 0 010-8.626zm14.374 0a4.313 4.313 0 110 8.626 4.313 4.313 0 010-8.626zm14.376 0a4.313 4.313 0 110 8.626 4.313 4.313 0 010-8.626z" fill="#A3D1FF"/><path d="M10 4a8 8 0 00-8 8v76a8 8 0 008 8h76a8 8 0 008-8V12a8 8 0 00-8-8H10zm2.063 5.75a4.313 4.313 0 110 8.626 4.313 4.313 0 010-8.626zm14.374 0a4.313 4.313 0 110 8.626 4.313 4.313 0 010-8.626zm14.375 0a4.313 4.313 0 110 8.626 4.313 4.313 0 010-8.626zm14.376 0a4.313 4.313 0 110 8.626 4.313 4.313 0 010-8.626zm14.374 0a4.313 4.313 0 110 8.626 4.313 4.313 0 010-8.626zm14.376 0a4.313 4.313 0 110 8.626 4.313 4.313 0 010-8.626z" fill="#fff"/><path fill-rule="evenodd" clip-rule="evenodd" d="M12.105 29.985c-.797 0-1.443.646-1.443 1.444v8.661c0 .797.646 1.444 1.443 1.444h8.662c.797 0 1.444-.647 1.444-1.444v-8.662c0-.797-.647-1.443-1.444-1.443h-8.662zm-4.33 1.444a4.33 4.33 0 014.33-4.331h8.662a4.33 4.33 0 014.33 4.33v8.662a4.33 4.33 0 01-4.33 4.331h-8.662a4.33 4.33 0 01-4.33-4.33v-8.663z" fill="#A3D1FF"/><path d="M79.955 27.098H33.76a2.887 2.887 0 000 5.774h46.195a2.887 2.887 0 000-5.774zm5.775 23.097H33.76a2.887 2.887 0 000 5.775h51.97a2.887 2.887 0 100-5.775zM68.406 73.293H33.76a2.887 2.887 0 000 5.774h34.647a2.887 2.887 0 000-5.774zm-17.323 8.662H33.76a2.887 2.887 0 000 5.775h17.323a2.887 2.887 0 100-5.775zm-5.775-23.098H33.76a2.887 2.887 0 000 5.775h11.548a2.887 2.887 0 000-5.775zM56.857 35.76H33.76a2.887 2.887 0 000 5.774h23.097a2.887 2.887 0 000-5.774z" fill="#C6CDD2"/><path fill-rule="evenodd" clip-rule="evenodd" d="M12.105 76.18c-.797 0-1.443.646-1.443 1.444v8.661c0 .798.646 1.444 1.443 1.444h8.662c.797 0 1.444-.646 1.444-1.444v-8.661c0-.797-.647-1.444-1.444-1.444h-8.662zm-4.33 1.444a4.33 4.33 0 014.33-4.331h8.662a4.33 4.33 0 014.33 4.33v8.662a4.33 4.33 0 01-4.33 4.331h-8.662a4.33 4.33 0 01-4.33-4.33v-8.662z" fill="#C6CDD2"/><path fill-rule="evenodd" clip-rule="evenodd" d="M12.105 53.083c-.797 0-1.443.646-1.443 1.443v8.662c0 .797.646 1.443 1.443 1.443h8.662c.797 0 1.444-.646 1.444-1.443v-8.662c0-.797-.647-1.444-1.444-1.444h-8.662zm-4.33 1.443a4.33 4.33 0 014.33-4.33h8.662a4.33 4.33 0 014.33 4.33v8.662a4.33 4.33 0 01-4.33 4.33h-8.662a4.33 4.33 0 01-4.33-4.33v-8.662z" fill="#A3D1FF"/><path fill-rule="evenodd" clip-rule="evenodd" d="M26.119 28.964a1.444 1.444 0 010 2.042l-8.662 8.662a1.444 1.444 0 01-2.042 0l-2.887-2.888a1.443 1.443 0 112.042-2.041l1.866 1.866 7.641-7.64a1.444 1.444 0 012.042 0zm0 23.098a1.444 1.444 0 010 2.042l-8.662 8.661a1.444 1.444 0 01-2.042 0l-2.887-2.887a1.444 1.444 0 112.042-2.042l1.866 1.867 7.641-7.641a1.443 1.443 0 012.042 0z" fill="#09D693"/></svg>