<svg width="100" height="100" fill="none" xmlns="http://www.w3.org/2000/svg"><rect x="7" y="9" width="87" height="89" rx="8" fill="#5AACFF"/><path d="M86 12H15c-2.761 0-5 2.214-5 4.976v73.03A4.995 4.995 0 0015 95h71a5 5 0 005-5V17a5 5 0 00-5-5z" fill="#fff"/><path fill-rule="evenodd" clip-rule="evenodd" d="M57.713 9.542a7.125 7.125 0 10-14.226 0H39.2a5.688 5.688 0 00-5.7 5.7v1.7a4 4 0 004 4h26.2a4 4 0 004-4v-1.7c0-3.158-2.542-5.7-5.7-5.7h-4.287zm-4.293 0a2.85 2.85 0 10-5.64-.834 2.85 2.85 0 005.64.834z" fill="#152560"/><path d="M79.1 29.707h-57a2.85 2.85 0 000 5.7h57a2.85 2.85 0 000-5.7zm0 11.4h-57a2.85 2.85 0 000 5.7h57a2.85 2.85 0 000-5.7zm0 11.4h-57a2.85 2.85 0 000 5.7h57a2.85 2.85 0 000-5.7zm0 11.4h-57a2.85 2.85 0 000 5.7h57a2.85 2.85 0 000-5.7zm-48.45 11.4H22.1a2.85 2.85 0 000 5.7h8.55a2.85 2.85 0 000-5.7z" fill="#C6CDD2"/><path d="M78.45 22.057l-6.425 6.425 12.082 12.082 6.425-6.425a8 8 0 000-11.314l-.768-.768a8 8 0 00-11.314 0z" fill="#FB70A1"/><path d="M90.146 22.442l-12.08 12.08 6.04 6.041 6.424-6.424a8 8 0 000-11.314l-.384-.383z" fill="#FA4C8A"/><path d="M76.052 24.456L35.778 64.729l-4.027 16.11 16.11-4.028 40.273-40.273-12.082-12.082z" fill="#FFAE47"/><path d="M82.093 30.501L40.293 72.3l7.565 4.516 40.275-40.275-6.04-6.04z" fill="#F69B28"/><path d="M35.779 64.73L31.75 80.838l16.11-4.028v-2.027a2 2 0 00-2-2h-2.028v-2.027a2 2 0 00-2-2h-2.027v-2.028a2 2 0 00-2-2h-2.027z" fill="#FF7043"/><path d="M34.17 71.175l-2.415 9.667 9.667-2.415-7.252-7.252z" fill="#091540"/><path d="M76.052 24.46l-8.054 8.054L80.08 44.596l8.055-8.054-12.083-12.083z" fill="#1A3289"/><path d="M82.093 30.496l-8.054 8.054 6.04 6.04 8.054-8.054-6.04-6.04z" fill="#152560"/></svg>