<svg width="80" height="80" fill="none" xmlns="http://www.w3.org/2000/svg"><rect width="80" height="80" rx="16" fill="#D8F4F8"/><path d="M27.768 22.93a21 21 0 11-5.954 27.57 4 4 0 00-6.929 4 29 29 0 10-.152-28.733l-.87-3.244a4 4 0 10-7.727 2.07l3.397 12.678a4 4 0 004.9 2.829l13.28-3.56a4 4 0 00-2.07-7.726L21.588 29.9a21 21 0 016.18-6.97z" fill="#80DEEA"/><path d="M43 26a3 3 0 00-6 0v8.803a6 6 0 106.307 10.205l5.352 2.675a3 3 0 002.683-5.366L45.99 39.64A6 6 0 0043 34.803V26z" fill="#80DEEA"/></svg>