<svg width="100" height="100" fill="none" xmlns="http://www.w3.org/2000/svg"><g clip-path="url(#5_Feed_(100x100)_svg__5_Feed_(100x100)"><path d="M50.294 62.926L50 50h47v39a8 8 0 01-8 8H50V84.074c0-1.175-.59-2.053-1.434-2.53-.845-.478-1.944-.556-2.972-.115-1.175.587-2.352.883-3.821.883-1.91 0-3.669-.59-5.1-1.617a8.535 8.535 0 01-3.122-4.257c-.514-1.543-.623-3.05-.407-4.441a8.57 8.57 0 011.543-3.747 8.633 8.633 0 013.035-2.593 8.836 8.836 0 014.05-.97c1.47 0 2.94.297 4.114.884 1.029.44 2.144.363 2.995-.115.851-.477 1.438-1.355 1.412-2.53z" fill="#80DEEA"/><path d="M50 50l-12.926.294c-1.175.026-2.053-.56-2.53-1.412-.478-.851-.556-1.967-.115-2.995.587-1.175.883-2.645.883-4.113 0-1.47-.35-2.844-.97-4.05a8.633 8.633 0 00-2.592-3.036 8.57 8.57 0 00-3.747-1.543c-1.39-.216-2.898-.107-4.44.407a8.536 8.536 0 00-4.258 3.121 8.696 8.696 0 00-1.617 5.1c0 1.47.296 2.647.883 3.822.44 1.028.363 2.127-.115 2.972-.477.844-1.355 1.434-2.53 1.434H3v39a8 8 0 008 8h39V84.075c0-1.175-.59-2.053-1.434-2.53-.845-.478-1.944-.556-2.972-.115-1.175.587-2.352.883-3.821.883-1.91 0-3.669-.59-5.1-1.618a8.536 8.536 0 01-3.122-4.257c-.514-1.542-.623-3.05-.407-4.44a8.571 8.571 0 011.543-3.747 8.633 8.633 0 013.035-2.593 8.835 8.835 0 014.05-.97c1.47 0 2.94.296 4.114.884 1.028.44 2.144.363 2.995-.115.851-.477 1.438-1.355 1.412-2.53L50 50.001z" fill="#FFC7C7"/><path d="M3 50V11a8 8 0 018-8h39v47l-12.926.293c-1.175.026-2.053-.56-2.53-1.412-.478-.851-.556-1.967-.115-2.995.587-1.175.883-2.645.883-4.113 0-1.469-.35-2.844-.97-4.05a8.633 8.633 0 00-2.592-3.036 8.57 8.57 0 00-3.747-1.543c-1.39-.216-2.898-.107-4.44.407a8.536 8.536 0 00-4.258 3.121 8.697 8.697 0 00-1.617 5.1c0 1.47.296 2.647.883 3.822.44 1.028.363 2.127-.115 2.972-.477.844-1.355 1.434-2.53 1.434H3z" fill="#C7F5E5"/><path d="M47.063 62.898V47h5.875v15.926c0 2.154-1.242 4.137-2.926 5.09-1.685.951-3.742 1.038-5.577.252l-.08-.035-.075-.034c-.825-.413-1.43-.574-2.507-.574-2.614 0-4.645 1.503-5.433 3.867a7.291 7.291 0 00-.356 2.008c.03.641.121 1.305.356 2.008.788 2.364 2.82 3.867 5.433 3.867 1.077 0 1.682-.161 2.507-.574l.075-.034.08-.035c1.835-.786 3.892-.7 5.577.253 1.684.952 2.926 2.935 2.926 5.089V97h-5.875V84.103c-.038-.013-.117-.05-.29.02a11.479 11.479 0 01-5 1.127c-5.024 0-9.448-3.197-11.01-7.883a12.045 12.045 0 01-.614-3.867 12.045 12.045 0 01.614-3.867c1.562-4.686 5.986-7.883 11.01-7.883 1.806 0 3.507.406 5 1.127.173.069.252.033.29.02z" fill="#fff"/><path d="M62.926 49.707L50 50V3h39a8 8 0 018 8v39H84.074c-1.175 0-2.053.59-2.53 1.434-.477.845-.556 1.944-.115 2.972.588 1.175.884 2.352.884 3.821 0 1.91-.59 3.669-1.618 5.1a8.536 8.536 0 01-4.257 3.122c-1.543.514-3.05.623-4.441.407a8.57 8.57 0 01-3.746-1.543 8.634 8.634 0 01-2.594-3.035 8.836 8.836 0 01-.97-4.05c0-1.47.297-2.94.884-4.114.44-1.028.363-2.133-.115-2.978-.477-.845-1.355-1.429-2.53-1.429z" fill="#FFB59E"/><path d="M50 50V3" stroke="#fff" stroke-width="6"/><path d="M26.5 30.15a12.045 12.045 0 00-3.867.613c-4.686 1.562-7.883 5.986-7.883 11.01 0 1.86.43 3.61 1.193 5.135l-.074-.155c.08.187.041.27.029.31H3v5.875h12.926c2.154 0 4.137-1.241 5.09-2.926.951-1.685 1.038-3.742.252-5.577l-.035-.08-.034-.075c-.413-.824-.574-1.43-.574-2.507 0-2.613 1.503-4.645 3.867-5.433a7.294 7.294 0 012.008-.356 7.29 7.29 0 012.008.356c2.364.788 3.867 2.82 3.867 5.433 0 1.077-.161 1.683-.574 2.507l-.034.075-.035.08c-.786 1.835-.7 3.892.253 5.577.952 1.685 2.935 2.926 5.089 2.926h25.824c.012.04.05.123-.03.31l.075-.155a11.464 11.464 0 00-1.193 5.135c0 5.024 3.197 9.448 7.883 11.01a12.05 12.05 0 003.867.614 12.05 12.05 0 003.867-.614c4.686-1.562 7.883-5.986 7.883-11.01 0-1.86-.43-3.61-1.193-5.135l.074.155c-.08-.187-.041-.27-.028-.31H97v-5.875H84.074c-2.154 0-4.137 1.241-5.09 2.926-.951 1.685-1.038 3.742-.252 5.577l.035.08.034.075c.413.824.574 1.43.574 2.507 0 2.614-1.503 4.645-3.867 5.433a7.294 7.294 0 01-2.008.356 7.294 7.294 0 01-2.008-.356c-2.364-.788-3.867-2.82-3.867-5.433 0-1.077.161-1.683.574-2.507l.034-.075.035-.08c.786-1.835.7-3.892-.253-5.577-.952-1.685-2.935-2.926-5.089-2.926H37.102c-.012-.04-.05-.123.03-.31l-.075.155a11.464 11.464 0 001.193-5.135c0-5.024-3.197-9.448-7.883-11.01a12.045 12.045 0 00-3.867-.614z" fill="#fff"/></g><circle cx="88" cy="12" r="6" fill="#FF7043"/><path fill-rule="evenodd" clip-rule="evenodd" d="M58 12a2 2 0 012-2h2a27.999 27.999 0 0128 28v2a2 2 0 11-4 0v-2a24 24 0 00-24-24h-2a2 2 0 01-2-2zm2 14a2 2 0 100 4h2a7.999 7.999 0 018 8v2a2 2 0 104 0v-2a12 12 0 00-12-12h-2zm2 16a4 4 0 100-8 4 4 0 000 8zm-2-24a2 2 0 100 4h2a16.001 16.001 0 0116 16v2a2 2 0 104 0v-2a20 20 0 00-20-20h-2z" fill="#fff"/><path d="M89 9a1 1 0 10-2 0v3a1 1 0 102 0V9zm-1 7a1 1 0 100-2 1 1 0 000 2z" fill="#fff"/><defs><clipPath id="5_Feed_(100x100)_svg__5_Feed_(100x100)_svg__5_Feed_(100x100)_svg__5_Feed_(100x100)_svg__5_Feed_(100x100)_svg__5_Feed_(100x100)_svg__5_Feed_(100x100)_svg__5_Feed_(100x100)_svg__5_Feed_(100x100)_svg__5_Feed_(100x100)_svg__5_Feed_(100x100)_svg__5_Feed_(100x100)_svg__5_Feed_(100x100)_svg__5_Feed_(100x100)_svg__5_Feed_(100x100)_svg__5_Feed_(100x100)_svg__5_Feed_(100x100)_svg__5_Feed_(100x100)_svg__5_Feed_(100x100)_svg__5_Feed_(100x100)_svg__5_Feed_(100x100)_svg__5_Feed_(100x100)_svg__5_Feed_(100x100)_svg__5_Feed_(100x100)_svg__5_Feed_(100x100)_svg__clip0"><path fill="#fff" transform="translate(3 3)" d="M0 0h94v94H0z"/></clipPath></defs></svg>