<?xml version="1.0" encoding="UTF-8" standalone="no"?>
<svg
   xmlns:dc="http://purl.org/dc/elements/1.1/"
   xmlns:cc="http://creativecommons.org/ns#"
   xmlns:rdf="http://www.w3.org/1999/02/22-rdf-syntax-ns#"
   xmlns:svg="http://www.w3.org/2000/svg"
   xmlns="http://www.w3.org/2000/svg"
   xmlns:sodipodi="http://sodipodi.sourceforge.net/DTD/sodipodi-0.dtd"
   xmlns:inkscape="http://www.inkscape.org/namespaces/inkscape"
   width="24"
   height="24"
   viewBox="0 0 24 24"
   fill="none"
   version="1.1"
   id="svg12"
   sodipodi:docname="clear-formatting.svg"
   inkscape:version="0.92.4 (5da689c313, 2019-01-14)">
  <metadata
     id="metadata18">
    <rdf:RDF>
      <cc:Work
         rdf:about="">
        <dc:format>image/svg+xml</dc:format>
        <dc:type
           rdf:resource="http://purl.org/dc/dcmitype/StillImage" />
      </cc:Work>
    </rdf:RDF>
  </metadata>
  <defs
     id="defs16" />
  <sodipodi:namedview
     pagecolor="#ffffff"
     bordercolor="#666666"
     borderopacity="1"
     objecttolerance="10"
     gridtolerance="10"
     guidetolerance="10"
     inkscape:pageopacity="0"
     inkscape:pageshadow="2"
     inkscape:window-width="716"
     inkscape:window-height="480"
     id="namedview14"
     showgrid="false"
     inkscape:zoom="9.8333333"
     inkscape:cx="-8.4372042"
     inkscape:cy="16.613129"
     inkscape:window-x="0"
     inkscape:window-y="0"
     inkscape:window-maximized="0"
     inkscape:current-layer="svg12" />
  <path
     style="color:#000000;font-style:normal;font-variant:normal;font-weight:normal;font-stretch:normal;font-size:medium;line-height:normal;font-family:sans-serif;font-variant-ligatures:normal;font-variant-position:normal;font-variant-caps:normal;font-variant-numeric:normal;font-variant-alternates:normal;font-feature-settings:normal;text-indent:0;text-align:start;text-decoration:none;text-decoration-line:none;text-decoration-style:solid;text-decoration-color:#000000;letter-spacing:normal;word-spacing:normal;text-transform:none;writing-mode:lr-tb;direction:ltr;text-orientation:mixed;dominant-baseline:auto;baseline-shift:baseline;text-anchor:start;white-space:normal;shape-padding:0;clip-rule:nonzero;display:inline;overflow:visible;visibility:visible;opacity:1;isolation:auto;mix-blend-mode:normal;color-interpolation:sRGB;color-interpolation-filters:linearRGB;solid-color:#000000;solid-opacity:1;vector-effect:none;fill:#8a94a6;fill-opacity:1;fill-rule:nonzero;stroke:none;stroke-width:2;stroke-linecap:round;stroke-linejoin:round;stroke-miterlimit:4;stroke-dasharray:none;stroke-dashoffset:0;stroke-opacity:1;color-rendering:auto;image-rendering:auto;shape-rendering:auto;text-rendering:auto;enable-background:accumulate"
     d="M 3 3 C 2.4477381 3.0000552 2.0000552 3.4477381 2 4 L 2 7 C 1.9808748 8.3523227 4.0191252 8.3523227 4 7 L 4 5 L 10 5 L 10 19 L 9 19 C 7.6476773 18.98088 7.6476773 21.019125 9 21 L 13 21 C 14.352323 21.01912 14.352323 18.980875 13 19 L 12 19 L 12 5 L 18 5 L 18 7 C 17.98088 8.3523227 20.019125 8.3523227 20 7 L 20 4 C 19.999945 3.4477381 19.552262 3.0000552 19 3 L 3 3 z M 15.990234 13.990234 C 15.092817 13.99047 14.649857 15.08112 15.292969 15.707031 L 17.085938 17.5 L 15.292969 19.292969 C 14.311289 20.235477 15.764523 21.688711 16.707031 20.707031 L 18.5 18.914062 L 20.292969 20.707031 C 21.235477 21.688711 22.688711 20.235477 21.707031 19.292969 L 19.914062 17.5 L 21.707031 15.707031 C 22.361134 15.071216 21.892274 13.963344 20.980469 13.990234 C 20.72067 13.997934 20.474091 14.106555 20.292969 14.292969 L 18.5 16.085938 L 16.707031 14.292969 C 16.51876 14.099436 16.260236 13.99025 15.990234 13.990234 z "
     id="path2" />
</svg>
