<?xml version="1.0" encoding="UTF-8" standalone="no"?>
<svg
   xmlns:dc="http://purl.org/dc/elements/1.1/"
   xmlns:cc="http://creativecommons.org/ns#"
   xmlns:rdf="http://www.w3.org/1999/02/22-rdf-syntax-ns#"
   xmlns:svg="http://www.w3.org/2000/svg"
   xmlns="http://www.w3.org/2000/svg"
   xmlns:sodipodi="http://sodipodi.sourceforge.net/DTD/sodipodi-0.dtd"
   xmlns:inkscape="http://www.inkscape.org/namespaces/inkscape"
   width="24"
   height="24"
   viewBox="0 0 24 24"
   fill="none"
   version="1.1"
   id="svg8"
   sodipodi:docname="cross-out-text.svg"
   inkscape:version="0.92.4 (5da689c313, 2019-01-14)">
  <metadata
     id="metadata14">
    <rdf:RDF>
      <cc:Work
         rdf:about="">
        <dc:format>image/svg+xml</dc:format>
        <dc:type
           rdf:resource="http://purl.org/dc/dcmitype/StillImage" />
      </cc:Work>
    </rdf:RDF>
  </metadata>
  <defs
     id="defs12" />
  <sodipodi:namedview
     pagecolor="#ffffff"
     bordercolor="#666666"
     borderopacity="1"
     objecttolerance="10"
     gridtolerance="10"
     guidetolerance="10"
     inkscape:pageopacity="0"
     inkscape:pageshadow="2"
     inkscape:window-width="1920"
     inkscape:window-height="1017"
     id="namedview10"
     showgrid="false"
     inkscape:zoom="19.666667"
     inkscape:cx="2.3910773"
     inkscape:cy="7.9976095"
     inkscape:window-x="-8"
     inkscape:window-y="-8"
     inkscape:window-maximized="1"
     inkscape:current-layer="svg8" />
  <path
     style="color:#000000;font-style:normal;font-variant:normal;font-weight:normal;font-stretch:normal;font-size:medium;line-height:normal;font-family:sans-serif;font-variant-ligatures:normal;font-variant-position:normal;font-variant-caps:normal;font-variant-numeric:normal;font-variant-alternates:normal;font-feature-settings:normal;text-indent:0;text-align:start;text-decoration:none;text-decoration-line:none;text-decoration-style:solid;text-decoration-color:#000000;letter-spacing:normal;word-spacing:normal;text-transform:none;writing-mode:lr-tb;direction:ltr;text-orientation:mixed;dominant-baseline:auto;baseline-shift:baseline;text-anchor:start;white-space:normal;shape-padding:0;clip-rule:nonzero;display:inline;overflow:visible;visibility:visible;opacity:1;isolation:auto;mix-blend-mode:normal;color-interpolation:sRGB;color-interpolation-filters:linearRGB;solid-color:#000000;solid-opacity:1;vector-effect:none;fill:#8a94a6;fill-opacity:1;fill-rule:nonzero;stroke:none;stroke-width:2;stroke-linecap:round;stroke-linejoin:miter;stroke-miterlimit:4;stroke-dasharray:none;stroke-dashoffset:0;stroke-opacity:1;color-rendering:auto;image-rendering:auto;shape-rendering:auto;text-rendering:auto;enable-background:accumulate"
     d="M 12.027344 3 C 8.7914193 3 6 5.2764783 6 8.2714844 C 6 8.7488632 6.0728539 9.2139867 6.2089844 9.6542969 A 1.0001 1.0001 0 1 0 8.1191406 9.0644531 C 8.0404911 8.8100633 8 8.5460456 8 8.2714844 C 8 6.5489104 9.7095677 5 12.027344 5 C 13.910095 5 15.422007 6.0648849 15.890625 7.34375 A 1.0001 1.0001 0 1 0 17.767578 6.65625 C 16.962396 4.4588951 14.655992 3 12.027344 3 z M 20.966797 8.9960938 A 1.0001 1.0001 0 0 0 20.951172 8.9980469 A 1.0001 1.0001 0 0 0 20.783203 9.0234375 L 2.7832031 13.023438 A 1.0003371 1.0003371 0 1 0 3.2167969 14.976562 L 12.076172 13.007812 C 14.375298 13.072566 16 14.511321 16 16 C 16 17.522727 14.299968 19 11.919922 19 C 9.9118431 19 8.344564 17.892915 7.9511719 16.689453 C 7.5371094 15.421224 5.6347656 16.042318 6.0488281 17.310547 C 6.783316 19.557485 9.1937804 21 11.919922 21 C 15.151076 21 18 18.895473 18 16 C 18 14.408654 17.122513 13.073419 15.810547 12.177734 L 21.216797 10.976562 A 1.0001 1.0001 0 0 0 20.966797 8.9960938 z "
     id="path2" />
</svg>
