<?xml version="1.0" encoding="UTF-8" standalone="no"?>
<svg
   xmlns:dc="http://purl.org/dc/elements/1.1/"
   xmlns:cc="http://creativecommons.org/ns#"
   xmlns:rdf="http://www.w3.org/1999/02/22-rdf-syntax-ns#"
   xmlns:svg="http://www.w3.org/2000/svg"
   xmlns="http://www.w3.org/2000/svg"
   xmlns:sodipodi="http://sodipodi.sourceforge.net/DTD/sodipodi-0.dtd"
   xmlns:inkscape="http://www.inkscape.org/namespaces/inkscape"
   width="24"
   height="24"
   viewBox="0 0 24 24"
   fill="none"
   stroke="currentColor"
   stroke-width="2"
   stroke-linecap="round"
   stroke-linejoin="round"
   class="feather feather-image"
   version="1.1"
   id="svg8"
   sodipodi:docname="image.svg"
   inkscape:version="0.92.4 (5da689c313, 2019-01-14)">
  <metadata
     id="metadata14">
    <rdf:RDF>
      <cc:Work
         rdf:about="">
        <dc:format>image/svg+xml</dc:format>
        <dc:type
           rdf:resource="http://purl.org/dc/dcmitype/StillImage" />
      </cc:Work>
    </rdf:RDF>
  </metadata>
  <defs
     id="defs12" />
  <sodipodi:namedview
     pagecolor="#ffffff"
     bordercolor="#666666"
     borderopacity="1"
     objecttolerance="10"
     gridtolerance="10"
     guidetolerance="10"
     inkscape:pageopacity="0"
     inkscape:pageshadow="2"
     inkscape:window-width="1920"
     inkscape:window-height="1017"
     id="namedview10"
     showgrid="false"
     inkscape:zoom="19.666667"
     inkscape:cx="5.7383063"
     inkscape:cy="4.051682"
     inkscape:window-x="-8"
     inkscape:window-y="-8"
     inkscape:window-maximized="1"
     inkscape:current-layer="svg8" />
  <path
     style="color:#000000;font-style:normal;font-variant:normal;font-weight:normal;font-stretch:normal;font-size:medium;line-height:normal;font-family:sans-serif;font-variant-ligatures:normal;font-variant-position:normal;font-variant-caps:normal;font-variant-numeric:normal;font-variant-alternates:normal;font-feature-settings:normal;text-indent:0;text-align:start;text-decoration:none;text-decoration-line:none;text-decoration-style:solid;text-decoration-color:#000000;letter-spacing:normal;word-spacing:normal;text-transform:none;writing-mode:lr-tb;direction:ltr;text-orientation:mixed;dominant-baseline:auto;baseline-shift:baseline;text-anchor:start;white-space:normal;shape-padding:0;clip-rule:nonzero;display:inline;overflow:visible;visibility:visible;opacity:1;isolation:auto;mix-blend-mode:normal;color-interpolation:sRGB;color-interpolation-filters:linearRGB;solid-color:#000000;solid-opacity:1;vector-effect:none;fill:#8a94a6;fill-opacity:1;fill-rule:nonzero;stroke:none;stroke-width:2;stroke-linecap:butt;stroke-linejoin:miter;stroke-miterlimit:4;stroke-dasharray:none;stroke-dashoffset:0;stroke-opacity:1;color-rendering:auto;image-rendering:auto;shape-rendering:auto;text-rendering:auto;enable-background:accumulate"
     d="M 5 2 C 3.3552972 2 2 3.3552972 2 5 L 2 19 C 2 20.644703 3.3552972 22 5 22 L 19 22 C 20.644703 22 22 20.644703 22 19 L 22 5 C 22 3.3552972 20.644703 2 19 2 L 5 2 z M 5 4 L 19 4 C 19.571297 4 20 4.4287028 20 5 L 20 12.585938 L 16.707031 9.2929688 C 16.515708 9.1015569 16.254978 8.9958557 15.984375 9 C 15.724601 9.00414 15.476635 9.1092126 15.292969 9.2929688 L 4.6523438 19.933594 C 4.2657921 19.797594 4 19.446088 4 19 L 4 5 C 4 4.4287028 4.4287028 4 5 4 z M 8.5 6 C 7.1311328 6 6 7.1311328 6 8.5 C 6 9.8688672 7.1311328 11 8.5 11 C 9.8688672 11 11 9.8688672 11 8.5 C 11 7.1311328 9.8688672 6 8.5 6 z M 8.5 8 C 8.787987 8 9 8.212013 9 8.5 C 9 8.787987 8.787987 9 8.5 9 C 8.212013 9 8 8.787987 8 8.5 C 8 8.212013 8.212013 8 8.5 8 z M 16 11.414062 L 20 15.414062 L 20 19 C 20 19.571297 19.571297 20 19 20 L 7.4140625 20 L 16 11.414062 z "
     id="rect2" />
</svg>
