<?xml version="1.0" encoding="UTF-8" standalone="no"?>
<svg
   xmlns:dc="http://purl.org/dc/elements/1.1/"
   xmlns:cc="http://creativecommons.org/ns#"
   xmlns:rdf="http://www.w3.org/1999/02/22-rdf-syntax-ns#"
   xmlns:svg="http://www.w3.org/2000/svg"
   xmlns="http://www.w3.org/2000/svg"
   xmlns:sodipodi="http://sodipodi.sourceforge.net/DTD/sodipodi-0.dtd"
   xmlns:inkscape="http://www.inkscape.org/namespaces/inkscape"
   width="24"
   height="24"
   viewBox="0 0 24 24"
   fill="none"
   stroke="currentColor"
   stroke-width="2"
   stroke-linecap="round"
   stroke-linejoin="round"
   class="feather feather-link"
   version="1.1"
   id="svg6"
   sodipodi:docname="link.svg"
   inkscape:version="0.92.4 (5da689c313, 2019-01-14)">
  <metadata
     id="metadata12">
    <rdf:RDF>
      <cc:Work
         rdf:about="">
        <dc:format>image/svg+xml</dc:format>
        <dc:type
           rdf:resource="http://purl.org/dc/dcmitype/StillImage" />
      </cc:Work>
    </rdf:RDF>
  </metadata>
  <defs
     id="defs10" />
  <sodipodi:namedview
     pagecolor="#ffffff"
     bordercolor="#666666"
     borderopacity="1"
     objecttolerance="10"
     gridtolerance="10"
     guidetolerance="10"
     inkscape:pageopacity="0"
     inkscape:pageshadow="2"
     inkscape:window-width="1920"
     inkscape:window-height="1017"
     id="namedview8"
     showgrid="false"
     inkscape:zoom="9.8333333"
     inkscape:cx="-4.5254238"
     inkscape:cy="12"
     inkscape:window-x="-8"
     inkscape:window-y="-8"
     inkscape:window-maximized="1"
     inkscape:current-layer="svg6" />
  <path
     style="color:#000000;font-style:normal;font-variant:normal;font-weight:normal;font-stretch:normal;font-size:medium;line-height:normal;font-family:sans-serif;font-variant-ligatures:normal;font-variant-position:normal;font-variant-caps:normal;font-variant-numeric:normal;font-variant-alternates:normal;font-feature-settings:normal;text-indent:0;text-align:start;text-decoration:none;text-decoration-line:none;text-decoration-style:solid;text-decoration-color:#000000;letter-spacing:normal;word-spacing:normal;text-transform:none;writing-mode:lr-tb;direction:ltr;text-orientation:mixed;dominant-baseline:auto;baseline-shift:baseline;text-anchor:start;white-space:normal;shape-padding:0;clip-rule:nonzero;display:inline;overflow:visible;visibility:visible;opacity:1;isolation:auto;mix-blend-mode:normal;color-interpolation:sRGB;color-interpolation-filters:linearRGB;solid-color:#000000;solid-opacity:1;vector-effect:none;fill:#8a94a6;fill-opacity:1;fill-rule:nonzero;stroke:none;stroke-width:2;stroke-linecap:butt;stroke-linejoin:miter;stroke-miterlimit:4;stroke-dasharray:none;stroke-dashoffset:0;stroke-opacity:1;color-rendering:auto;image-rendering:auto;shape-rendering:auto;text-rendering:auto;enable-background:accumulate"
     d="M 16.697266 0.98828125 C 15.355676 1.0440204 13.962688 1.6032697 12.775391 2.75 A 1.0001 1.0001 0 0 0 12.765625 2.7617188 L 11.044922 4.4707031 A 1.0001 1.0001 0 1 0 12.455078 5.8886719 L 14.164062 4.1894531 L 14.169922 4.1855469 C 15.167388 3.2247985 16.170764 2.9268814 17.136719 2.9902344 C 18.104573 3.0537124 19.054004 3.5208013 19.771484 4.2382812 C 20.488964 4.9557613 20.956054 5.9051922 21.019531 6.8730469 C 21.082881 7.8390016 20.784967 8.8423774 19.824219 9.8398438 C 19.822319 9.8418038 19.822213 9.8437431 19.820312 9.8457031 L 16.832031 12.832031 A 1.0001 1.0001 0 0 0 16.832031 12.833984 C 15.096605 14.57004 12.271099 14.366035 10.800781 12.400391 A 1.0003906 1.0003906 0 1 0 9.1992188 13.599609 C 11.377498 16.511717 15.677009 16.818064 18.248047 14.246094 L 21.248047 11.248047 A 1.0001 1.0001 0 0 0 21.259766 11.234375 C 22.570301 9.8774175 23.11471 8.2529565 23.015625 6.7421875 C 22.91654 5.2314185 22.215439 3.8541111 21.185547 2.8242188 C 20.155654 1.7943262 18.778347 1.0932257 17.267578 0.99414062 C 17.078732 0.98175499 16.888921 0.98031852 16.697266 0.98828125 z M 9.796875 8.0078125 C 8.3328054 8.0540446 6.8767823 8.6286692 5.7519531 9.7539062 L 2.7519531 12.751953 A 1.0001 1.0001 0 0 0 2.7402344 12.765625 C 1.4296855 14.122536 0.88528994 15.747045 0.984375 17.257812 C 1.0834601 18.768581 1.7845607 20.145889 2.8144531 21.175781 C 3.8443456 22.205674 5.2216529 22.906774 6.7324219 23.005859 C 8.2431908 23.104939 9.8676983 22.560549 11.224609 21.25 A 1.0001 1.0001 0 0 0 11.236328 21.236328 L 12.947266 19.527344 A 1.0001 1.0001 0 1 0 11.533203 18.113281 L 9.8300781 19.814453 C 8.8326119 20.775202 7.8292359 21.073119 6.8632812 21.009766 C 5.8954267 20.946288 4.9459957 20.479199 4.2285156 19.761719 C 3.5110355 19.044239 3.0439462 18.094808 2.9804688 17.126953 C 2.9171157 16.160998 3.2150328 15.157622 4.1757812 14.160156 C 4.1776713 14.158156 4.1777875 14.156297 4.1796875 14.154297 L 7.1679688 11.167969 A 1.0001 1.0001 0 0 0 7.1679688 11.166016 C 8.9033948 9.4299598 11.728901 9.6339653 13.199219 11.599609 A 1.0003905 1.0003905 0 1 0 14.800781 10.400391 C 13.711639 8.9444245 12.092163 8.1390141 10.423828 8.0195312 C 10.215286 8.0045959 10.006028 8.0012079 9.796875 8.0078125 z "
     id="path2" />
</svg>
