<?xml version="1.0" encoding="UTF-8" standalone="no"?>
<svg
   xmlns:dc="http://purl.org/dc/elements/1.1/"
   xmlns:cc="http://creativecommons.org/ns#"
   xmlns:rdf="http://www.w3.org/1999/02/22-rdf-syntax-ns#"
   xmlns:svg="http://www.w3.org/2000/svg"
   xmlns="http://www.w3.org/2000/svg"
   xmlns:sodipodi="http://sodipodi.sourceforge.net/DTD/sodipodi-0.dtd"
   xmlns:inkscape="http://www.inkscape.org/namespaces/inkscape"
   width="24"
   height="24"
   viewBox="0 0 24 24"
   fill="none"
   version="1.1"
   id="svg14"
   sodipodi:docname="list-numbered.svg"
   inkscape:version="0.92.4 (5da689c313, 2019-01-14)">
  <metadata
     id="metadata20">
    <rdf:RDF>
      <cc:Work
         rdf:about="">
        <dc:format>image/svg+xml</dc:format>
        <dc:type
           rdf:resource="http://purl.org/dc/dcmitype/StillImage" />
      </cc:Work>
    </rdf:RDF>
  </metadata>
  <defs
     id="defs18" />
  <sodipodi:namedview
     pagecolor="#ffffff"
     bordercolor="#666666"
     borderopacity="1"
     objecttolerance="10"
     gridtolerance="10"
     guidetolerance="10"
     inkscape:pageopacity="0"
     inkscape:pageshadow="2"
     inkscape:window-width="1920"
     inkscape:window-height="1017"
     id="namedview16"
     showgrid="true"
     inkscape:zoom="27.812867"
     inkscape:cx="-1.2980472"
     inkscape:cy="13.867716"
     inkscape:window-x="-8"
     inkscape:window-y="-8"
     inkscape:window-maximized="1"
     inkscape:current-layer="svg14">
    <inkscape:grid
       type="xygrid"
       id="grid827" />
  </sodipodi:namedview>
  <path
     style="color:#000000;font-style:normal;font-variant:normal;font-weight:normal;font-stretch:normal;font-size:medium;line-height:normal;font-family:sans-serif;font-variant-ligatures:normal;font-variant-position:normal;font-variant-caps:normal;font-variant-numeric:normal;font-variant-alternates:normal;font-feature-settings:normal;text-indent:0;text-align:start;text-decoration:none;text-decoration-line:none;text-decoration-style:solid;text-decoration-color:#000000;letter-spacing:normal;word-spacing:normal;text-transform:none;writing-mode:lr-tb;direction:ltr;text-orientation:mixed;dominant-baseline:auto;baseline-shift:baseline;text-anchor:start;white-space:normal;shape-padding:0;clip-rule:nonzero;display:inline;overflow:visible;visibility:visible;opacity:1;isolation:auto;mix-blend-mode:normal;color-interpolation:sRGB;color-interpolation-filters:linearRGB;solid-color:#000000;solid-opacity:1;vector-effect:none;fill:#8a94a6;fill-opacity:1;fill-rule:nonzero;stroke:none;stroke-width:2;stroke-linecap:round;stroke-linejoin:round;stroke-miterlimit:4;stroke-dasharray:none;stroke-dashoffset:0;stroke-opacity:1;color-rendering:auto;image-rendering:auto;shape-rendering:auto;text-rendering:auto;enable-background:accumulate"
     d="M 4.9082031 4 L 3 4.6074219 L 3 5.3105469 L 3.9902344 5.0449219 L 3.9902344 8 L 5 8 L 5 4 L 4.9082031 4 z M 9 5 A 1.0001 1.0001 0 1 0 9 7 L 21 7 A 1.0001 1.0001 0 1 0 21 5 L 9 5 z M 4.4882812 10 C 4.2072113 10 3.9540925 10.058328 3.7265625 10.173828 C 3.4990325 10.289428 3.3195162 10.45045 3.1914062 10.65625 C 3.0632963 10.86025 3 11.082319 3 11.324219 L 3.96875 11.324219 C 3.96875 11.147319 4.0156519 11.000113 4.1074219 10.882812 C 4.1992019 10.763613 4.3176238 10.703125 4.4648438 10.703125 C 4.6139837 10.703125 4.7282506 10.747537 4.8066406 10.835938 C 4.8850406 10.924437 4.9238281 11.054909 4.9238281 11.224609 C 4.9238281 11.434009 4.7585144 11.716566 4.4277344 12.072266 L 3.0859375 13.404297 L 3.0859375 14 L 6 14 L 6 13.296875 L 4.3574219 13.296875 L 4.8964844 12.708984 C 5.1832944 12.438184 5.3894781 12.221247 5.5175781 12.060547 C 5.6475981 11.898047 5.7435075 11.743956 5.8046875 11.597656 C 5.8658775 11.449656 5.8964844 11.297778 5.8964844 11.142578 C 5.8964844 10.774178 5.7740369 10.491722 5.5292969 10.294922 C 5.2864669 10.098122 4.9395213 10 4.4882812 10 z M 9 11 A 1.0001 1.0001 0 1 0 9 13 L 21 13 A 1.0001 1.0001 0 1 0 21 11 L 9 11 z M 4.4570312 16 C 4.1999413 16 3.9635469 16.045819 3.7480469 16.136719 C 3.5344369 16.225719 3.3670737 16.349366 3.2460938 16.509766 C 3.1251138 16.670066 3.0644531 16.853794 3.0644531 17.058594 L 4.0214844 17.058594 C 4.0214844 16.955294 4.0675262 16.868328 4.1601562 16.798828 C 4.2546662 16.729428 4.3655375 16.695312 4.4921875 16.695312 C 4.6471975 16.695312 4.7664925 16.736459 4.8515625 16.818359 C 4.9366225 16.898559 4.9785156 17.002559 4.9785156 17.130859 C 4.9785156 17.460359 4.8006394 17.625 4.4433594 17.625 L 3.9921875 17.625 L 3.9921875 18.294922 L 4.4570312 18.294922 C 4.6403913 18.294922 4.7847019 18.335969 4.8886719 18.417969 C 4.9926419 18.499869 5.0449219 18.640037 5.0449219 18.835938 C 5.0449219 18.973137 4.9947212 19.084828 4.8945312 19.173828 C 4.7943413 19.261128 4.6604375 19.304688 4.4921875 19.304688 C 4.3428475 19.304688 4.2173144 19.261128 4.1152344 19.173828 C 4.0131544 19.086628 3.9609375 18.984534 3.9609375 18.865234 L 3 18.865234 C 3 19.084334 3.0586444 19.280325 3.1777344 19.453125 C 3.2968244 19.624125 3.472505 19.757469 3.703125 19.855469 C 3.935645 19.951669 4.1867113 20 4.4570312 20 C 4.9182713 20 5.2906688 19.8959 5.5742188 19.6875 C 5.8577687 19.4791 6 19.200916 6 18.853516 C 6 18.629116 5.93727 18.440462 5.8125 18.289062 C 5.68774 18.135863 5.516155 18.022066 5.296875 17.947266 C 5.504815 17.854666 5.6617812 17.735691 5.7695312 17.587891 C 5.8791712 17.438191 5.9355469 17.278728 5.9355469 17.111328 C 5.9355469 16.765728 5.8037756 16.494575 5.5410156 16.296875 C 5.2782556 16.099175 4.9163813 16 4.4570312 16 z M 9 17 A 1.0001 1.0001 0 1 0 9 19 L 21 19 A 1.0001 1.0001 0 1 0 21 17 L 9 17 z "
     id="path2" />
</svg>
