<?xml version="1.0" encoding="UTF-8" standalone="no"?>
<svg
   xmlns:dc="http://purl.org/dc/elements/1.1/"
   xmlns:cc="http://creativecommons.org/ns#"
   xmlns:rdf="http://www.w3.org/1999/02/22-rdf-syntax-ns#"
   xmlns:svg="http://www.w3.org/2000/svg"
   xmlns="http://www.w3.org/2000/svg"
   xmlns:sodipodi="http://sodipodi.sourceforge.net/DTD/sodipodi-0.dtd"
   xmlns:inkscape="http://www.inkscape.org/namespaces/inkscape"
   inkscape:version="1.0 (4035a4fb49, 2020-05-01)"
   sodipodi:docname="paintbrush.svg"
   id="svg4"
   version="1.1"
   fill="none"
   viewBox="0 0 24 24"
   height="24"
   width="24">
  <metadata
     id="metadata10">
    <rdf:RDF>
      <cc:Work
         rdf:about="">
        <dc:format>image/svg+xml</dc:format>
        <dc:type
           rdf:resource="http://purl.org/dc/dcmitype/StillImage" />
      </cc:Work>
    </rdf:RDF>
  </metadata>
  <defs
     id="defs8" />
  <sodipodi:namedview
     inkscape:document-rotation="0"
     inkscape:bbox-nodes="true"
     inkscape:snap-bbox="true"
     inkscape:current-layer="svg4"
     inkscape:window-maximized="1"
     inkscape:window-y="-8"
     inkscape:window-x="-8"
     inkscape:cy="14.148986"
     inkscape:cx="-1.2550009"
     inkscape:zoom="11.313709"
     showgrid="true"
     id="namedview6"
     inkscape:window-height="1017"
     inkscape:window-width="2560"
     inkscape:pageshadow="2"
     inkscape:pageopacity="0"
     guidetolerance="10"
     gridtolerance="10"
     objecttolerance="10"
     borderopacity="1"
     bordercolor="#666666"
     pagecolor="#ffffff">
    <inkscape:grid
       id="grid812"
       type="xygrid" />
  </sodipodi:namedview>
  <g
     transform="rotate(-45,13.375414,11.90633)"
     id="g822">
    <path
       id="rect814"
       transform="rotate(45,13.375414,11.90633)"
       d="M 18.833984 2.1738281 C 18.064069 2.1738281 17.292428 2.4634316 16.710938 3.0449219 L 8.9101562 10.845703 C 7.4111858 10.641083 5.8371429 11.092545 4.6914062 12.238281 C 4.0874936 12.842194 3.7561946 13.62732 3.4609375 14.498047 C 3.1656805 15.368774 2.9405709 16.329283 2.7675781 17.232422 C 2.4215927 19.0387 2.28125 20.632812 2.28125 20.632812 L 2.1738281 21.826172 L 3.3671875 21.71875 C 3.3671875 21.71875 4.9612999 21.578407 6.7675781 21.232422 C 7.6707169 21.059429 8.6312266 20.83432 9.5019531 20.539062 C 10.37268 20.243806 11.157806 19.912506 11.761719 19.308594 C 12.907455 18.162857 13.358917 16.588814 13.154297 15.089844 L 20.955078 7.2890625 C 22.118059 6.1260819 22.118059 4.2079025 20.955078 3.0449219 C 20.373588 2.4634316 19.603899 2.1738281 18.833984 2.1738281 z M 18.833984 4.15625 C 19.086546 4.15625 19.339032 4.2570004 19.541016 4.4589844 C 19.944984 4.8629524 19.944984 5.471032 19.541016 5.875 L 12.398438 13.017578 C 12.216497 12.741522 12.004086 12.480648 11.761719 12.238281 C 11.519352 11.995914 11.258478 11.783503 10.982422 11.601562 L 18.125 4.4589844 C 18.326984 4.2570004 18.581423 4.15625 18.833984 4.15625 z M 8.2265625 12.767578 C 8.9922356 12.767578 9.7576821 13.06237 10.347656 13.652344 C 11.527605 14.832292 11.527605 16.714583 10.347656 17.894531 C 10.17052 18.071667 9.5935021 18.397547 8.859375 18.646484 C 8.1252473 18.895421 7.2367677 19.10355 6.390625 19.265625 C 5.367943 19.461515 5.0523122 19.47469 4.4550781 19.544922 C 4.5253097 18.947688 4.5384846 18.632057 4.734375 17.609375 C 4.8964502 16.763233 5.1045785 15.874752 5.3535156 15.140625 C 5.6024527 14.406498 5.9283328 13.82948 6.1054688 13.652344 C 6.6954429 13.06237 7.4608894 12.767578 8.2265625 12.767578 z "
       style="color:#000000;font-style:normal;font-variant:normal;font-weight:normal;font-stretch:normal;font-size:medium;line-height:normal;font-family:sans-serif;font-variant-ligatures:normal;font-variant-position:normal;font-variant-caps:normal;font-variant-numeric:normal;font-variant-alternates:normal;font-feature-settings:normal;text-indent:0;text-align:start;text-decoration:none;text-decoration-line:none;text-decoration-style:solid;text-decoration-color:#000000;letter-spacing:normal;word-spacing:normal;text-transform:none;writing-mode:lr-tb;direction:ltr;text-orientation:mixed;dominant-baseline:auto;baseline-shift:baseline;text-anchor:start;white-space:normal;shape-padding:0;clip-rule:nonzero;display:inline;overflow:visible;visibility:visible;opacity:1;isolation:auto;mix-blend-mode:normal;color-interpolation:sRGB;color-interpolation-filters:linearRGB;solid-color:#000000;solid-opacity:1;vector-effect:none;fill:#8a94a6;fill-opacity:1;fill-rule:nonzero;stroke:none;stroke-width:2;stroke-linecap:round;stroke-linejoin:round;stroke-miterlimit:4;stroke-dasharray:none;stroke-dashoffset:0;stroke-opacity:1;marker:none;paint-order:normal;color-rendering:auto;image-rendering:auto;shape-rendering:auto;text-rendering:auto;enable-background:accumulate" />
  </g>
</svg>
