<?xml version="1.0" encoding="UTF-8" standalone="no"?>
<svg
   xmlns:dc="http://purl.org/dc/elements/1.1/"
   xmlns:cc="http://creativecommons.org/ns#"
   xmlns:rdf="http://www.w3.org/1999/02/22-rdf-syntax-ns#"
   xmlns:svg="http://www.w3.org/2000/svg"
   xmlns="http://www.w3.org/2000/svg"
   xmlns:sodipodi="http://sodipodi.sourceforge.net/DTD/sodipodi-0.dtd"
   xmlns:inkscape="http://www.inkscape.org/namespaces/inkscape"
   inkscape:version="1.0 (4035a4fb49, 2020-05-01)"
   sodipodi:docname="timestamp.svg"
   id="svg6"
   version="1.1"
   fill="none"
   viewBox="0 0 24 24"
   height="24"
   width="24">
  <metadata
     id="metadata12">
    <rdf:RDF>
      <cc:Work
         rdf:about="">
        <dc:format>image/svg+xml</dc:format>
        <dc:type
           rdf:resource="http://purl.org/dc/dcmitype/StillImage" />
      </cc:Work>
    </rdf:RDF>
  </metadata>
  <defs
     id="defs10" />
  <sodipodi:namedview
     inkscape:document-rotation="0"
     inkscape:current-layer="svg6"
     inkscape:window-maximized="1"
     inkscape:window-y="-8"
     inkscape:window-x="-8"
     inkscape:cy="2.4962045"
     inkscape:cx="-17.599225"
     inkscape:zoom="8"
     inkscape:guide-bbox="true"
     showguides="true"
     inkscape:object-paths="true"
     inkscape:bbox-nodes="true"
     inkscape:snap-bbox="true"
     showgrid="false"
     id="namedview8"
     inkscape:window-height="1017"
     inkscape:window-width="2560"
     inkscape:pageshadow="2"
     inkscape:pageopacity="0"
     guidetolerance="10"
     gridtolerance="10"
     objecttolerance="10"
     borderopacity="1"
     bordercolor="#666666"
     pagecolor="#ffffff">
    <inkscape:grid
       id="grid822"
       type="xygrid" />
    <sodipodi:guide
       inkscape:locked="false"
       id="guide831"
       orientation="1,0"
       position="14,10.343147" />
    <sodipodi:guide
       inkscape:locked="false"
       id="guide833"
       orientation="1,0"
       position="10,10.343147" />
  </sodipodi:namedview>
  <path
     id="path4"
     d="M 12 1 C 8.1458514 1 5 4.1458514 5 8 C 5 10.767206 6.6529103 13.106632 8.9980469 14.240234 L 9 16 L 5 16 C 4.1666667 16 3.4501036 16.385834 2.9179688 16.917969 C 2.3858339 17.450104 2 18.166667 2 19 L 2 22 C 2.0000552 22.552262 2.4477381 22.999945 3 23 L 21 23 C 21.552262 22.999945 21.999945 22.552262 22 22 L 22 19 C 22 18.166667 21.614166 17.450104 21.082031 16.917969 C 20.549896 16.385834 19.833333 16 19 16 L 15 16 L 15 14.242188 C 17.345891 13.109682 19 10.768581 19 8 C 19 4.1458513 15.854148 1 12 1 z M 12 3 C 14.773268 3 17 5.2267317 17 8 C 17 10.186524 15.60465 12.030547 13.666016 12.714844 C 13.266555 12.856417 12.999699 13.234397 13 13.658203 L 13 16 C 13 16.593967 13.272667 17.070243 13.621094 17.410156 C 13.969521 17.75007 14.424435 18 15 18 L 19 18 C 19.166667 18 19.450104 18.114166 19.667969 18.332031 C 19.885834 18.549896 20 18.833333 20 19 L 20 21 L 4 21 L 4 19 C 4 18.833333 4.1141661 18.549896 4.3320312 18.332031 C 4.5498964 18.114166 4.8333333 18 5 18 L 9 18 C 9.5755647 18 10.030387 17.750086 10.378906 17.410156 C 10.727425 17.070226 11.000377 16.594376 11 16 L 10.998047 13.65625 C 10.997528 13.233172 10.730798 12.856193 10.332031 12.714844 C 8.3928757 12.029014 7 10.185438 7 8 C 7 5.2267316 9.2267316 3 12 3 z M 11.984375 4.9863281 C 11.432859 4.9949492 10.992447 5.4484682 11 6 L 11 8 C 11.000051 8.265199 11.105433 8.5195196 11.292969 8.7070312 L 13.292969 10.707031 C 14.235477 11.688704 15.688704 10.235477 14.707031 9.2929688 L 13 7.5859375 L 13 6 C 13.00772 5.4362301 12.548129 4.9775228 11.984375 4.9863281 z "
     style="color:#000000;font-style:normal;font-variant:normal;font-weight:normal;font-stretch:normal;font-size:medium;line-height:normal;font-family:sans-serif;font-variant-ligatures:normal;font-variant-position:normal;font-variant-caps:normal;font-variant-numeric:normal;font-variant-alternates:normal;font-feature-settings:normal;text-indent:0;text-align:start;text-decoration:none;text-decoration-line:none;text-decoration-style:solid;text-decoration-color:#000000;letter-spacing:normal;word-spacing:normal;text-transform:none;writing-mode:lr-tb;direction:ltr;text-orientation:mixed;dominant-baseline:auto;baseline-shift:baseline;text-anchor:start;white-space:normal;shape-padding:0;clip-rule:nonzero;display:inline;overflow:visible;visibility:visible;opacity:1;isolation:auto;mix-blend-mode:normal;color-interpolation:sRGB;color-interpolation-filters:linearRGB;solid-color:#000000;solid-opacity:1;vector-effect:none;fill:#8a94a6;fill-opacity:1;fill-rule:nonzero;stroke:none;stroke-width:2;stroke-linecap:round;stroke-linejoin:round;stroke-miterlimit:4;stroke-dasharray:none;stroke-dashoffset:0;stroke-opacity:1;color-rendering:auto;image-rendering:auto;shape-rendering:auto;text-rendering:auto;enable-background:accumulate" />
</svg>
